<?xml version="1.0" encoding="UTF-8"?>
<!--Generator: Apple Native CoreSVG 123-->
<!DOCTYPE svg
PUBLIC "-//W3C//DTD SVG 1.1//EN"
       "http://www.w3.org/Graphics/SVG/1.1/DTD/svg11.dtd">
<svg version="1.1" xmlns="http://www.w3.org/2000/svg" xmlns:xlink="http://www.w3.org/1999/xlink" width="3300" height="2200">
 <!--glyph: "uni100657.medium", point size: 100.000000, font version: "Version 15.0d7e11", template writer version: "5"-->
 <g id="Notes">
  <rect height="2200" id="artboard" style="fill:white;opacity:1" width="3300" x="0" y="0"/>
  <line id="" style="fill:none;stroke:black;opacity:1;stroke-width:0.5;" x1="263" x2="3036" y1="292" y2="292"/>
  <text style="stroke:none;fill:black;font-family:-apple-system,&quot;SF Pro Display&quot;,&quot;SF Pro Text&quot;,Helvetica,sans-serif;font-weight:bold;" transform="matrix(1 0 0 1 263 322)">Weight/Scale Variations</text>
  <text style="stroke:none;fill:black;font-family:-apple-system,&quot;SF Pro Display&quot;,&quot;SF Pro Text&quot;,Helvetica,sans-serif;text-anchor:middle;" transform="matrix(1 0 0 1 559.711 322)">Ultralight</text>
  <text style="stroke:none;fill:black;font-family:-apple-system,&quot;SF Pro Display&quot;,&quot;SF Pro Text&quot;,Helvetica,sans-serif;text-anchor:middle;" transform="matrix(1 0 0 1 856.422 322)">Thin</text>
  <text style="stroke:none;fill:black;font-family:-apple-system,&quot;SF Pro Display&quot;,&quot;SF Pro Text&quot;,Helvetica,sans-serif;text-anchor:middle;" transform="matrix(1 0 0 1 1153.13 322)">Light</text>
  <text style="stroke:none;fill:black;font-family:-apple-system,&quot;SF Pro Display&quot;,&quot;SF Pro Text&quot;,Helvetica,sans-serif;text-anchor:middle;" transform="matrix(1 0 0 1 1449.84 322)">Regular</text>
  <text style="stroke:none;fill:black;font-family:-apple-system,&quot;SF Pro Display&quot;,&quot;SF Pro Text&quot;,Helvetica,sans-serif;text-anchor:middle;" transform="matrix(1 0 0 1 1746.56 322)">Medium</text>
  <text style="stroke:none;fill:black;font-family:-apple-system,&quot;SF Pro Display&quot;,&quot;SF Pro Text&quot;,Helvetica,sans-serif;text-anchor:middle;" transform="matrix(1 0 0 1 2043.27 322)">Semibold</text>
  <text style="stroke:none;fill:black;font-family:-apple-system,&quot;SF Pro Display&quot;,&quot;SF Pro Text&quot;,Helvetica,sans-serif;text-anchor:middle;" transform="matrix(1 0 0 1 2339.98 322)">Bold</text>
  <text style="stroke:none;fill:black;font-family:-apple-system,&quot;SF Pro Display&quot;,&quot;SF Pro Text&quot;,Helvetica,sans-serif;text-anchor:middle;" transform="matrix(1 0 0 1 2636.69 322)">Heavy</text>
  <text style="stroke:none;fill:black;font-family:-apple-system,&quot;SF Pro Display&quot;,&quot;SF Pro Text&quot;,Helvetica,sans-serif;text-anchor:middle;" transform="matrix(1 0 0 1 2933.4 322)">Black</text>
  <line id="" style="fill:none;stroke:black;opacity:1;stroke-width:0.5;" x1="263" x2="3036" y1="1903" y2="1903"/>
  <g id="" transform="matrix(1 0 0 1 263 1933)">
   <path d="M 9.24805 0.830078 C 13.5547 0.830078 17.1387 -2.74414 17.1387 -7.05078 C 17.1387 -11.3574 13.5449 -14.9316 9.23828 -14.9316 C 4.94141 -14.9316 1.36719 -11.3574 1.36719 -7.05078 C 1.36719 -2.74414 4.95117 0.830078 9.24805 0.830078 Z M 9.24805 -0.654297 C 5.70312 -0.654297 2.87109 -3.49609 2.87109 -7.05078 C 2.87109 -10.6055 5.69336 -13.4473 9.23828 -13.4473 C 12.793 -13.4473 15.6348 -10.6055 15.6445 -7.05078 C 15.6543 -3.49609 12.8027 -0.654297 9.24805 -0.654297 Z M 9.22852 -3.42773 C 9.69727 -3.42773 9.9707 -3.74023 9.9707 -4.25781 L 9.9707 -6.31836 L 12.1973 -6.31836 C 12.6953 -6.31836 13.0371 -6.57227 13.0371 -7.04102 C 13.0371 -7.51953 12.7148 -7.7832 12.1973 -7.7832 L 9.9707 -7.7832 L 9.9707 -10.0098 C 9.9707 -10.5273 9.69727 -10.8496 9.22852 -10.8496 C 8.75977 -10.8496 8.50586 -10.5078 8.50586 -10.0098 L 8.50586 -7.7832 L 6.29883 -7.7832 C 5.78125 -7.7832 5.44922 -7.51953 5.44922 -7.04102 C 5.44922 -6.57227 5.80078 -6.31836 6.29883 -6.31836 L 8.50586 -6.31836 L 8.50586 -4.25781 C 8.50586 -3.75977 8.75977 -3.42773 9.22852 -3.42773 Z"/>
  </g>
  <g id="" transform="matrix(1 0 0 1 281.506 1933)">
   <path d="M 11.709 2.91016 C 17.1582 2.91016 21.6699 -1.60156 21.6699 -7.05078 C 21.6699 -12.4902 17.1484 -17.0117 11.6992 -17.0117 C 6.25977 -17.0117 1.74805 -12.4902 1.74805 -7.05078 C 1.74805 -1.60156 6.26953 2.91016 11.709 2.91016 Z M 11.709 1.25 C 7.09961 1.25 3.41797 -2.44141 3.41797 -7.05078 C 3.41797 -11.6504 7.08984 -15.3516 11.6992 -15.3516 C 16.3086 -15.3516 20 -11.6504 20.0098 -7.05078 C 20.0195 -2.44141 16.3184 1.25 11.709 1.25 Z M 11.6895 -2.41211 C 12.207 -2.41211 12.5195 -2.77344 12.5195 -3.33984 L 12.5195 -6.23047 L 15.5762 -6.23047 C 16.123 -6.23047 16.5039 -6.51367 16.5039 -7.03125 C 16.5039 -7.55859 16.1426 -7.86133 15.5762 -7.86133 L 12.5195 -7.86133 L 12.5195 -10.9277 C 12.5195 -11.5039 12.207 -11.8555 11.6895 -11.8555 C 11.1719 -11.8555 10.8789 -11.4844 10.8789 -10.9277 L 10.8789 -7.86133 L 7.83203 -7.86133 C 7.26562 -7.86133 6.89453 -7.55859 6.89453 -7.03125 C 6.89453 -6.51367 7.28516 -6.23047 7.83203 -6.23047 L 10.8789 -6.23047 L 10.8789 -3.33984 C 10.8789 -2.79297 11.1719 -2.41211 11.6895 -2.41211 Z"/>
  </g>
  <g id="" transform="matrix(1 0 0 1 304.924 1933)">
   <path d="M 14.9707 5.67383 C 21.9336 5.67383 27.6953 -0.078125 27.6953 -7.04102 C 27.6953 -14.0039 21.9238 -19.7559 14.9609 -19.7559 C 8.00781 -19.7559 2.25586 -14.0039 2.25586 -7.04102 C 2.25586 -0.078125 8.01758 5.67383 14.9707 5.67383 Z M 14.9707 3.85742 C 8.93555 3.85742 4.08203 -1.00586 4.08203 -7.04102 C 4.08203 -13.0762 8.92578 -17.9395 14.9609 -17.9395 C 21.0059 -17.9395 25.8594 -13.0762 25.8691 -7.04102 C 25.8789 -1.00586 21.0156 3.85742 14.9707 3.85742 Z M 14.9512 -1.06445 C 15.5176 -1.06445 15.8691 -1.45508 15.8691 -2.06055 L 15.8691 -6.13281 L 20.1074 -6.13281 C 20.6934 -6.13281 21.1133 -6.46484 21.1133 -7.02148 C 21.1133 -7.59766 20.7227 -7.93945 20.1074 -7.93945 L 15.8691 -7.93945 L 15.8691 -12.1875 C 15.8691 -12.8027 15.5176 -13.1934 14.9512 -13.1934 C 14.3848 -13.1934 14.0625 -12.7832 14.0625 -12.1875 L 14.0625 -7.93945 L 9.83398 -7.93945 C 9.21875 -7.93945 8.80859 -7.59766 8.80859 -7.02148 C 8.80859 -6.46484 9.23828 -6.13281 9.83398 -6.13281 L 14.0625 -6.13281 L 14.0625 -2.06055 C 14.0625 -1.47461 14.3848 -1.06445 14.9512 -1.06445 Z"/>
  </g>
  <text style="stroke:none;fill:black;font-family:-apple-system,&quot;SF Pro Display&quot;,&quot;SF Pro Text&quot;,Helvetica,sans-serif;font-weight:bold;" transform="matrix(1 0 0 1 263 1953)">Design Variations</text>
  <text style="stroke:none;fill:black;font-family:-apple-system,&quot;SF Pro Display&quot;,&quot;SF Pro Text&quot;,Helvetica,sans-serif;" transform="matrix(1 0 0 1 263 1971)">Symbols are supported in up to nine weights and three scales.</text>
  <text style="stroke:none;fill:black;font-family:-apple-system,&quot;SF Pro Display&quot;,&quot;SF Pro Text&quot;,Helvetica,sans-serif;" transform="matrix(1 0 0 1 263 1989)">For optimal layout with text and other symbols, vertically align</text>
  <text style="stroke:none;fill:black;font-family:-apple-system,&quot;SF Pro Display&quot;,&quot;SF Pro Text&quot;,Helvetica,sans-serif;" transform="matrix(1 0 0 1 263 2007)">symbols with the adjacent text.</text>
  <rect height="14" id="" style="fill:#00AEEF;stroke:none;opacity:0.4;" width="3" x="776" y="1919"/>
  <g id="" transform="matrix(1 0 0 1 779 1933)">
   <path d="M 10.5273 0 L 12.373 0 L 7.17773 -14.0918 L 5.43945 -14.0918 L 0.244141 0 L 2.08984 0 L 3.50586 -4.0332 L 9.11133 -4.0332 Z M 6.2793 -11.9531 L 6.33789 -11.9531 L 8.59375 -5.52734 L 4.02344 -5.52734 Z"/>
  </g>
  <rect height="14" id="" style="fill:#00AEEF;stroke:none;opacity:0.4;" width="3" x="791.617" y="1919"/>
  <text style="stroke:none;fill:black;font-family:-apple-system,&quot;SF Pro Display&quot;,&quot;SF Pro Text&quot;,Helvetica,sans-serif;font-weight:bold;" transform="matrix(1 0 0 1 776 1953)">Margins</text>
  <text style="stroke:none;fill:black;font-family:-apple-system,&quot;SF Pro Display&quot;,&quot;SF Pro Text&quot;,Helvetica,sans-serif;" transform="matrix(1 0 0 1 776 1971)">Leading and trailing margins on the left and right side of each symbol</text>
  <text style="stroke:none;fill:black;font-family:-apple-system,&quot;SF Pro Display&quot;,&quot;SF Pro Text&quot;,Helvetica,sans-serif;" transform="matrix(1 0 0 1 776 1989)">can be adjusted by modifying the width of the blue rectangles.</text>
  <text style="stroke:none;fill:black;font-family:-apple-system,&quot;SF Pro Display&quot;,&quot;SF Pro Text&quot;,Helvetica,sans-serif;" transform="matrix(1 0 0 1 776 2007)">Modifications are automatically applied proportionally to all</text>
  <text style="stroke:none;fill:black;font-family:-apple-system,&quot;SF Pro Display&quot;,&quot;SF Pro Text&quot;,Helvetica,sans-serif;" transform="matrix(1 0 0 1 776 2025)">scales and weights.</text>
  <g id="" transform="matrix(1 0 0 1 1289 1933)">
   <path d="M 2.83203 3.11523 L 4.375 4.6582 C 5.22461 5.48828 6.19141 5.41992 7.06055 4.46289 L 17.2754 -6.66016 C 17.7051 -6.36719 18.0957 -6.37695 18.5645 -6.47461 L 19.6094 -6.68945 L 20.3027 -5.99609 L 20.2539 -5.47852 C 20.1855 -4.95117 20.3516 -4.53125 20.8496 -4.0332 L 21.6602 -3.22266 C 22.168 -2.71484 22.8223 -2.68555 23.3008 -3.16406 L 26.5527 -6.41602 C 27.0312 -6.89453 27.0117 -7.54883 26.5039 -8.05664 L 25.6836 -8.87695 C 25.1855 -9.375 24.7754 -9.55078 24.2383 -9.47266 L 23.7109 -9.41406 L 23.0566 -10.0781 L 23.3398 -11.2207 C 23.4863 -11.7871 23.3398 -12.2559 22.7148 -12.8613 L 20.3027 -15.2539 C 16.7578 -18.7793 12.2266 -18.6719 9.11133 -15.5371 C 8.69141 -15.1074 8.64258 -14.5215 8.91602 -14.0918 C 9.15039 -13.7207 9.62891 -13.4961 10.2734 -13.6621 C 11.7871 -14.043 13.3008 -13.9258 14.7852 -12.9199 L 14.1602 -11.3379 C 13.9258 -10.752 13.9453 -10.2734 14.1797 -9.83398 L 3.01758 0.439453 C 2.08008 1.30859 1.97266 2.25586 2.83203 3.11523 Z M 10.6738 -15.1465 C 13.3398 -17.1387 16.6504 -16.8262 19.0527 -14.4141 L 21.6797 -11.8066 C 21.9141 -11.5723 21.9434 -11.3867 21.8848 -11.0938 L 21.5039 -9.53125 L 23.0762 -7.95898 L 24.043 -8.04688 C 24.3262 -8.07617 24.4141 -8.05664 24.6387 -7.83203 L 25.2637 -7.20703 L 22.5098 -4.46289 L 21.8848 -5.07812 C 21.6602 -5.30273 21.6406 -5.40039 21.6699 -5.68359 L 21.7578 -6.64062 L 20.1953 -8.20312 L 18.5742 -7.89062 C 18.291 -7.83203 18.1445 -7.83203 17.9102 -8.07617 L 15.7324 -10.2539 C 15.5078 -10.4883 15.4785 -10.625 15.6055 -10.9473 L 16.5527 -13.2227 C 14.9512 -14.7559 12.8418 -15.6055 10.8008 -14.9512 C 10.7129 -14.9219 10.6445 -14.9414 10.6152 -14.9805 C 10.5859 -15.0293 10.5859 -15.0781 10.6738 -15.1465 Z M 4.10156 2.41211 C 3.61328 1.91406 3.78906 1.61133 4.12109 1.30859 L 15.0781 -8.80859 L 16.3086 -7.57812 L 6.15234 3.34961 C 5.84961 3.68164 5.46875 3.7793 5.06836 3.37891 Z"/>
  </g>
  <text style="stroke:none;fill:black;font-family:-apple-system,&quot;SF Pro Display&quot;,&quot;SF Pro Text&quot;,Helvetica,sans-serif;font-weight:bold;" transform="matrix(1 0 0 1 1289 1953)">Exporting</text>
  <text style="stroke:none;fill:black;font-family:-apple-system,&quot;SF Pro Display&quot;,&quot;SF Pro Text&quot;,Helvetica,sans-serif;" transform="matrix(1 0 0 1 1289 1971)">Symbols should be outlined when exporting to ensure the</text>
  <text style="stroke:none;fill:black;font-family:-apple-system,&quot;SF Pro Display&quot;,&quot;SF Pro Text&quot;,Helvetica,sans-serif;" transform="matrix(1 0 0 1 1289 1989)">design is preserved when submitting to Xcode.</text>
  <text id="template-version" style="stroke:none;fill:black;font-family:-apple-system,&quot;SF Pro Display&quot;,&quot;SF Pro Text&quot;,Helvetica,sans-serif;text-anchor:end;" transform="matrix(1 0 0 1 3036 1933)">Template v.1.0</text>
  <text style="stroke:none;fill:black;font-family:-apple-system,&quot;SF Pro Display&quot;,&quot;SF Pro Text&quot;,Helvetica,sans-serif;text-anchor:end;" transform="matrix(1 0 0 1 3036 1951)">Generated from desktopcomputer</text>
  <text style="stroke:none;fill:black;font-family:-apple-system,&quot;SF Pro Display&quot;,&quot;SF Pro Text&quot;,Helvetica,sans-serif;text-anchor:end;" transform="matrix(1 0 0 1 3036 1969)">Typeset at 100 points</text>
  <text style="stroke:none;fill:black;font-family:-apple-system,&quot;SF Pro Display&quot;,&quot;SF Pro Text&quot;,Helvetica,sans-serif;" transform="matrix(1 0 0 1 263 726)">Small</text>
  <text style="stroke:none;fill:black;font-family:-apple-system,&quot;SF Pro Display&quot;,&quot;SF Pro Text&quot;,Helvetica,sans-serif;" transform="matrix(1 0 0 1 263 1156)">Medium</text>
  <text style="stroke:none;fill:black;font-family:-apple-system,&quot;SF Pro Display&quot;,&quot;SF Pro Text&quot;,Helvetica,sans-serif;" transform="matrix(1 0 0 1 263 1586)">Large</text>
 </g>
 <g id="Guides">
  <g id="H-reference" style="fill:#27AAE1;stroke:none;" transform="matrix(1 0 0 1 339 696)">
   <path d="M 54.9316 0 L 57.666 0 L 30.5664 -70.459 L 28.0762 -70.459 L 0.976562 0 L 3.66211 0 L 12.9395 -24.4629 L 45.7031 -24.4629 Z M 29.1992 -67.0898 L 29.4434 -67.0898 L 44.8242 -26.709 L 13.8184 -26.709 Z"/>
  </g>
  <line id="Baseline-S" style="fill:none;stroke:#27AAE1;opacity:1;stroke-width:0.577;" x1="263" x2="3036" y1="696" y2="696"/>
  <line id="Capline-S" style="fill:none;stroke:#27AAE1;opacity:1;stroke-width:0.577;" x1="263" x2="3036" y1="625.541" y2="625.541"/>
  <g id="H-reference" style="fill:#27AAE1;stroke:none;" transform="matrix(1 0 0 1 339 1126)">
   <path d="M 54.9316 0 L 57.666 0 L 30.5664 -70.459 L 28.0762 -70.459 L 0.976562 0 L 3.66211 0 L 12.9395 -24.4629 L 45.7031 -24.4629 Z M 29.1992 -67.0898 L 29.4434 -67.0898 L 44.8242 -26.709 L 13.8184 -26.709 Z"/>
  </g>
  <line id="Baseline-M" style="fill:none;stroke:#27AAE1;opacity:1;stroke-width:0.577;" x1="263" x2="3036" y1="1126" y2="1126"/>
  <line id="Capline-M" style="fill:none;stroke:#27AAE1;opacity:1;stroke-width:0.577;" x1="263" x2="3036" y1="1055.54" y2="1055.54"/>
  <g id="H-reference" style="fill:#27AAE1;stroke:none;" transform="matrix(1 0 0 1 339 1556)">
   <path d="M 54.9316 0 L 57.666 0 L 30.5664 -70.459 L 28.0762 -70.459 L 0.976562 0 L 3.66211 0 L 12.9395 -24.4629 L 45.7031 -24.4629 Z M 29.1992 -67.0898 L 29.4434 -67.0898 L 44.8242 -26.709 L 13.8184 -26.709 Z"/>
  </g>
  <line id="Baseline-L" style="fill:none;stroke:#27AAE1;opacity:1;stroke-width:0.577;" x1="263" x2="3036" y1="1556" y2="1556"/>
  <line id="Capline-L" style="fill:none;stroke:#27AAE1;opacity:1;stroke-width:0.577;" x1="263" x2="3036" y1="1485.54" y2="1485.54"/>
  <rect height="119.336" id="left-margin" style="fill:#00AEEF;stroke:none;opacity:0.4;" width="12.4512" x="1379.19" y="1030.79"/>
  <rect height="119.336" id="right-margin" style="fill:#00AEEF;stroke:none;opacity:0.4;" width="12.4512" x="1508.05" y="1030.79"/>
 </g>
 <g id="Symbols">
  <g id="Black-L" transform="matrix(1 0 0 1 2839.48 1556)">
   <path d="M 37.6953 8.39844 L 72.6562 8.39844 L 71.2402 17.6758 L 62.6953 17.6758 C 58.5938 17.6758 55.2734 21.1426 55.2734 25.0488 C 55.2734 28.9551 58.5938 32.4219 62.6953 32.4219 L 125.146 32.4219 C 129.248 32.4219 132.568 28.9551 132.568 25.0488 C 132.568 21.1426 129.248 17.6758 125.146 17.6758 L 116.602 17.6758 L 115.186 8.39844 L 150.146 8.39844 C 163.965 8.39844 171.777 0.634766 171.777 -13.2324 L 171.777 -81.2988 C 171.777 -95.166 163.965 -102.93 150.146 -102.93 L 37.6953 -102.93 C 23.877 -102.93 16.0645 -95.166 16.0645 -81.2988 L 16.0645 -13.2324 C 16.0645 0.634766 23.877 8.39844 37.6953 8.39844 Z M 37.4023 -24.5117 C 35.791 -24.5117 35.0098 -25.1465 35.0098 -26.9043 L 35.0098 -78.7598 C 35.0098 -82.5684 36.6699 -83.9355 40.1855 -83.9355 L 147.656 -83.9355 C 151.172 -83.9355 152.832 -82.5684 152.832 -78.7598 L 152.832 -26.9043 C 152.832 -25.1465 152.051 -24.5117 150.439 -24.5117 Z M 93.9453 2.39258 C 89.502 2.39258 85.9375 -1.17188 85.9375 -5.56641 C 85.9375 -9.96094 89.502 -13.5742 93.9453 -13.5742 C 98.291 -13.5742 101.904 -9.96094 101.904 -5.56641 C 101.904 -1.17188 98.291 2.39258 93.9453 2.39258 Z"/>
  </g>
  <g id="Heavy-L" transform="matrix(1 0 0 1 2543.65 1556)">
   <path d="M 36.1816 7.66602 L 72.2656 7.66602 L 70.752 17.7246 L 62.1582 17.7246 C 58.4473 17.7246 55.4688 20.8984 55.4688 24.4629 C 55.4688 28.0273 58.4473 31.1523 62.1582 31.1523 L 123.877 31.1523 C 127.588 31.1523 130.615 28.0273 130.615 24.4629 C 130.615 20.8984 127.588 17.7246 123.877 17.7246 L 115.332 17.7246 L 113.77 7.66602 L 149.854 7.66602 C 162.793 7.66602 170.02 0.585938 170.02 -12.4512 L 170.02 -81.543 C 170.02 -94.5801 162.793 -101.66 149.854 -101.66 L 36.1816 -101.66 C 23.2422 -101.66 16.0645 -94.5801 16.0645 -81.543 L 16.0645 -12.4512 C 16.0645 0.585938 23.2422 7.66602 36.1816 7.66602 Z M 35.1074 -23.7793 C 33.3984 -23.7793 32.5684 -24.5117 32.5684 -26.3184 L 32.5684 -79.5898 C 32.5684 -83.5938 34.375 -85.1562 38.1348 -85.1562 L 147.9 -85.1562 C 151.709 -85.1562 153.467 -83.5938 153.467 -79.5898 L 153.467 -26.3184 C 153.467 -24.5117 152.637 -23.7793 150.977 -23.7793 Z M 93.0176 1.61133 C 88.916 1.61133 85.6445 -1.70898 85.6445 -5.81055 C 85.6445 -9.81445 88.916 -13.1836 93.0176 -13.1836 C 97.0703 -13.1836 100.391 -9.81445 100.391 -5.81055 C 100.391 -1.70898 97.0703 1.61133 93.0176 1.61133 Z"/>
  </g>
  <g id="Bold-L" transform="matrix(1 0 0 1 2247.94 1556)">
   <path d="M 34.5215 6.83594 L 71.8262 6.83594 L 70.166 17.8223 L 61.6211 17.8223 C 58.3008 17.8223 55.6152 20.6055 55.6152 23.7793 C 55.6152 27.002 58.3008 29.7363 61.6211 29.7363 L 122.461 29.7363 C 125.732 29.7363 128.418 27.002 128.418 23.7793 C 128.418 20.6055 125.732 17.8223 122.461 17.8223 L 113.867 17.8223 L 112.256 6.83594 L 149.561 6.83594 C 161.523 6.83594 168.018 0.537109 168.018 -11.5723 L 168.018 -81.8359 C 168.018 -93.9453 161.523 -100.293 149.561 -100.293 L 34.5215 -100.293 C 22.5586 -100.293 16.0645 -93.9453 16.0645 -81.8359 L 16.0645 -11.5723 C 16.0645 0.537109 22.5586 6.83594 34.5215 6.83594 Z M 32.5195 -22.998 C 30.7129 -22.998 29.8828 -23.7305 29.8828 -25.6348 L 29.8828 -80.5176 C 29.8828 -84.7656 31.7871 -86.4746 35.8398 -86.4746 L 148.193 -86.4746 C 152.295 -86.4746 154.199 -84.7656 154.199 -80.5176 L 154.199 -25.6348 C 154.199 -23.7305 153.369 -22.998 151.562 -22.998 Z M 92.041 0.683594 C 88.2812 0.683594 85.3027 -2.29492 85.3027 -6.00586 C 85.3027 -9.66797 88.2812 -12.7441 92.041 -12.7441 C 95.7031 -12.7441 98.7793 -9.66797 98.7793 -6.00586 C 98.7793 -2.29492 95.7031 0.683594 92.041 0.683594 Z"/>
  </g>
  <g id="Semibold-L" transform="matrix(1 0 0 1 1951.93 1556)">
   <path d="M 33.3496 6.29883 L 71.4844 6.29883 L 69.8242 17.8711 L 61.2305 17.8711 C 58.2031 17.8711 55.7617 20.3613 55.7617 23.3398 C 55.7617 26.2695 58.2031 28.8086 61.2305 28.8086 L 121.484 28.8086 C 124.463 28.8086 126.904 26.2695 126.904 23.3398 C 126.904 20.3613 124.463 17.8711 121.484 17.8711 L 112.891 17.8711 L 111.182 6.29883 L 149.316 6.29883 C 160.645 6.29883 166.602 0.488281 166.602 -10.9863 L 166.602 -82.0312 C 166.602 -93.5059 160.645 -99.3164 149.316 -99.3164 L 33.3496 -99.3164 C 22.0215 -99.3164 16.0645 -93.5059 16.0645 -82.0312 L 16.0645 -10.9863 C 16.0645 0.488281 22.0215 6.29883 33.3496 6.29883 Z M 30.7129 -22.4121 C 28.8574 -22.4121 27.9785 -23.1934 27.9785 -25.1465 L 27.9785 -81.1523 C 27.9785 -85.5957 29.9805 -87.4023 34.2773 -87.4023 L 148.389 -87.4023 C 152.686 -87.4023 154.688 -85.5957 154.688 -81.1523 L 154.688 -25.1465 C 154.688 -23.1934 153.809 -22.4121 151.953 -22.4121 Z M 91.3574 0.0976562 C 87.8418 0.0976562 85.0586 -2.68555 85.0586 -6.20117 C 85.0586 -9.57031 87.8418 -12.4512 91.3574 -12.4512 C 94.7266 -12.4512 97.6074 -9.57031 97.6074 -6.20117 C 97.6074 -2.68555 94.7266 0.0976562 91.3574 0.0976562 Z"/>
  </g>
  <g id="Medium-L" transform="matrix(1 0 0 1 1655.74 1556)">
   <path d="M 32.4707 5.85938 L 71.2402 5.85938 L 69.5312 17.9199 L 60.8887 17.9199 C 58.1543 17.9199 55.8594 20.2148 55.8594 22.998 C 55.8594 25.7324 58.1543 28.0762 60.8887 28.0762 L 120.703 28.0762 C 123.486 28.0762 125.781 25.7324 125.781 22.998 C 125.781 20.2148 123.486 17.9199 120.703 17.9199 L 112.109 17.9199 L 110.4 5.85938 L 149.17 5.85938 C 159.961 5.85938 165.576 0.439453 165.576 -10.5469 L 165.576 -82.1777 C 165.576 -93.1641 159.961 -98.584 149.17 -98.584 L 32.4707 -98.584 C 21.6797 -98.584 16.0645 -93.1641 16.0645 -82.1777 L 16.0645 -10.5469 C 16.0645 0.439453 21.6797 5.85938 32.4707 5.85938 Z M 29.3945 -22.0215 C 27.4414 -22.0215 26.5625 -22.8027 26.5625 -24.8047 L 26.5625 -81.5918 C 26.5625 -86.1816 28.6133 -88.0859 33.0566 -88.0859 L 148.535 -88.0859 C 153.027 -88.0859 155.078 -86.1816 155.078 -81.5918 L 155.078 -24.8047 C 155.078 -22.8027 154.199 -22.0215 152.246 -22.0215 Z M 90.8203 -0.341797 C 87.5488 -0.341797 84.8633 -3.02734 84.8633 -6.29883 C 84.8633 -9.52148 87.5488 -12.2559 90.8203 -12.2559 C 94.043 -12.2559 96.7773 -9.52148 96.7773 -6.29883 C 96.7773 -3.02734 94.043 -0.341797 90.8203 -0.341797 Z"/>
  </g>
  <g id="Regular-L" transform="matrix(1 0 0 1 1359.71 1556)">
   <path d="M 31.3477 5.32227 L 70.9473 5.32227 L 69.1406 17.9688 L 60.5469 17.9688 C 58.0566 17.9688 56.0059 20.0195 56.0059 22.5098 C 56.0059 25.0488 58.0566 27.0996 60.5469 27.0996 L 119.727 27.0996 C 122.217 27.0996 124.268 25.0488 124.268 22.5098 C 124.268 20.0195 122.217 17.9688 119.727 17.9688 L 111.133 17.9688 L 109.326 5.32227 L 148.926 5.32227 C 159.082 5.32227 164.209 0.390625 164.209 -9.96094 L 164.209 -82.373 C 164.209 -92.7246 159.082 -97.6562 148.926 -97.6562 L 31.3477 -97.6562 C 21.1914 -97.6562 16.0645 -92.7246 16.0645 -82.373 L 16.0645 -9.96094 C 16.0645 0.390625 21.1914 5.32227 31.3477 5.32227 Z M 27.5879 -21.4355 C 25.6348 -21.4355 24.707 -22.2656 24.707 -24.3652 L 24.707 -82.2266 C 24.707 -87.0117 26.8555 -89.0137 31.4941 -89.0137 L 148.779 -89.0137 C 153.418 -89.0137 155.566 -87.0117 155.566 -82.2266 L 155.566 -24.3652 C 155.566 -22.2656 154.639 -21.4355 152.686 -21.4355 Z M 90.1367 -0.976562 C 87.1094 -0.976562 84.6191 -3.41797 84.6191 -6.44531 C 84.6191 -9.42383 87.1094 -11.9629 90.1367 -11.9629 C 93.0664 -11.9629 95.6543 -9.42383 95.6543 -6.44531 C 95.6543 -3.41797 93.0664 -0.976562 90.1367 -0.976562 Z"/>
  </g>
  <g id="Light-L" transform="matrix(1 0 0 1 1064.39 1556)">
   <path d="M 30.0781 4.63867 L 69.9219 4.63867 L 68.0176 18.7012 L 59.4238 18.7012 C 57.5195 18.7012 56.0059 20.2637 56.0059 22.168 C 56.0059 24.0723 57.5195 25.6348 59.4238 25.6348 L 118.066 25.6348 C 119.971 25.6348 121.533 24.0723 121.533 22.168 C 121.533 20.2637 119.971 18.7012 118.066 18.7012 L 109.473 18.7012 L 107.568 4.63867 L 147.412 4.63867 C 156.738 4.63867 161.426 0.0488281 161.426 -9.375 L 161.426 -82.1777 C 161.426 -91.6016 156.738 -96.1426 147.412 -96.1426 L 30.0781 -96.1426 C 20.752 -96.1426 16.0645 -91.6016 16.0645 -82.1777 L 16.0645 -9.375 C 16.0645 0.0488281 20.752 4.63867 30.0781 4.63867 Z M 25.8301 -20.8496 C 23.6816 -20.8496 22.7051 -21.7773 22.7051 -23.9746 L 22.7051 -81.9824 C 22.7051 -87.207 25.1465 -89.5508 30.2734 -89.5508 L 147.217 -89.5508 C 152.393 -89.5508 154.834 -87.207 154.834 -81.9824 L 154.834 -23.9746 C 154.834 -21.7773 153.809 -20.8496 151.66 -20.8496 Z M 88.7695 -1.70898 C 85.9375 -1.70898 83.6914 -3.90625 83.6914 -6.73828 C 83.6914 -9.42383 85.9375 -11.7676 88.7695 -11.7676 C 91.4551 -11.7676 93.7988 -9.42383 93.7988 -6.73828 C 93.7988 -3.90625 91.4551 -1.70898 88.7695 -1.70898 Z"/>
  </g>
  <g id="Thin-L" transform="matrix(1 0 0 1 769.508 1556)">
   <path d="M 28.418 3.71094 L 68.6035 3.71094 L 66.5039 19.7266 L 57.959 19.7266 C 56.8359 19.7266 55.957 20.6055 55.957 21.7285 C 55.957 22.8027 56.8359 23.7305 57.959 23.7305 L 115.869 23.7305 C 116.992 23.7305 117.871 22.8027 117.871 21.7285 C 117.871 20.6055 116.992 19.7266 115.869 19.7266 L 107.324 19.7266 L 105.225 3.71094 L 145.41 3.71094 C 153.613 3.71094 157.764 -0.390625 157.764 -8.59375 L 157.764 -81.8359 C 157.764 -90.0391 153.613 -94.1895 145.41 -94.1895 L 28.418 -94.1895 C 20.2148 -94.1895 16.0645 -90.0391 16.0645 -81.8359 L 16.0645 -8.59375 C 16.0645 -0.390625 20.2148 3.71094 28.418 3.71094 Z M 23.4375 -20.0195 C 21.1426 -20.0195 19.9707 -21.1426 19.9707 -23.4863 L 19.9707 -81.6895 C 19.9707 -87.4512 22.8516 -90.2344 28.6621 -90.2344 L 145.215 -90.2344 C 150.977 -90.2344 153.857 -87.4512 153.857 -81.6895 L 153.857 -23.4863 C 153.857 -21.1426 152.686 -20.0195 150.391 -20.0195 Z M 86.9141 -2.68555 C 84.375 -2.68555 82.4707 -4.54102 82.4707 -7.12891 C 82.4707 -9.47266 84.375 -11.5234 86.9141 -11.5234 C 89.2578 -11.5234 91.3574 -9.47266 91.3574 -7.12891 C 91.3574 -4.54102 89.2578 -2.68555 86.9141 -2.68555 Z"/>
  </g>
  <g id="Ultralight-L" transform="matrix(1 0 0 1 473.725 1556)">
   <path d="M 27.5391 3.27148 L 67.9199 3.27148 L 65.7715 20.2148 L 57.1777 20.2148 C 56.4941 20.2148 55.957 20.8008 55.957 21.4844 C 55.957 22.168 56.4941 22.7051 57.1777 22.7051 L 114.746 22.7051 C 115.43 22.7051 116.016 22.168 116.016 21.4844 C 116.016 20.8008 115.43 20.2148 114.746 20.2148 L 106.201 20.2148 L 104.053 3.27148 L 144.385 3.27148 C 152.002 3.27148 155.908 -0.634766 155.908 -8.20312 L 155.908 -81.6895 C 155.908 -89.2578 152.002 -93.1641 144.385 -93.1641 L 27.5391 -93.1641 C 19.9707 -93.1641 16.0645 -89.2578 16.0645 -81.6895 L 16.0645 -8.20312 C 16.0645 -0.634766 19.9707 3.27148 27.5391 3.27148 Z M 22.2168 -19.6289 C 19.873 -19.6289 18.6035 -20.8008 18.6035 -23.2422 L 18.6035 -81.4941 C 18.6035 -87.5977 21.6797 -90.625 27.7832 -90.625 L 144.141 -90.625 C 150.244 -90.625 153.32 -87.5977 153.32 -81.4941 L 153.32 -23.2422 C 153.32 -20.8008 152.1 -19.6289 149.707 -19.6289 Z M 85.9863 -3.17383 C 83.5449 -3.17383 81.8848 -4.88281 81.8848 -7.27539 C 81.8848 -9.47266 83.5449 -11.4258 85.9863 -11.4258 C 88.1348 -11.4258 90.0879 -9.47266 90.0879 -7.27539 C 90.0879 -4.88281 88.1348 -3.17383 85.9863 -3.17383 Z"/>
  </g>
  <g id="Black-M" transform="matrix(1 0 0 1 2860.13 1126)">
   <path d="M 30.5664 -0.830078 L 56.3477 -0.830078 L 55.2734 6.10352 L 48.6816 6.10352 C 45.2637 6.10352 42.5781 8.98438 42.5781 12.1094 C 42.5781 15.2344 45.2637 18.1152 48.6816 18.1152 L 97.8516 18.1152 C 101.221 18.1152 103.906 15.2344 103.906 12.1094 C 103.906 8.98438 101.221 6.10352 97.8516 6.10352 L 91.2598 6.10352 L 90.1855 -0.830078 L 115.918 -0.830078 C 127.344 -0.830078 134.082 -7.51953 134.082 -18.9453 L 134.082 -70.4102 C 134.082 -81.8359 127.344 -88.5742 115.918 -88.5742 L 30.5664 -88.5742 C 19.1895 -88.5742 12.4512 -81.8359 12.4512 -70.4102 L 12.4512 -18.9453 C 12.4512 -7.51953 19.1895 -0.830078 30.5664 -0.830078 Z M 31.1523 -27.5879 C 29.9805 -27.5879 29.3457 -28.0762 29.3457 -29.3945 L 29.3457 -67.7734 C 29.3457 -70.6055 30.6641 -71.6797 33.252 -71.6797 L 113.281 -71.6797 C 115.869 -71.6797 117.188 -70.6055 117.188 -67.7734 L 117.188 -29.3945 C 117.188 -28.0762 116.553 -27.5879 115.381 -27.5879 Z M 73.2422 -5.41992 C 69.4824 -5.41992 66.5527 -8.34961 66.5527 -12.1094 C 66.5527 -15.8203 69.4824 -18.8477 73.2422 -18.8477 C 76.9531 -18.8477 79.9805 -15.8203 79.9805 -12.1094 C 79.9805 -8.34961 76.9531 -5.41992 73.2422 -5.41992 Z"/>
  </g>
  <g id="Heavy-M" transform="matrix(1 0 0 1 2564.06 1126)">
   <path d="M 29.248 -1.41602 L 56.1523 -1.41602 L 55.0293 5.95703 L 48.3887 5.95703 C 45.2637 5.95703 42.7734 8.59375 42.7734 11.5234 C 42.7734 14.4531 45.2637 17.0898 48.3887 17.0898 L 96.875 17.0898 C 100 17.0898 102.49 14.4531 102.49 11.5234 C 102.49 8.59375 100 5.95703 96.875 5.95703 L 90.2344 5.95703 L 89.1113 -1.41602 L 116.016 -1.41602 C 126.709 -1.41602 132.812 -7.51953 132.812 -18.2129 L 132.812 -70.8008 C 132.812 -81.4941 126.709 -87.5977 116.016 -87.5977 L 29.248 -87.5977 C 18.5547 -87.5977 12.4512 -81.4941 12.4512 -70.8008 L 12.4512 -18.2129 C 12.4512 -7.51953 18.5547 -1.41602 29.248 -1.41602 Z M 29.1016 -26.9531 C 27.832 -26.9531 27.1973 -27.4902 27.1973 -28.8086 L 27.1973 -68.7012 C 27.1973 -71.7285 28.5645 -72.8516 31.3477 -72.8516 L 113.965 -72.8516 C 116.748 -72.8516 118.066 -71.7285 118.066 -68.7012 L 118.066 -28.8086 C 118.066 -27.4902 117.432 -26.9531 116.211 -26.9531 Z M 72.6562 -6.10352 C 69.1895 -6.10352 66.4551 -8.83789 66.4551 -12.3047 C 66.4551 -15.6738 69.1895 -18.457 72.6562 -18.457 C 76.0254 -18.457 78.8574 -15.6738 78.8574 -12.3047 C 78.8574 -8.83789 76.0254 -6.10352 72.6562 -6.10352 Z"/>
  </g>
  <g id="Bold-M" transform="matrix(1 0 0 1 2268.03 1126)">
   <path d="M 27.7832 -2.09961 L 55.957 -2.09961 L 54.7363 5.81055 L 48.0957 5.81055 C 45.3125 5.81055 43.0176 8.20312 43.0176 10.8887 C 43.0176 13.623 45.3125 16.0156 48.0957 16.0156 L 95.8008 16.0156 C 98.6328 16.0156 100.879 13.623 100.879 10.8887 C 100.879 8.20312 98.6328 5.81055 95.8008 5.81055 L 89.1602 5.81055 L 87.9395 -2.09961 L 116.113 -2.09961 C 125.977 -2.09961 131.445 -7.4707 131.445 -17.4316 L 131.445 -71.1914 C 131.445 -81.1523 125.977 -86.5234 116.113 -86.5234 L 27.7832 -86.5234 C 17.9199 -86.5234 12.4512 -81.1523 12.4512 -71.1914 L 12.4512 -17.4316 C 12.4512 -7.4707 17.9199 -2.09961 27.7832 -2.09961 Z M 26.7578 -26.2695 C 25.4395 -26.2695 24.8047 -26.8066 24.8047 -28.2227 L 24.8047 -69.7754 C 24.8047 -72.9492 26.2207 -74.1211 29.1992 -74.1211 L 114.697 -74.1211 C 117.676 -74.1211 119.092 -72.9492 119.092 -69.7754 L 119.092 -28.2227 C 119.092 -26.8066 118.457 -26.2695 117.139 -26.2695 Z M 71.9727 -6.83594 C 68.8477 -6.83594 66.3086 -9.32617 66.3086 -12.4512 C 66.3086 -15.5273 68.8477 -18.0664 71.9727 -18.0664 C 75 -18.0664 77.5879 -15.5273 77.5879 -12.4512 C 77.5879 -9.32617 75 -6.83594 71.9727 -6.83594 Z"/>
  </g>
  <g id="Semibold-M" transform="matrix(1 0 0 1 1971.78 1126)">
   <path d="M 26.7578 -2.58789 L 55.8105 -2.58789 L 54.541 5.71289 L 47.9004 5.71289 C 45.3125 5.71289 43.1641 7.91016 43.1641 10.498 C 43.1641 13.0371 45.3125 15.2344 47.9004 15.2344 L 95.0684 15.2344 C 97.6562 15.2344 99.8047 13.0371 99.8047 10.498 C 99.8047 7.91016 97.6562 5.71289 95.0684 5.71289 L 88.3789 5.71289 L 87.1582 -2.58789 L 116.162 -2.58789 C 125.488 -2.58789 130.518 -7.4707 130.518 -16.8945 L 130.518 -71.4355 C 130.518 -80.9082 125.488 -85.7422 116.162 -85.7422 L 26.7578 -85.7422 C 17.4316 -85.7422 12.4512 -80.9082 12.4512 -71.4355 L 12.4512 -16.8945 C 12.4512 -7.4707 17.4316 -2.58789 26.7578 -2.58789 Z M 25.1953 -25.7812 C 23.8281 -25.7812 23.1934 -26.3184 23.1934 -27.7832 L 23.1934 -70.5078 C 23.1934 -73.7793 24.6094 -75.0488 27.7344 -75.0488 L 115.234 -75.0488 C 118.359 -75.0488 119.775 -73.7793 119.775 -70.5078 L 119.775 -27.7832 C 119.775 -26.3184 119.141 -25.7812 117.773 -25.7812 Z M 71.4844 -7.37305 C 68.6035 -7.37305 66.2598 -9.66797 66.2598 -12.5488 C 66.2598 -15.3809 68.6035 -17.7734 71.4844 -17.7734 C 74.3164 -17.7734 76.709 -15.3809 76.709 -12.5488 C 76.709 -9.66797 74.3164 -7.37305 71.4844 -7.37305 Z"/>
  </g>
  <g id="Medium-M" transform="matrix(1 0 0 1 1675.44 1126)">
   <path d="M 25.9766 -2.92969 L 55.7129 -2.92969 L 54.4434 5.66406 L 47.7539 5.66406 C 45.3125 5.66406 43.2617 7.71484 43.2617 10.1562 C 43.2617 12.5977 45.3125 14.6484 47.7539 14.6484 L 94.4824 14.6484 C 96.9238 14.6484 98.9746 12.5977 98.9746 10.1562 C 98.9746 7.71484 96.9238 5.66406 94.4824 5.66406 L 87.793 5.66406 L 86.5234 -2.92969 L 116.211 -2.92969 C 125.146 -2.92969 129.785 -7.42188 129.785 -16.5039 L 129.785 -71.6309 C 129.785 -80.7129 125.146 -85.2051 116.211 -85.2051 L 25.9766 -85.2051 C 17.0898 -85.2051 12.4512 -80.7129 12.4512 -71.6309 L 12.4512 -16.5039 C 12.4512 -7.42188 17.0898 -2.92969 25.9766 -2.92969 Z M 23.9746 -25.3906 C 22.5586 -25.3906 21.9238 -25.9766 21.9238 -27.4414 L 21.9238 -71.0449 C 21.9238 -74.4141 23.3887 -75.7324 26.6113 -75.7324 L 115.625 -75.7324 C 118.848 -75.7324 120.312 -74.4141 120.312 -71.0449 L 120.312 -27.4414 C 120.312 -25.9766 119.678 -25.3906 118.262 -25.3906 Z M 71.0938 -7.76367 C 68.4082 -7.76367 66.2109 -9.96094 66.2109 -12.6465 C 66.2109 -15.332 68.4082 -17.5781 71.0938 -17.5781 C 73.7793 -17.5781 76.0254 -15.332 76.0254 -12.6465 C 76.0254 -9.96094 73.7793 -7.76367 71.0938 -7.76367 Z"/>
  </g>
  <g id="Regular-M" transform="matrix(1 0 0 1 1379.19 1126)">
   <path d="M 25 -3.41797 L 55.5664 -3.41797 L 54.248 5.56641 L 47.5586 5.56641 C 45.3125 5.56641 43.4082 7.42188 43.4082 9.7168 C 43.4082 12.0117 45.3125 13.916 47.5586 13.916 L 93.75 13.916 C 95.9961 13.916 97.9004 12.0117 97.9004 9.7168 C 97.9004 7.42188 95.9961 5.56641 93.75 5.56641 L 87.0605 5.56641 L 85.7422 -3.41797 L 116.309 -3.41797 C 124.658 -3.41797 128.857 -7.42188 128.857 -15.9668 L 128.857 -71.9238 C 128.857 -80.4688 124.658 -84.4727 116.309 -84.4727 L 25 -84.4727 C 16.6504 -84.4727 12.4512 -80.4688 12.4512 -71.9238 L 12.4512 -15.9668 C 12.4512 -7.42188 16.6504 -3.41797 25 -3.41797 Z M 22.4121 -24.9023 C 20.9473 -24.9023 20.3125 -25.4883 20.3125 -27.002 L 20.3125 -71.7773 C 20.3125 -75.2441 21.7773 -76.6113 25.1465 -76.6113 L 116.162 -76.6113 C 119.482 -76.6113 120.996 -75.2441 120.996 -71.7773 L 120.996 -27.002 C 120.996 -25.4883 120.312 -24.9023 118.848 -24.9023 Z M 70.6543 -8.25195 C 68.1641 -8.25195 66.1133 -10.3027 66.1133 -12.793 C 66.1133 -15.1855 68.1641 -17.2852 70.6543 -17.2852 C 73.0957 -17.2852 75.1465 -15.1855 75.1465 -12.793 C 75.1465 -10.3027 73.0957 -8.25195 70.6543 -8.25195 Z"/>
  </g>
  <g id="Light-M" transform="matrix(1 0 0 1 1083.72 1126)">
   <path d="M 23.877 -4.00391 L 54.6387 -4.00391 L 53.2227 6.25 L 46.5332 6.25 C 44.8242 6.25 43.4082 7.66602 43.4082 9.42383 C 43.4082 11.1816 44.8242 12.5977 46.5332 12.5977 L 92.2363 12.5977 C 93.9941 12.5977 95.4102 11.1816 95.4102 9.42383 C 95.4102 7.66602 93.9941 6.25 92.2363 6.25 L 85.5957 6.25 L 84.1797 -4.00391 L 114.941 -4.00391 C 122.51 -4.00391 126.367 -7.71484 126.367 -15.4297 L 126.367 -71.6797 C 126.367 -79.4434 122.51 -83.1055 114.941 -83.1055 L 23.877 -83.1055 C 16.2598 -83.1055 12.4512 -79.4434 12.4512 -71.6797 L 12.4512 -15.4297 C 12.4512 -7.71484 16.2598 -4.00391 23.877 -4.00391 Z M 20.8008 -24.3652 C 19.2383 -24.3652 18.5059 -25.0488 18.5059 -26.6602 L 18.5059 -71.582 C 18.5059 -75.4395 20.2637 -77.0996 24.0234 -77.0996 L 114.795 -77.0996 C 118.555 -77.0996 120.312 -75.4395 120.312 -71.582 L 120.312 -26.6602 C 120.312 -25.0488 119.58 -24.3652 117.969 -24.3652 Z M 69.3848 -8.93555 C 67.1387 -8.93555 65.2832 -10.7422 65.2832 -13.0371 C 65.2832 -15.2344 67.1387 -17.1387 69.3848 -17.1387 C 71.582 -17.1387 73.5352 -15.2344 73.5352 -13.0371 C 73.5352 -10.7422 71.582 -8.93555 69.3848 -8.93555 Z"/>
  </g>
  <g id="Thin-M" transform="matrix(1 0 0 1 788.673 1126)">
   <path d="M 22.3633 -4.83398 L 53.4668 -4.83398 L 51.8555 7.12891 L 45.2148 7.12891 C 44.1895 7.12891 43.3594 7.95898 43.3594 8.98438 C 43.3594 10.0098 44.1895 10.8398 45.2148 10.8398 L 90.2832 10.8398 C 91.3086 10.8398 92.1387 10.0098 92.1387 8.98438 C 92.1387 7.95898 91.3086 7.12891 90.2832 7.12891 L 83.6426 7.12891 L 82.0801 -4.83398 L 113.135 -4.83398 C 119.727 -4.83398 123.047 -8.1543 123.047 -14.7461 L 123.047 -71.4355 C 123.047 -78.0273 119.727 -81.3477 113.135 -81.3477 L 22.3633 -81.3477 C 15.7715 -81.3477 12.4512 -78.0273 12.4512 -71.4355 L 12.4512 -14.7461 C 12.4512 -8.1543 15.7715 -4.83398 22.3633 -4.83398 Z M 18.7012 -23.6328 C 16.9434 -23.6328 16.0645 -24.4629 16.0645 -26.2207 L 16.0645 -71.2891 C 16.0645 -75.6348 18.2129 -77.7344 22.5586 -77.7344 L 112.939 -77.7344 C 117.285 -77.7344 119.434 -75.6348 119.434 -71.2891 L 119.434 -26.2207 C 119.434 -24.4629 118.555 -23.6328 116.846 -23.6328 Z M 67.7734 -9.81445 C 65.7227 -9.81445 64.209 -11.3281 64.209 -13.3789 C 64.209 -15.2344 65.7227 -16.8945 67.7734 -16.8945 C 69.6289 -16.8945 71.3379 -15.2344 71.3379 -13.3789 C 71.3379 -11.3281 69.6289 -9.81445 67.7734 -9.81445 Z"/>
  </g>
  <g id="Ultralight-M" transform="matrix(1 0 0 1 492.792 1126)">
   <path d="M 21.6309 -5.27344 L 52.832 -5.27344 L 51.2207 7.61719 L 44.5801 7.61719 C 43.8965 7.61719 43.3594 8.10547 43.3594 8.78906 C 43.3594 9.42383 43.8965 9.96094 44.5801 9.96094 L 89.2578 9.96094 C 89.9414 9.96094 90.4785 9.42383 90.4785 8.78906 C 90.4785 8.10547 89.9414 7.61719 89.2578 7.61719 L 82.6172 7.61719 L 81.0059 -5.27344 L 112.207 -5.27344 C 118.262 -5.27344 121.387 -8.34961 121.387 -14.4043 L 121.387 -71.2891 C 121.387 -77.3438 118.262 -80.4199 112.207 -80.4199 L 21.6309 -80.4199 C 15.5273 -80.4199 12.4512 -77.3438 12.4512 -71.2891 L 12.4512 -14.4043 C 12.4512 -8.34961 15.5273 -5.27344 21.6309 -5.27344 Z M 17.5781 -23.2422 C 15.7715 -23.2422 14.8438 -24.1211 14.8438 -26.0254 L 14.8438 -71.1426 C 14.8438 -75.7812 17.1875 -78.0273 21.7773 -78.0273 L 112.012 -78.0273 C 116.65 -78.0273 118.994 -75.7812 118.994 -71.1426 L 118.994 -26.0254 C 118.994 -24.1211 118.066 -23.2422 116.211 -23.2422 Z M 66.8945 -10.2539 C 64.9902 -10.2539 63.623 -11.6211 63.623 -13.5254 C 63.623 -15.2344 64.9902 -16.7969 66.8945 -16.7969 C 68.6523 -16.7969 70.2148 -15.2344 70.2148 -13.5254 C 70.2148 -11.6211 68.6523 -10.2539 66.8945 -10.2539 Z"/>
  </g>
  <g id="Black-S" transform="matrix(1 0 0 1 2876.03 696)">
   <path d="M 23.877 -8.30078 L 44.1406 -8.30078 L 43.3105 -2.88086 L 38.1348 -2.88086 C 35.498 -2.88086 33.3984 -0.634766 33.3984 1.80664 C 33.3984 4.24805 35.498 6.49414 38.1348 6.49414 L 76.6113 6.49414 C 79.248 6.49414 81.3477 4.24805 81.3477 1.80664 C 81.3477 -0.634766 79.248 -2.88086 76.6113 -2.88086 L 71.4355 -2.88086 L 70.6055 -8.30078 L 90.8691 -8.30078 C 99.7559 -8.30078 104.98 -13.5254 104.98 -22.4121 L 104.98 -62.8418 C 104.98 -71.7285 99.7559 -76.9531 90.8691 -76.9531 L 23.877 -76.9531 C 14.9902 -76.9531 9.76562 -71.7285 9.76562 -62.8418 L 9.76562 -22.4121 C 9.76562 -13.5254 14.9902 -8.30078 23.877 -8.30078 Z M 24.2676 -29.1992 C 23.3398 -29.1992 22.8516 -29.5898 22.8516 -30.6152 L 22.8516 -60.791 C 22.8516 -63.0371 23.877 -63.8672 25.9277 -63.8672 L 88.8184 -63.8672 C 90.8691 -63.8672 91.8945 -63.0371 91.8945 -60.791 L 91.8945 -30.6152 C 91.8945 -29.5898 91.4062 -29.1992 90.4785 -29.1992 Z M 57.373 -11.9141 C 54.4434 -11.9141 52.1484 -14.209 52.1484 -17.1387 C 52.1484 -20.0195 54.4434 -22.3633 57.373 -22.3633 C 60.2539 -22.3633 62.5977 -20.0195 62.5977 -17.1387 C 62.5977 -14.209 60.2539 -11.9141 57.373 -11.9141 Z"/>
  </g>
  <g id="Heavy-S" transform="matrix(1 0 0 1 2579.66 696)">
   <path d="M 22.998 -8.69141 L 44.0918 -8.69141 L 43.2617 -3.07617 L 38.0371 -3.07617 C 35.5469 -3.07617 33.5449 -0.927734 33.5449 1.41602 C 33.5449 3.75977 35.5469 5.85938 38.0371 5.85938 L 76.0254 5.85938 C 78.5156 5.85938 80.5176 3.75977 80.5176 1.41602 C 80.5176 -0.927734 78.5156 -3.07617 76.0254 -3.07617 L 70.8496 -3.07617 L 69.9707 -8.69141 L 91.0645 -8.69141 C 99.5117 -8.69141 104.297 -13.4766 104.297 -21.9238 L 104.297 -63.1348 C 104.297 -71.582 99.5117 -76.3672 91.0645 -76.3672 L 22.998 -76.3672 C 14.5508 -76.3672 9.76562 -71.582 9.76562 -63.1348 L 9.76562 -21.9238 C 9.76562 -13.4766 14.5508 -8.69141 22.998 -8.69141 Z M 22.8516 -28.7598 C 21.9238 -28.7598 21.4355 -29.1504 21.4355 -30.2246 L 21.4355 -61.5234 C 21.4355 -63.8672 22.4609 -64.6973 24.5605 -64.6973 L 89.502 -64.6973 C 91.6504 -64.6973 92.6758 -63.8672 92.6758 -61.5234 L 92.6758 -30.2246 C 92.6758 -29.1504 92.1875 -28.7598 91.2109 -28.7598 Z M 57.0312 -12.3535 C 54.3457 -12.3535 52.1484 -14.502 52.1484 -17.2363 C 52.1484 -19.9219 54.3457 -22.1191 57.0312 -22.1191 C 59.7168 -22.1191 61.9141 -19.9219 61.9141 -17.2363 C 61.9141 -14.502 59.7168 -12.3535 57.0312 -12.3535 Z"/>
  </g>
  <g id="Bold-S" transform="matrix(1 0 0 1 2283.31 696)">
   <path d="M 22.0215 -9.13086 L 44.043 -9.13086 L 43.1641 -3.22266 L 37.9395 -3.22266 C 35.5957 -3.22266 33.6914 -1.26953 33.6914 0.976562 C 33.6914 3.22266 35.5957 5.17578 37.9395 5.17578 L 75.3906 5.17578 C 77.7344 5.17578 79.6387 3.22266 79.6387 0.976562 C 79.6387 -1.26953 77.7344 -3.22266 75.3906 -3.22266 L 70.166 -3.22266 L 69.2871 -9.13086 L 91.3086 -9.13086 C 99.2188 -9.13086 103.564 -13.4277 103.564 -21.3867 L 103.564 -63.4766 C 103.564 -71.4355 99.2188 -75.6836 91.3086 -75.6836 L 22.0215 -75.6836 C 14.1113 -75.6836 9.76562 -71.4355 9.76562 -63.4766 L 9.76562 -21.3867 C 9.76562 -13.4277 14.1113 -9.13086 22.0215 -9.13086 Z M 21.2891 -28.3203 C 20.3125 -28.3203 19.8242 -28.7109 19.8242 -29.7852 L 19.8242 -62.4023 C 19.8242 -64.7461 20.8496 -65.625 23.0957 -65.625 L 90.2344 -65.625 C 92.4805 -65.625 93.5059 -64.7461 93.5059 -62.4023 L 93.5059 -29.7852 C 93.5059 -28.7109 93.0176 -28.3203 92.041 -28.3203 Z M 56.6895 -12.8418 C 54.1992 -12.8418 52.1973 -14.8438 52.1973 -17.334 C 52.1973 -19.7754 54.1992 -21.8262 56.6895 -21.8262 C 59.1309 -21.8262 61.1328 -19.7754 61.1328 -17.334 C 61.1328 -14.8438 59.1309 -12.8418 56.6895 -12.8418 Z"/>
  </g>
  <g id="Semibold-S" transform="matrix(1 0 0 1 1986.85 696)">
   <path d="M 21.3379 -9.47266 L 44.043 -9.47266 L 43.1152 -3.36914 L 37.8418 -3.36914 C 35.6445 -3.36914 33.8379 -1.51367 33.8379 0.683594 C 33.8379 2.88086 35.6445 4.73633 37.8418 4.73633 L 74.9512 4.73633 C 77.1484 4.73633 79.0039 2.88086 79.0039 0.683594 C 79.0039 -1.51367 77.1484 -3.36914 74.9512 -3.36914 L 69.7266 -3.36914 L 68.7988 -9.47266 L 91.5039 -9.47266 C 99.0234 -9.47266 103.076 -13.3789 103.076 -21.0449 L 103.076 -63.6719 C 103.076 -71.3379 99.0234 -75.2441 91.5039 -75.2441 L 21.3379 -75.2441 C 13.7695 -75.2441 9.76562 -71.3379 9.76562 -63.6719 L 9.76562 -21.0449 C 9.76562 -13.3789 13.7695 -9.47266 21.3379 -9.47266 Z M 20.2148 -27.9785 C 19.1895 -27.9785 18.75 -28.3691 18.75 -29.4922 L 18.75 -62.9883 C 18.75 -65.3809 19.7754 -66.2598 22.0703 -66.2598 L 90.7715 -66.2598 C 93.0664 -66.2598 94.0918 -65.3809 94.0918 -62.9883 L 94.0918 -29.4922 C 94.0918 -28.3691 93.6035 -27.9785 92.5781 -27.9785 Z M 56.3965 -13.1836 C 54.1016 -13.1836 52.1973 -15.0879 52.1973 -17.3828 C 52.1973 -19.6777 54.1016 -21.6309 56.3965 -21.6309 C 58.6914 -21.6309 60.6445 -19.6777 60.6445 -17.3828 C 60.6445 -15.0879 58.6914 -13.1836 56.3965 -13.1836 Z"/>
  </g>
  <g id="Medium-S" transform="matrix(1 0 0 1 1690.33 696)">
   <path d="M 20.8008 -9.7168 L 43.9941 -9.7168 L 43.0664 -3.4668 L 37.793 -3.4668 C 35.6934 -3.4668 33.9355 -1.70898 33.9355 0.439453 C 33.9355 2.58789 35.6934 4.3457 37.793 4.3457 L 74.6094 4.3457 C 76.7578 4.3457 78.5156 2.58789 78.5156 0.439453 C 78.5156 -1.70898 76.7578 -3.4668 74.6094 -3.4668 L 69.3848 -3.4668 L 68.4082 -9.7168 L 91.6016 -9.7168 C 98.877 -9.7168 102.686 -13.3301 102.686 -20.752 L 102.686 -63.8672 C 102.686 -71.2891 98.877 -74.9023 91.6016 -74.9023 L 20.8008 -74.9023 C 13.5254 -74.9023 9.76562 -71.2891 9.76562 -63.8672 L 9.76562 -20.752 C 9.76562 -13.3301 13.5254 -9.7168 20.8008 -9.7168 Z M 19.4336 -27.7344 C 18.3594 -27.7344 17.8711 -28.125 17.8711 -29.248 L 17.8711 -63.4277 C 17.8711 -65.8691 18.8965 -66.748 21.2402 -66.748 L 91.1621 -66.748 C 93.5059 -66.748 94.5312 -65.8691 94.5312 -63.4277 L 94.5312 -29.248 C 94.5312 -28.125 94.0918 -27.7344 93.0176 -27.7344 Z M 56.2012 -13.4277 C 54.0039 -13.4277 52.1973 -15.2832 52.1973 -17.4316 C 52.1973 -19.6289 54.0039 -21.4844 56.2012 -21.4844 C 58.3984 -21.4844 60.2051 -19.6289 60.2051 -17.4316 C 60.2051 -15.2832 58.3984 -13.4277 56.2012 -13.4277 Z"/>
  </g>
  <g id="Regular-S" transform="matrix(1 0 0 1 1393.89 696)">
   <path d="M 20.1172 -10.0098 L 43.9941 -10.0098 L 43.0176 -3.61328 L 37.7441 -3.61328 C 35.7422 -3.61328 34.0332 -1.9043 34.0332 0.146484 C 34.0332 2.19727 35.7422 3.90625 37.7441 3.90625 L 74.1699 3.90625 C 76.2207 3.90625 77.8809 2.19727 77.8809 0.146484 C 77.8809 -1.9043 76.2207 -3.61328 74.1699 -3.61328 L 68.9453 -3.61328 L 67.9688 -10.0098 L 91.7969 -10.0098 C 98.6816 -10.0098 102.148 -13.2812 102.148 -20.3613 L 102.148 -64.0625 C 102.148 -71.1914 98.6816 -74.4629 91.7969 -74.4629 L 20.1172 -74.4629 C 13.2324 -74.4629 9.76562 -71.1914 9.76562 -64.0625 L 9.76562 -20.3613 C 9.76562 -13.2812 13.2324 -10.0098 20.1172 -10.0098 Z M 18.3594 -27.3926 C 17.2852 -27.3926 16.7969 -27.832 16.7969 -28.9551 L 16.7969 -63.9648 C 16.7969 -66.5039 17.8223 -67.4316 20.2148 -67.4316 L 91.6992 -67.4316 C 94.0918 -67.4316 95.1172 -66.5039 95.1172 -63.9648 L 95.1172 -28.9551 C 95.1172 -27.832 94.6777 -27.3926 93.5547 -27.3926 Z M 55.957 -13.7695 C 53.9551 -13.7695 52.1973 -15.4785 52.1973 -17.5293 C 52.1973 -19.5312 53.9551 -21.2402 55.957 -21.2402 C 57.959 -21.2402 59.7168 -19.5312 59.7168 -17.5293 C 59.7168 -15.4785 57.959 -13.7695 55.957 -13.7695 Z"/>
  </g>
  <g id="Light-S" transform="matrix(1 0 0 1 1098.27 696)">
   <path d="M 19.1406 -10.5469 L 43.1641 -10.5469 L 42.0898 -3.02734 L 36.8652 -3.02734 C 35.3027 -3.02734 34.0332 -1.70898 34.0332 -0.146484 C 34.0332 1.46484 35.3027 2.73438 36.8652 2.73438 L 72.8516 2.73438 C 74.4141 2.73438 75.6836 1.46484 75.6836 -0.146484 C 75.6836 -1.70898 74.4141 -3.02734 72.8516 -3.02734 L 67.627 -3.02734 L 66.5527 -10.5469 L 90.5762 -10.5469 C 96.8262 -10.5469 99.9512 -13.5742 99.9512 -19.9219 L 99.9512 -63.8672 C 99.9512 -70.2637 96.8262 -73.2422 90.5762 -73.2422 L 19.1406 -73.2422 C 12.8906 -73.2422 9.76562 -70.2637 9.76562 -63.8672 L 9.76562 -19.9219 C 9.76562 -13.5742 12.8906 -10.5469 19.1406 -10.5469 Z M 16.9434 -26.9043 C 15.7227 -26.9043 15.1855 -27.3926 15.1855 -28.6621 L 15.1855 -63.7695 C 15.1855 -66.6504 16.4551 -67.8223 19.2383 -67.8223 L 90.4785 -67.8223 C 93.2617 -67.8223 94.5312 -66.6504 94.5312 -63.7695 L 94.5312 -28.6621 C 94.5312 -27.3926 93.9941 -26.9043 92.7734 -26.9043 Z M 54.8828 -14.3555 C 52.9785 -14.3555 51.4648 -15.8691 51.4648 -17.7246 C 51.4648 -19.5312 52.9785 -21.0938 54.8828 -21.0938 C 56.6895 -21.0938 58.252 -19.5312 58.252 -17.7246 C 58.252 -15.8691 56.6895 -14.3555 54.8828 -14.3555 Z"/>
  </g>
  <g id="Thin-S" transform="matrix(1 0 0 1 803.004 696)">
   <path d="M 17.8223 -11.2793 L 42.0898 -11.2793 L 40.918 -2.19727 L 35.6934 -2.19727 C 34.7656 -2.19727 33.9844 -1.46484 33.9844 -0.488281 C 33.9844 0.439453 34.7656 1.2207 35.6934 1.2207 L 71.1426 1.2207 C 72.0703 1.2207 72.8027 0.439453 72.8027 -0.488281 C 72.8027 -1.46484 72.0703 -2.19727 71.1426 -2.19727 L 65.918 -2.19727 L 64.6973 -11.2793 L 89.0137 -11.2793 C 94.3359 -11.2793 97.0703 -13.916 97.0703 -19.3359 L 97.0703 -63.623 C 97.0703 -69.043 94.3359 -71.6797 89.0137 -71.6797 L 17.8223 -71.6797 C 12.5 -71.6797 9.76562 -69.043 9.76562 -63.623 L 9.76562 -19.3359 C 9.76562 -13.916 12.5 -11.2793 17.8223 -11.2793 Z M 15.0391 -26.2695 C 13.7207 -26.2695 13.0859 -26.9043 13.0859 -28.2715 L 13.0859 -63.5254 C 13.0859 -66.8457 14.6484 -68.4082 17.9688 -68.4082 L 88.8672 -68.4082 C 92.1387 -68.4082 93.75 -66.8457 93.75 -63.5254 L 93.75 -28.2715 C 93.75 -26.9043 93.1152 -26.2695 91.748 -26.2695 Z M 53.418 -15.1367 C 51.7578 -15.1367 50.5371 -16.3574 50.5371 -18.0176 C 50.5371 -19.5801 51.7578 -20.9473 53.418 -20.9473 C 54.9316 -20.9473 56.2988 -19.5801 56.2988 -18.0176 C 56.2988 -16.3574 54.9316 -15.1367 53.418 -15.1367 Z"/>
  </g>
  <g id="Ultralight-S" transform="matrix(1 0 0 1 507.05 696)">
   <path d="M 17.1387 -11.6211 L 41.5527 -11.6211 L 40.2832 -1.80664 L 35.1074 -1.80664 C 34.4727 -1.80664 33.9844 -1.31836 33.9844 -0.683594 C 33.9844 -0.0976562 34.4727 0.439453 35.1074 0.439453 L 70.2148 0.439453 C 70.8496 0.439453 71.3379 -0.0976562 71.3379 -0.683594 C 71.3379 -1.31836 70.8496 -1.80664 70.2148 -1.80664 L 65.0391 -1.80664 L 63.7695 -11.6211 L 88.1836 -11.6211 C 93.0664 -11.6211 95.5566 -14.1113 95.5566 -18.9941 L 95.5566 -63.5254 C 95.5566 -68.4082 93.0664 -70.8984 88.1836 -70.8984 L 17.1387 -70.8984 C 12.2559 -70.8984 9.76562 -68.4082 9.76562 -63.5254 L 9.76562 -18.9941 C 9.76562 -14.1113 12.2559 -11.6211 17.1387 -11.6211 Z M 14.1113 -25.9766 C 12.6953 -25.9766 11.9629 -26.6113 11.9629 -28.0762 L 11.9629 -63.4277 C 11.9629 -66.9434 13.7207 -68.7012 17.2852 -68.7012 L 88.0371 -68.7012 C 91.6016 -68.7012 93.3594 -66.9434 93.3594 -63.4277 L 93.3594 -28.0762 C 93.3594 -26.6113 92.627 -25.9766 91.2109 -25.9766 Z M 52.6855 -15.5273 C 51.123 -15.5273 50 -16.6504 50 -18.1641 C 50 -19.5801 51.123 -20.8008 52.6855 -20.8008 C 54.0527 -20.8008 55.3223 -19.5801 55.3223 -18.1641 C 55.3223 -16.6504 54.0527 -15.5273 52.6855 -15.5273 Z"/>
  </g>
 </g>
</svg>
