<?xml version="1.0" encoding="UTF-8"?>
<!--Generator: Apple Native CoreSVG 123-->
<!DOCTYPE svg
PUBLIC "-//W3C//DTD SVG 1.1//EN"
       "http://www.w3.org/Graphics/SVG/1.1/DTD/svg11.dtd">
<svg version="1.1" xmlns="http://www.w3.org/2000/svg" xmlns:xlink="http://www.w3.org/1999/xlink" width="3300" height="2200">
 <!--glyph: "uni100355.medium", point size: 100.000000, font version: "Version 15.0d7e11", template writer version: "5"-->
 <g id="Notes">
  <rect height="2200" id="artboard" style="fill:white;opacity:1" width="3300" x="0" y="0"/>
  <line id="" style="fill:none;stroke:black;opacity:1;stroke-width:0.5;" x1="263" x2="3036" y1="292" y2="292"/>
  <text style="stroke:none;fill:black;font-family:-apple-system,&quot;SF Pro Display&quot;,&quot;SF Pro Text&quot;,Helvetica,sans-serif;font-weight:bold;" transform="matrix(1 0 0 1 263 322)">Weight/Scale Variations</text>
  <text style="stroke:none;fill:black;font-family:-apple-system,&quot;SF Pro Display&quot;,&quot;SF Pro Text&quot;,Helvetica,sans-serif;text-anchor:middle;" transform="matrix(1 0 0 1 559.711 322)">Ultralight</text>
  <text style="stroke:none;fill:black;font-family:-apple-system,&quot;SF Pro Display&quot;,&quot;SF Pro Text&quot;,Helvetica,sans-serif;text-anchor:middle;" transform="matrix(1 0 0 1 856.422 322)">Thin</text>
  <text style="stroke:none;fill:black;font-family:-apple-system,&quot;SF Pro Display&quot;,&quot;SF Pro Text&quot;,Helvetica,sans-serif;text-anchor:middle;" transform="matrix(1 0 0 1 1153.13 322)">Light</text>
  <text style="stroke:none;fill:black;font-family:-apple-system,&quot;SF Pro Display&quot;,&quot;SF Pro Text&quot;,Helvetica,sans-serif;text-anchor:middle;" transform="matrix(1 0 0 1 1449.84 322)">Regular</text>
  <text style="stroke:none;fill:black;font-family:-apple-system,&quot;SF Pro Display&quot;,&quot;SF Pro Text&quot;,Helvetica,sans-serif;text-anchor:middle;" transform="matrix(1 0 0 1 1746.56 322)">Medium</text>
  <text style="stroke:none;fill:black;font-family:-apple-system,&quot;SF Pro Display&quot;,&quot;SF Pro Text&quot;,Helvetica,sans-serif;text-anchor:middle;" transform="matrix(1 0 0 1 2043.27 322)">Semibold</text>
  <text style="stroke:none;fill:black;font-family:-apple-system,&quot;SF Pro Display&quot;,&quot;SF Pro Text&quot;,Helvetica,sans-serif;text-anchor:middle;" transform="matrix(1 0 0 1 2339.98 322)">Bold</text>
  <text style="stroke:none;fill:black;font-family:-apple-system,&quot;SF Pro Display&quot;,&quot;SF Pro Text&quot;,Helvetica,sans-serif;text-anchor:middle;" transform="matrix(1 0 0 1 2636.69 322)">Heavy</text>
  <text style="stroke:none;fill:black;font-family:-apple-system,&quot;SF Pro Display&quot;,&quot;SF Pro Text&quot;,Helvetica,sans-serif;text-anchor:middle;" transform="matrix(1 0 0 1 2933.4 322)">Black</text>
  <line id="" style="fill:none;stroke:black;opacity:1;stroke-width:0.5;" x1="263" x2="3036" y1="1903" y2="1903"/>
  <g id="" transform="matrix(1 0 0 1 263 1933)">
   <path d="M 9.24805 0.830078 C 13.5547 0.830078 17.1387 -2.74414 17.1387 -7.05078 C 17.1387 -11.3574 13.5449 -14.9316 9.23828 -14.9316 C 4.94141 -14.9316 1.36719 -11.3574 1.36719 -7.05078 C 1.36719 -2.74414 4.95117 0.830078 9.24805 0.830078 Z M 9.24805 -0.654297 C 5.70312 -0.654297 2.87109 -3.49609 2.87109 -7.05078 C 2.87109 -10.6055 5.69336 -13.4473 9.23828 -13.4473 C 12.793 -13.4473 15.6348 -10.6055 15.6445 -7.05078 C 15.6543 -3.49609 12.8027 -0.654297 9.24805 -0.654297 Z M 9.22852 -3.42773 C 9.69727 -3.42773 9.9707 -3.74023 9.9707 -4.25781 L 9.9707 -6.31836 L 12.1973 -6.31836 C 12.6953 -6.31836 13.0371 -6.57227 13.0371 -7.04102 C 13.0371 -7.51953 12.7148 -7.7832 12.1973 -7.7832 L 9.9707 -7.7832 L 9.9707 -10.0098 C 9.9707 -10.5273 9.69727 -10.8496 9.22852 -10.8496 C 8.75977 -10.8496 8.50586 -10.5078 8.50586 -10.0098 L 8.50586 -7.7832 L 6.29883 -7.7832 C 5.78125 -7.7832 5.44922 -7.51953 5.44922 -7.04102 C 5.44922 -6.57227 5.80078 -6.31836 6.29883 -6.31836 L 8.50586 -6.31836 L 8.50586 -4.25781 C 8.50586 -3.75977 8.75977 -3.42773 9.22852 -3.42773 Z"/>
  </g>
  <g id="" transform="matrix(1 0 0 1 281.506 1933)">
   <path d="M 11.709 2.91016 C 17.1582 2.91016 21.6699 -1.60156 21.6699 -7.05078 C 21.6699 -12.4902 17.1484 -17.0117 11.6992 -17.0117 C 6.25977 -17.0117 1.74805 -12.4902 1.74805 -7.05078 C 1.74805 -1.60156 6.26953 2.91016 11.709 2.91016 Z M 11.709 1.25 C 7.09961 1.25 3.41797 -2.44141 3.41797 -7.05078 C 3.41797 -11.6504 7.08984 -15.3516 11.6992 -15.3516 C 16.3086 -15.3516 20 -11.6504 20.0098 -7.05078 C 20.0195 -2.44141 16.3184 1.25 11.709 1.25 Z M 11.6895 -2.41211 C 12.207 -2.41211 12.5195 -2.77344 12.5195 -3.33984 L 12.5195 -6.23047 L 15.5762 -6.23047 C 16.123 -6.23047 16.5039 -6.51367 16.5039 -7.03125 C 16.5039 -7.55859 16.1426 -7.86133 15.5762 -7.86133 L 12.5195 -7.86133 L 12.5195 -10.9277 C 12.5195 -11.5039 12.207 -11.8555 11.6895 -11.8555 C 11.1719 -11.8555 10.8789 -11.4844 10.8789 -10.9277 L 10.8789 -7.86133 L 7.83203 -7.86133 C 7.26562 -7.86133 6.89453 -7.55859 6.89453 -7.03125 C 6.89453 -6.51367 7.28516 -6.23047 7.83203 -6.23047 L 10.8789 -6.23047 L 10.8789 -3.33984 C 10.8789 -2.79297 11.1719 -2.41211 11.6895 -2.41211 Z"/>
  </g>
  <g id="" transform="matrix(1 0 0 1 304.924 1933)">
   <path d="M 14.9707 5.67383 C 21.9336 5.67383 27.6953 -0.078125 27.6953 -7.04102 C 27.6953 -14.0039 21.9238 -19.7559 14.9609 -19.7559 C 8.00781 -19.7559 2.25586 -14.0039 2.25586 -7.04102 C 2.25586 -0.078125 8.01758 5.67383 14.9707 5.67383 Z M 14.9707 3.85742 C 8.93555 3.85742 4.08203 -1.00586 4.08203 -7.04102 C 4.08203 -13.0762 8.92578 -17.9395 14.9609 -17.9395 C 21.0059 -17.9395 25.8594 -13.0762 25.8691 -7.04102 C 25.8789 -1.00586 21.0156 3.85742 14.9707 3.85742 Z M 14.9512 -1.06445 C 15.5176 -1.06445 15.8691 -1.45508 15.8691 -2.06055 L 15.8691 -6.13281 L 20.1074 -6.13281 C 20.6934 -6.13281 21.1133 -6.46484 21.1133 -7.02148 C 21.1133 -7.59766 20.7227 -7.93945 20.1074 -7.93945 L 15.8691 -7.93945 L 15.8691 -12.1875 C 15.8691 -12.8027 15.5176 -13.1934 14.9512 -13.1934 C 14.3848 -13.1934 14.0625 -12.7832 14.0625 -12.1875 L 14.0625 -7.93945 L 9.83398 -7.93945 C 9.21875 -7.93945 8.80859 -7.59766 8.80859 -7.02148 C 8.80859 -6.46484 9.23828 -6.13281 9.83398 -6.13281 L 14.0625 -6.13281 L 14.0625 -2.06055 C 14.0625 -1.47461 14.3848 -1.06445 14.9512 -1.06445 Z"/>
  </g>
  <text style="stroke:none;fill:black;font-family:-apple-system,&quot;SF Pro Display&quot;,&quot;SF Pro Text&quot;,Helvetica,sans-serif;font-weight:bold;" transform="matrix(1 0 0 1 263 1953)">Design Variations</text>
  <text style="stroke:none;fill:black;font-family:-apple-system,&quot;SF Pro Display&quot;,&quot;SF Pro Text&quot;,Helvetica,sans-serif;" transform="matrix(1 0 0 1 263 1971)">Symbols are supported in up to nine weights and three scales.</text>
  <text style="stroke:none;fill:black;font-family:-apple-system,&quot;SF Pro Display&quot;,&quot;SF Pro Text&quot;,Helvetica,sans-serif;" transform="matrix(1 0 0 1 263 1989)">For optimal layout with text and other symbols, vertically align</text>
  <text style="stroke:none;fill:black;font-family:-apple-system,&quot;SF Pro Display&quot;,&quot;SF Pro Text&quot;,Helvetica,sans-serif;" transform="matrix(1 0 0 1 263 2007)">symbols with the adjacent text.</text>
  <rect height="14" id="" style="fill:#00AEEF;stroke:none;opacity:0.4;" width="3" x="776" y="1919"/>
  <g id="" transform="matrix(1 0 0 1 779 1933)">
   <path d="M 10.5273 0 L 12.373 0 L 7.17773 -14.0918 L 5.43945 -14.0918 L 0.244141 0 L 2.08984 0 L 3.50586 -4.0332 L 9.11133 -4.0332 Z M 6.2793 -11.9531 L 6.33789 -11.9531 L 8.59375 -5.52734 L 4.02344 -5.52734 Z"/>
  </g>
  <rect height="14" id="" style="fill:#00AEEF;stroke:none;opacity:0.4;" width="3" x="791.617" y="1919"/>
  <text style="stroke:none;fill:black;font-family:-apple-system,&quot;SF Pro Display&quot;,&quot;SF Pro Text&quot;,Helvetica,sans-serif;font-weight:bold;" transform="matrix(1 0 0 1 776 1953)">Margins</text>
  <text style="stroke:none;fill:black;font-family:-apple-system,&quot;SF Pro Display&quot;,&quot;SF Pro Text&quot;,Helvetica,sans-serif;" transform="matrix(1 0 0 1 776 1971)">Leading and trailing margins on the left and right side of each symbol</text>
  <text style="stroke:none;fill:black;font-family:-apple-system,&quot;SF Pro Display&quot;,&quot;SF Pro Text&quot;,Helvetica,sans-serif;" transform="matrix(1 0 0 1 776 1989)">can be adjusted by modifying the width of the blue rectangles.</text>
  <text style="stroke:none;fill:black;font-family:-apple-system,&quot;SF Pro Display&quot;,&quot;SF Pro Text&quot;,Helvetica,sans-serif;" transform="matrix(1 0 0 1 776 2007)">Modifications are automatically applied proportionally to all</text>
  <text style="stroke:none;fill:black;font-family:-apple-system,&quot;SF Pro Display&quot;,&quot;SF Pro Text&quot;,Helvetica,sans-serif;" transform="matrix(1 0 0 1 776 2025)">scales and weights.</text>
  <g id="" transform="matrix(1 0 0 1 1289 1933)">
   <path d="M 2.83203 3.11523 L 4.375 4.6582 C 5.22461 5.48828 6.19141 5.41992 7.06055 4.46289 L 17.2754 -6.66016 C 17.7051 -6.36719 18.0957 -6.37695 18.5645 -6.47461 L 19.6094 -6.68945 L 20.3027 -5.99609 L 20.2539 -5.47852 C 20.1855 -4.95117 20.3516 -4.53125 20.8496 -4.0332 L 21.6602 -3.22266 C 22.168 -2.71484 22.8223 -2.68555 23.3008 -3.16406 L 26.5527 -6.41602 C 27.0312 -6.89453 27.0117 -7.54883 26.5039 -8.05664 L 25.6836 -8.87695 C 25.1855 -9.375 24.7754 -9.55078 24.2383 -9.47266 L 23.7109 -9.41406 L 23.0566 -10.0781 L 23.3398 -11.2207 C 23.4863 -11.7871 23.3398 -12.2559 22.7148 -12.8613 L 20.3027 -15.2539 C 16.7578 -18.7793 12.2266 -18.6719 9.11133 -15.5371 C 8.69141 -15.1074 8.64258 -14.5215 8.91602 -14.0918 C 9.15039 -13.7207 9.62891 -13.4961 10.2734 -13.6621 C 11.7871 -14.043 13.3008 -13.9258 14.7852 -12.9199 L 14.1602 -11.3379 C 13.9258 -10.752 13.9453 -10.2734 14.1797 -9.83398 L 3.01758 0.439453 C 2.08008 1.30859 1.97266 2.25586 2.83203 3.11523 Z M 10.6738 -15.1465 C 13.3398 -17.1387 16.6504 -16.8262 19.0527 -14.4141 L 21.6797 -11.8066 C 21.9141 -11.5723 21.9434 -11.3867 21.8848 -11.0938 L 21.5039 -9.53125 L 23.0762 -7.95898 L 24.043 -8.04688 C 24.3262 -8.07617 24.4141 -8.05664 24.6387 -7.83203 L 25.2637 -7.20703 L 22.5098 -4.46289 L 21.8848 -5.07812 C 21.6602 -5.30273 21.6406 -5.40039 21.6699 -5.68359 L 21.7578 -6.64062 L 20.1953 -8.20312 L 18.5742 -7.89062 C 18.291 -7.83203 18.1445 -7.83203 17.9102 -8.07617 L 15.7324 -10.2539 C 15.5078 -10.4883 15.4785 -10.625 15.6055 -10.9473 L 16.5527 -13.2227 C 14.9512 -14.7559 12.8418 -15.6055 10.8008 -14.9512 C 10.7129 -14.9219 10.6445 -14.9414 10.6152 -14.9805 C 10.5859 -15.0293 10.5859 -15.0781 10.6738 -15.1465 Z M 4.10156 2.41211 C 3.61328 1.91406 3.78906 1.61133 4.12109 1.30859 L 15.0781 -8.80859 L 16.3086 -7.57812 L 6.15234 3.34961 C 5.84961 3.68164 5.46875 3.7793 5.06836 3.37891 Z"/>
  </g>
  <text style="stroke:none;fill:black;font-family:-apple-system,&quot;SF Pro Display&quot;,&quot;SF Pro Text&quot;,Helvetica,sans-serif;font-weight:bold;" transform="matrix(1 0 0 1 1289 1953)">Exporting</text>
  <text style="stroke:none;fill:black;font-family:-apple-system,&quot;SF Pro Display&quot;,&quot;SF Pro Text&quot;,Helvetica,sans-serif;" transform="matrix(1 0 0 1 1289 1971)">Symbols should be outlined when exporting to ensure the</text>
  <text style="stroke:none;fill:black;font-family:-apple-system,&quot;SF Pro Display&quot;,&quot;SF Pro Text&quot;,Helvetica,sans-serif;" transform="matrix(1 0 0 1 1289 1989)">design is preserved when submitting to Xcode.</text>
  <text id="template-version" style="stroke:none;fill:black;font-family:-apple-system,&quot;SF Pro Display&quot;,&quot;SF Pro Text&quot;,Helvetica,sans-serif;text-anchor:end;" transform="matrix(1 0 0 1 3036 1933)">Template v.1.0</text>
  <text style="stroke:none;fill:black;font-family:-apple-system,&quot;SF Pro Display&quot;,&quot;SF Pro Text&quot;,Helvetica,sans-serif;text-anchor:end;" transform="matrix(1 0 0 1 3036 1951)">Generated from envelope</text>
  <text style="stroke:none;fill:black;font-family:-apple-system,&quot;SF Pro Display&quot;,&quot;SF Pro Text&quot;,Helvetica,sans-serif;text-anchor:end;" transform="matrix(1 0 0 1 3036 1969)">Typeset at 100 points</text>
  <text style="stroke:none;fill:black;font-family:-apple-system,&quot;SF Pro Display&quot;,&quot;SF Pro Text&quot;,Helvetica,sans-serif;" transform="matrix(1 0 0 1 263 726)">Small</text>
  <text style="stroke:none;fill:black;font-family:-apple-system,&quot;SF Pro Display&quot;,&quot;SF Pro Text&quot;,Helvetica,sans-serif;" transform="matrix(1 0 0 1 263 1156)">Medium</text>
  <text style="stroke:none;fill:black;font-family:-apple-system,&quot;SF Pro Display&quot;,&quot;SF Pro Text&quot;,Helvetica,sans-serif;" transform="matrix(1 0 0 1 263 1586)">Large</text>
 </g>
 <g id="Guides">
  <g id="H-reference" style="fill:#27AAE1;stroke:none;" transform="matrix(1 0 0 1 339 696)">
   <path d="M 54.9316 0 L 57.666 0 L 30.5664 -70.459 L 28.0762 -70.459 L 0.976562 0 L 3.66211 0 L 12.9395 -24.4629 L 45.7031 -24.4629 Z M 29.1992 -67.0898 L 29.4434 -67.0898 L 44.8242 -26.709 L 13.8184 -26.709 Z"/>
  </g>
  <line id="Baseline-S" style="fill:none;stroke:#27AAE1;opacity:1;stroke-width:0.577;" x1="263" x2="3036" y1="696" y2="696"/>
  <line id="Capline-S" style="fill:none;stroke:#27AAE1;opacity:1;stroke-width:0.577;" x1="263" x2="3036" y1="625.541" y2="625.541"/>
  <g id="H-reference" style="fill:#27AAE1;stroke:none;" transform="matrix(1 0 0 1 339 1126)">
   <path d="M 54.9316 0 L 57.666 0 L 30.5664 -70.459 L 28.0762 -70.459 L 0.976562 0 L 3.66211 0 L 12.9395 -24.4629 L 45.7031 -24.4629 Z M 29.1992 -67.0898 L 29.4434 -67.0898 L 44.8242 -26.709 L 13.8184 -26.709 Z"/>
  </g>
  <line id="Baseline-M" style="fill:none;stroke:#27AAE1;opacity:1;stroke-width:0.577;" x1="263" x2="3036" y1="1126" y2="1126"/>
  <line id="Capline-M" style="fill:none;stroke:#27AAE1;opacity:1;stroke-width:0.577;" x1="263" x2="3036" y1="1055.54" y2="1055.54"/>
  <g id="H-reference" style="fill:#27AAE1;stroke:none;" transform="matrix(1 0 0 1 339 1556)">
   <path d="M 54.9316 0 L 57.666 0 L 30.5664 -70.459 L 28.0762 -70.459 L 0.976562 0 L 3.66211 0 L 12.9395 -24.4629 L 45.7031 -24.4629 Z M 29.1992 -67.0898 L 29.4434 -67.0898 L 44.8242 -26.709 L 13.8184 -26.709 Z"/>
  </g>
  <line id="Baseline-L" style="fill:none;stroke:#27AAE1;opacity:1;stroke-width:0.577;" x1="263" x2="3036" y1="1556" y2="1556"/>
  <line id="Capline-L" style="fill:none;stroke:#27AAE1;opacity:1;stroke-width:0.577;" x1="263" x2="3036" y1="1485.54" y2="1485.54"/>
  <rect height="119.336" id="left-margin" style="fill:#00AEEF;stroke:none;opacity:0.4;" width="12.4512" x="1383.49" y="1030.79"/>
  <rect height="119.336" id="right-margin" style="fill:#00AEEF;stroke:none;opacity:0.4;" width="12.4512" x="1503.75" y="1030.79"/>
 </g>
 <g id="Symbols">
  <g id="Black-L" transform="matrix(1 0 0 1 2842.68 1556)">
   <path d="M 39.9902 23.5352 L 142.139 23.5352 C 156.738 23.5352 165.381 14.9414 165.381 -0.292969 L 165.381 -70.1172 C 165.381 -85.3027 156.689 -93.8965 141.455 -93.8965 L 39.3066 -93.8965 C 24.707 -93.8965 16.0645 -85.3027 16.0645 -70.1172 L 16.0645 -0.292969 C 16.0645 14.9414 24.7559 23.5352 39.9902 23.5352 Z M 84.9121 -36.3281 L 45.9473 -74.9023 L 135.498 -74.9023 L 96.5332 -36.3281 C 94.1406 -33.9844 92.5781 -33.1055 90.7227 -33.1055 C 88.8672 -33.1055 87.3047 -33.9844 84.9121 -36.3281 Z M 118.994 -36.4258 L 146.826 -63.8672 L 146.826 -8.59375 Z M 34.6191 -63.8672 L 62.4512 -36.4258 L 34.6191 -8.59375 Z M 90.7227 -16.6992 C 96.2891 -16.6992 101.367 -18.9941 106.348 -23.9746 L 107.666 -25.293 L 137.5 4.54102 L 43.9453 4.54102 L 73.7305 -25.293 L 75.0488 -23.9746 C 80.0781 -18.9941 85.1562 -16.6992 90.7227 -16.6992 Z"/>
  </g>
  <g id="Heavy-L" transform="matrix(1 0 0 1 2547.33 1556)">
   <path d="M 38.8184 22.3633 L 140.723 22.3633 C 154.541 22.3633 162.646 14.2578 162.646 -0.292969 L 162.646 -70.0684 C 162.646 -84.6191 154.492 -92.7246 139.893 -92.7246 L 37.9395 -92.7246 C 24.1699 -92.7246 16.0645 -84.6191 16.0645 -70.0684 L 16.0645 -0.292969 C 16.0645 14.2578 24.2188 22.3633 38.8184 22.3633 Z M 83.1543 -35.1074 L 41.5527 -76.2207 L 137.256 -76.2207 L 95.6543 -35.1074 C 93.1641 -32.7148 91.4062 -31.7383 89.4043 -31.7383 C 87.4023 -31.7383 85.5957 -32.7148 83.1543 -35.1074 Z M 32.1777 -65.8691 L 62.4512 -36.084 L 32.1777 -5.95703 Z M 116.357 -36.084 L 146.533 -65.7715 L 146.533 -6.05469 Z M 89.4043 -17.2363 C 94.6289 -17.2363 99.4629 -19.4336 104.248 -24.2188 L 106.348 -26.2695 L 138.623 5.85938 L 40.1855 5.85938 L 72.4121 -26.2207 L 74.4629 -24.2188 C 79.2969 -19.4336 84.1309 -17.2363 89.4043 -17.2363 Z"/>
  </g>
  <g id="Bold-L" transform="matrix(1 0 0 1 2252.16 1556)">
   <path d="M 37.5 20.9961 L 139.209 20.9961 C 152.1 20.9961 159.57 13.4766 159.57 -0.292969 L 159.57 -70.0195 C 159.57 -83.8379 152.051 -91.3574 138.135 -91.3574 L 36.4258 -91.3574 C 23.584 -91.3574 16.0645 -83.8867 16.0645 -70.0195 L 16.0645 -0.292969 C 16.0645 13.5254 23.6328 20.9961 37.5 20.9961 Z M 81.1523 -33.7891 L 36.7188 -77.6855 C 37.1094 -77.6855 37.5488 -77.7344 37.9883 -77.7344 L 137.646 -77.7344 C 138.184 -77.7344 138.623 -77.6855 139.111 -77.6367 L 94.6777 -33.7891 C 92.1387 -31.25 90.0879 -30.2734 87.9395 -30.2734 C 85.7422 -30.2734 83.6914 -31.2988 81.1523 -33.7891 Z M 29.4434 -68.0664 L 62.4512 -35.6445 L 29.4434 -3.02734 Z M 113.379 -35.6445 L 146.191 -67.9199 L 146.191 -3.22266 Z M 37.9883 7.37305 C 37.3047 7.37305 36.6699 7.32422 36.084 7.22656 L 70.9473 -27.2949 L 73.8281 -24.4629 C 78.4668 -19.873 83.0566 -17.8711 87.9395 -17.8711 C 92.7734 -17.8711 97.3633 -19.873 101.953 -24.4629 L 104.883 -27.2949 L 139.746 7.22656 C 139.111 7.32422 138.379 7.37305 137.646 7.37305 Z"/>
  </g>
  <g id="Semibold-L" transform="matrix(1 0 0 1 1956.5 1556)">
   <path d="M 36.6211 20.0684 L 138.135 20.0684 C 150.391 20.0684 157.471 12.9883 157.471 -0.341797 L 157.471 -70.0195 C 157.471 -83.3008 150.342 -90.4297 136.914 -90.4297 L 35.4004 -90.4297 C 23.1445 -90.4297 16.0645 -83.3496 16.0645 -70.0195 L 16.0645 -0.341797 C 16.0645 13.0371 23.1934 20.0684 36.6211 20.0684 Z M 79.834 -32.8613 L 33.6426 -78.3691 C 34.6191 -78.6133 35.6445 -78.7109 36.8164 -78.7109 L 136.719 -78.7109 C 137.939 -78.7109 139.062 -78.6133 140.088 -78.3203 L 93.9941 -32.8613 C 91.4062 -30.2734 89.1602 -29.1992 86.9141 -29.1992 C 84.6191 -29.1992 82.373 -30.2734 79.834 -32.8613 Z M 27.5879 -69.4336 L 27.5879 -69.6289 L 62.4512 -35.3516 L 27.5879 -1.02539 Z M 111.328 -35.4004 L 145.947 -69.3359 L 145.947 -1.26953 Z M 36.8164 8.39844 C 35.5957 8.39844 34.4727 8.25195 33.4473 8.00781 L 69.9219 -28.0273 L 73.3887 -24.6094 C 77.8809 -20.2148 82.2754 -18.3594 86.9141 -18.3594 C 91.5039 -18.3594 95.8984 -20.2148 100.391 -24.6094 L 103.857 -28.0273 L 140.283 7.95898 C 139.209 8.25195 138.037 8.39844 136.719 8.39844 Z"/>
  </g>
  <g id="Medium-L" transform="matrix(1 0 0 1 1660.59 1556)">
   <path d="M 35.9375 19.3848 L 137.305 19.3848 C 149.121 19.3848 155.859 12.5977 155.859 -0.341797 L 155.859 -69.9707 C 155.859 -82.9102 149.072 -89.6973 135.986 -89.6973 L 34.6191 -89.6973 C 22.8516 -89.6973 16.0645 -82.959 16.0645 -69.9707 L 16.0645 -0.341797 C 16.0645 12.6465 22.9004 19.3848 35.9375 19.3848 Z M 78.7598 -32.1289 L 31.4453 -78.7598 C 32.7637 -79.248 34.2285 -79.4922 35.9863 -79.4922 L 135.986 -79.4922 C 137.793 -79.4922 139.355 -79.248 140.674 -78.6621 L 93.457 -32.1289 C 90.8203 -29.4922 88.4766 -28.418 86.1328 -28.418 C 83.7891 -28.418 81.3965 -29.541 78.7598 -32.1289 Z M 26.1719 -0.683594 L 26.1719 -69.6777 C 26.1719 -70.0195 26.1719 -70.4102 26.2207 -70.752 L 62.4512 -35.1562 L 26.2207 0.488281 C 26.1719 0.0976562 26.1719 -0.292969 26.1719 -0.683594 Z M 145.752 -69.6289 L 145.752 -0.683594 C 145.752 -0.341797 145.752 -0.0488281 145.752 0.195312 L 109.766 -35.1562 L 145.752 -70.459 C 145.752 -70.166 145.752 -69.9219 145.752 -69.6289 Z M 35.9863 9.17969 C 34.2773 9.17969 32.8125 8.93555 31.543 8.49609 L 69.1895 -28.5645 L 73.0469 -24.7559 C 77.4414 -20.459 81.7383 -18.6523 86.1328 -18.6523 C 90.5273 -18.6523 94.8242 -20.459 99.1699 -24.7559 L 103.076 -28.5645 L 140.625 8.39844 C 139.307 8.93555 137.744 9.17969 135.986 9.17969 Z"/>
  </g>
  <g id="Regular-L" transform="matrix(1 0 0 1 1364.91 1556)">
   <path d="M 35.0586 18.457 L 136.279 18.457 C 147.412 18.457 153.809 12.0605 153.809 -0.341797 L 153.809 -69.9707 C 153.809 -82.373 147.363 -88.7695 134.766 -88.7695 L 33.5938 -88.7695 C 22.4121 -88.7695 16.0645 -82.4707 16.0645 -69.9707 L 16.0645 -0.341797 C 16.0645 12.1582 22.4609 18.457 35.0586 18.457 Z M 77.4414 -31.25 L 28.7598 -79.1504 C 30.3711 -80.0781 32.4219 -80.5176 34.8633 -80.5176 L 135.01 -80.5176 C 137.549 -80.5176 139.648 -80.0293 141.309 -79.0039 L 92.8223 -31.25 C 90.0879 -28.5156 87.5488 -27.3926 85.1074 -27.3926 C 82.666 -27.3926 80.127 -28.5645 77.4414 -31.25 Z M 24.3164 -0.439453 L 24.3164 -69.9707 C 24.3164 -70.7031 24.3652 -71.4355 24.4629 -72.1191 L 62.5 -34.8633 L 24.5117 2.29492 C 24.4141 1.46484 24.3164 0.537109 24.3164 -0.439453 Z M 145.557 -69.9219 L 145.557 -0.390625 C 145.557 0.488281 145.508 1.26953 145.361 2.00195 L 107.764 -34.8633 L 145.459 -71.8262 C 145.508 -71.1914 145.557 -70.5566 145.557 -69.9219 Z M 34.8633 10.2051 C 32.5684 10.2051 30.6641 9.81445 29.1504 9.0332 L 68.1641 -29.2969 L 72.6074 -24.9512 C 76.8555 -20.752 80.957 -19.0918 85.1074 -19.0918 C 89.2578 -19.0918 93.3594 -20.752 97.6074 -24.9512 L 102.051 -29.2969 L 140.967 8.88672 C 139.355 9.76562 137.354 10.2051 135.01 10.2051 Z"/>
  </g>
  <g id="Light-L" transform="matrix(1 0 0 1 1069.15 1556)">
   <path d="M 34.0332 17.5293 L 134.863 17.5293 C 145.801 17.5293 151.904 11.377 151.904 -0.292969 L 151.904 -69.9707 C 151.904 -81.6895 145.801 -87.8418 133.936 -87.8418 L 33.1055 -87.8418 C 22.168 -87.8418 16.0645 -81.7871 16.0645 -69.9707 L 16.0645 -0.292969 C 16.0645 11.4746 22.168 17.5293 34.0332 17.5293 Z M 76.5137 -30.2246 L 26.416 -79.3945 C 28.2715 -80.7617 30.8105 -81.4453 33.9355 -81.4453 L 134.033 -81.4453 C 137.305 -81.4453 139.941 -80.6641 141.846 -79.1016 L 92.041 -30.2246 C 89.3555 -27.5391 86.6699 -26.4648 84.2773 -26.4648 C 81.9336 -26.4648 79.1504 -27.5879 76.5137 -30.2246 Z M 22.4121 -0.390625 L 22.4121 -69.9219 C 22.4121 -71.4355 22.6074 -72.8027 22.9004 -74.0234 L 63.2812 -34.5703 L 23.0957 4.3457 C 22.6562 2.97852 22.4121 1.36719 22.4121 -0.390625 Z M 145.557 -69.873 L 145.557 -0.390625 C 145.557 1.2207 145.361 2.63672 145.02 3.85742 L 105.322 -34.5703 L 145.166 -73.5352 C 145.41 -72.4609 145.557 -71.2402 145.557 -69.873 Z M 33.9355 11.1816 C 31.0547 11.1816 28.6621 10.5957 26.8555 9.42383 L 67.7246 -30.2246 L 72.6562 -25.4395 C 76.6113 -21.5332 80.5664 -20.0684 84.2773 -20.0684 C 88.0371 -20.0684 91.9434 -21.5332 95.8984 -25.4395 L 100.83 -30.2246 L 141.455 9.17969 C 139.551 10.498 137.061 11.1816 134.033 11.1816 Z"/>
  </g>
  <g id="Thin-L" transform="matrix(1 0 0 1 773.683 1556)">
   <path d="M 32.666 16.3574 L 133.008 16.3574 C 143.701 16.3574 149.414 10.498 149.414 -0.244141 L 149.414 -70.0195 C 149.414 -80.7129 143.701 -86.5723 132.812 -86.5723 L 32.4707 -86.5723 C 21.7773 -86.5723 16.0645 -80.8594 16.0645 -70.0195 L 16.0645 -0.244141 C 16.0645 10.6445 21.7773 16.3574 32.666 16.3574 Z M 75.3418 -28.8574 L 23.3887 -79.6387 C 25.5371 -81.6895 28.7109 -82.7148 32.7637 -82.7148 L 132.715 -82.7148 C 136.963 -82.7148 140.283 -81.4941 142.48 -79.1504 L 91.0645 -28.8574 C 88.3789 -26.2207 85.4492 -25.2441 83.2031 -25.2441 C 80.9082 -25.2441 77.9297 -26.2695 75.3418 -28.8574 Z M 19.9219 -0.390625 L 19.9219 -69.873 C 19.9219 -72.3633 20.3125 -74.5117 21.0938 -76.3184 L 64.3066 -34.2285 L 21.4355 6.78711 C 20.459 4.83398 19.9219 2.49023 19.9219 -0.390625 Z M 145.557 -69.873 L 145.557 -0.390625 C 145.557 2.19727 145.117 4.3457 144.287 6.15234 L 102.051 -34.2285 L 144.58 -75.6348 C 145.215 -74.0234 145.557 -72.0703 145.557 -69.873 Z M 32.7637 12.5 C 29.0039 12.5 26.0742 11.6211 23.9258 9.91211 L 67.1387 -31.4941 L 72.6562 -26.0742 C 76.3184 -22.6074 79.9805 -21.3379 83.2031 -21.3379 C 86.377 -21.3379 90.0879 -22.6074 93.7012 -26.0742 L 99.2676 -31.4941 L 141.943 9.42383 C 139.746 11.4746 136.621 12.5 132.715 12.5 Z"/>
  </g>
  <g id="Ultralight-L" transform="matrix(1 0 0 1 477.607 1556)">
   <path d="M 19.4336 11.1816 C 19.5801 11.3281 19.7266 11.4258 19.9219 11.4746 C 22.6074 14.3066 26.6602 15.7227 31.9824 15.7227 L 132.031 15.7227 C 137.451 15.7227 141.553 14.2578 144.238 11.377 C 144.678 11.5234 145.264 11.4258 145.654 11.0352 C 146.289 10.4004 146.338 9.61914 145.996 9.27734 L 145.898 9.17969 C 147.412 6.68945 148.145 3.56445 148.145 -0.195312 L 148.145 -70.0195 C 148.145 -73.5352 147.461 -76.5137 146.191 -78.9062 C 146.24 -79.248 146.045 -79.6875 145.654 -80.127 C 145.557 -80.2246 145.41 -80.2734 145.312 -80.3223 C 142.725 -83.9844 138.281 -85.9375 132.227 -85.9375 L 32.1289 -85.9375 C 21.582 -85.9375 16.0645 -80.4199 16.0645 -70.0195 L 16.0645 -0.195312 C 16.0645 4.19922 17.041 7.71484 18.9941 10.3516 C 19.043 10.6445 19.1895 10.9375 19.4336 11.1816 Z M 74.707 -28.1738 L 21.9238 -79.7363 C 24.1699 -82.1289 27.5879 -83.3496 32.1777 -83.3496 L 132.031 -83.3496 C 136.768 -83.3496 140.43 -81.9336 142.725 -79.1504 L 90.5273 -28.1738 C 87.8906 -25.5371 84.8633 -24.6094 82.6172 -24.6094 C 80.3711 -24.6094 77.2949 -25.6348 74.707 -28.1738 Z M 18.6523 -0.341797 L 18.6523 -69.8242 C 18.6523 -72.8516 19.1895 -75.3906 20.2637 -77.3926 L 64.8438 -34.0332 L 20.6543 7.91016 C 19.3359 5.81055 18.6523 3.02734 18.6523 -0.341797 Z M 145.557 -69.8242 L 145.557 -0.390625 C 145.557 2.68555 144.971 5.22461 143.848 7.22656 L 100.391 -34.0332 L 144.238 -76.6602 C 145.117 -74.7559 145.557 -72.5098 145.557 -69.8242 Z M 32.1777 13.1348 C 27.9785 13.1348 24.7559 12.1094 22.4609 10.1074 L 66.7969 -32.1289 L 72.7051 -26.416 C 76.123 -23.1445 79.6875 -21.9727 82.6172 -21.9727 C 85.5469 -21.9727 89.1113 -23.1445 92.5781 -26.416 L 98.4375 -32.1289 L 142.188 9.57031 C 139.844 11.9141 136.426 13.1348 132.031 13.1348 Z"/>
  </g>
  <g id="Black-M" transform="matrix(1 0 0 1 2861.74 1126)">
   <path d="M 31.9824 11.4746 L 111.279 11.4746 C 123.584 11.4746 130.859 4.15039 130.859 -8.10547 L 130.859 -62.3047 C 130.859 -74.5605 123.584 -81.8359 111.328 -81.8359 L 32.0312 -81.8359 C 19.7266 -81.8359 12.4512 -74.5605 12.4512 -62.3047 L 12.4512 -8.10547 C 12.4512 4.15039 19.7266 11.4746 31.9824 11.4746 Z M 67.7246 -37.1582 L 39.8926 -64.6973 L 103.418 -64.6973 L 75.5859 -37.1582 C 73.8281 -35.498 72.8516 -34.8633 71.6309 -34.8633 C 70.4102 -34.8633 69.4336 -35.498 67.7246 -37.1582 Z M 94.4824 -36.5234 L 114.209 -55.957 L 114.209 -16.7969 Z M 29.1016 -55.9082 L 48.7793 -36.5234 L 29.1016 -16.7969 Z M 71.6309 -20.6055 C 76.2207 -20.6055 80.3223 -22.5586 84.2773 -26.4648 L 84.6191 -26.7578 L 105.664 -5.71289 L 37.5977 -5.71289 L 58.6426 -26.7578 L 58.9355 -26.4648 C 62.9395 -22.5586 67.0898 -20.6055 71.6309 -20.6055 Z"/>
  </g>
  <g id="Heavy-M" transform="matrix(1 0 0 1 2566.3 1126)">
   <path d="M 31.0059 10.3516 L 110.107 10.3516 C 121.582 10.3516 128.32 3.61328 128.32 -8.10547 L 128.32 -62.2559 C 128.32 -74.0234 121.582 -80.7617 109.814 -80.7617 L 30.6641 -80.7617 C 19.1895 -80.7617 12.4512 -74.0234 12.4512 -62.2559 L 12.4512 -8.10547 C 12.4512 3.61328 19.2383 10.3516 31.0059 10.3516 Z M 66.0156 -36.084 L 35.8887 -65.918 L 104.932 -65.918 L 74.8047 -36.084 C 72.998 -34.3262 71.8262 -33.6426 70.4102 -33.6426 C 69.043 -33.6426 67.8223 -34.3262 66.0156 -36.084 Z M 26.9043 -57.5195 L 48.584 -36.1816 L 26.9043 -14.5508 Z M 92.2363 -36.1816 L 113.867 -57.5195 L 113.867 -14.5996 Z M 70.4102 -20.9473 C 74.707 -20.9473 78.6621 -22.8027 82.4707 -26.5625 L 83.4473 -27.5879 L 106.592 -4.49219 L 34.2285 -4.49219 L 57.373 -27.5391 L 58.3008 -26.5625 C 62.1582 -22.8027 66.1133 -20.9473 70.4102 -20.9473 Z"/>
  </g>
  <g id="Bold-M" transform="matrix(1 0 0 1 2270.98 1126)">
   <path d="M 29.8828 9.17969 L 108.838 9.17969 C 119.385 9.17969 125.537 2.97852 125.537 -8.1543 L 125.537 -62.207 C 125.537 -73.3887 119.336 -79.541 108.105 -79.541 L 29.1504 -79.541 C 18.6523 -79.541 12.4512 -73.3887 12.4512 -62.207 L 12.4512 -8.1543 C 12.4512 3.02734 18.6523 9.17969 29.8828 9.17969 Z M 64.1113 -34.9121 L 31.3965 -67.2363 L 106.689 -67.2363 L 73.9746 -34.9121 C 72.0703 -33.0566 70.6055 -32.2754 69.043 -32.2754 C 67.4805 -32.2754 66.0156 -33.0566 64.1113 -34.9121 Z M 24.5117 -59.3262 L 48.3887 -35.791 L 24.5117 -12.0605 Z M 89.6973 -35.8398 L 113.477 -59.2285 L 113.477 -12.1582 Z M 69.043 -21.3867 C 73.0469 -21.3867 76.7578 -23.0469 80.4199 -26.709 L 82.1777 -28.418 L 107.617 -3.125 L 30.4688 -3.125 L 55.8594 -28.418 L 57.6172 -26.709 C 61.3281 -23.0469 65.0391 -21.3867 69.043 -21.3867 Z"/>
  </g>
  <g id="Semibold-M" transform="matrix(1 0 0 1 1975.22 1126)">
   <path d="M 29.1016 8.34961 L 107.959 8.34961 C 117.822 8.34961 123.633 2.58789 123.633 -8.20312 L 123.633 -62.207 C 123.633 -72.9492 117.822 -78.7109 106.982 -78.7109 L 28.125 -78.7109 C 18.2617 -78.7109 12.4512 -72.9492 12.4512 -62.207 L 12.4512 -8.20312 C 12.4512 2.58789 18.2617 8.34961 29.1016 8.34961 Z M 62.793 -34.1309 L 28.3691 -68.1152 C 28.7109 -68.1641 29.0527 -68.1641 29.3945 -68.1641 L 106.689 -68.1641 C 107.08 -68.1641 107.471 -68.1641 107.812 -68.1152 L 73.3887 -34.1309 C 71.3867 -32.1777 69.8242 -31.3477 68.1152 -31.3477 C 66.3574 -31.3477 64.7949 -32.1777 62.793 -34.1309 Z M 22.8516 -60.5469 L 48.2422 -35.5469 L 22.8516 -10.3516 Z M 87.9395 -35.5469 L 113.232 -60.4492 L 113.232 -10.498 Z M 29.3945 -2.19727 C 28.8574 -2.19727 28.3691 -2.24609 27.9297 -2.29492 L 54.8828 -29.0039 L 57.1289 -26.8066 C 60.7422 -23.2422 64.3066 -21.6797 68.1152 -21.6797 C 71.875 -21.6797 75.4395 -23.2422 79.0527 -26.8066 L 81.2988 -29.0527 L 108.252 -2.29492 C 107.764 -2.24609 107.227 -2.19727 106.689 -2.19727 Z"/>
  </g>
  <g id="Medium-M" transform="matrix(1 0 0 1 1679.25 1126)">
   <path d="M 28.5156 7.71484 L 107.275 7.71484 C 116.699 7.71484 122.168 2.24609 122.168 -8.20312 L 122.168 -62.1582 C 122.168 -72.6074 116.65 -78.0762 106.104 -78.0762 L 27.3438 -78.0762 C 17.9199 -78.0762 12.4512 -72.6562 12.4512 -62.1582 L 12.4512 -8.20312 C 12.4512 2.24609 17.9688 7.71484 28.5156 7.71484 Z M 61.8164 -33.4961 L 26.2695 -68.6523 C 26.9531 -68.7988 27.7344 -68.8965 28.5645 -68.8965 L 106.055 -68.8965 C 106.934 -68.8965 107.764 -68.7988 108.496 -68.6035 L 72.9492 -33.4961 C 70.8984 -31.4941 69.1895 -30.6152 67.3828 -30.6152 C 65.5762 -30.6152 63.8672 -31.4941 61.8164 -33.4961 Z M 21.582 -61.4746 L 48.1445 -35.3516 L 21.582 -9.08203 Z M 86.6211 -35.3516 L 113.037 -61.3281 L 113.037 -9.22852 Z M 28.5645 -1.51367 C 27.6855 -1.51367 26.8555 -1.61133 26.123 -1.75781 L 54.1016 -29.4922 L 56.7383 -26.8555 C 60.3027 -23.3887 63.7207 -21.9238 67.3828 -21.9238 C 70.9961 -21.9238 74.4629 -23.3887 77.9785 -26.8555 L 80.6641 -29.4922 L 108.594 -1.80664 C 107.812 -1.61133 106.982 -1.51367 106.055 -1.51367 Z"/>
  </g>
  <g id="Regular-M" transform="matrix(1 0 0 1 1383.49 1126)">
   <path d="M 27.7832 6.88477 L 106.396 6.88477 C 115.186 6.88477 120.264 1.80664 120.264 -8.25195 L 120.264 -62.1582 C 120.264 -72.168 115.137 -77.2461 104.932 -77.2461 L 26.3184 -77.2461 C 17.5293 -77.2461 12.4512 -72.2168 12.4512 -62.1582 L 12.4512 -8.25195 C 12.4512 1.85547 17.5781 6.88477 27.7832 6.88477 Z M 60.5469 -32.7148 L 23.6816 -69.0918 C 24.7559 -69.5312 26.0254 -69.7754 27.4902 -69.7754 L 105.225 -69.7754 C 106.738 -69.7754 108.057 -69.5312 109.131 -68.9941 L 72.3633 -32.7148 C 70.2637 -30.6152 68.3594 -29.6875 66.4551 -29.6875 C 64.502 -29.6875 62.5977 -30.6152 60.5469 -32.7148 Z M 19.9219 -8.25195 L 19.9219 -62.1582 C 19.9219 -62.5 19.9219 -62.3535 19.9219 -62.6465 L 47.998 -35.1074 L 19.9707 -7.42188 C 19.9219 -7.66602 19.9219 -7.95898 19.9219 -8.25195 Z M 112.793 -62.1094 L 112.793 -8.20312 C 112.793 -8.00781 112.793 -7.76367 112.793 -7.56836 L 84.9121 -35.1074 L 112.793 -62.5 C 112.793 -62.1094 112.793 -62.1094 112.793 -62.1094 Z M 27.4902 -0.585938 C 26.123 -0.585938 24.9023 -0.78125 23.9258 -1.2207 L 53.125 -30.0781 L 56.2988 -26.9531 C 59.7168 -23.584 62.9883 -22.168 66.4551 -22.168 C 69.873 -22.168 73.1934 -23.584 76.6113 -26.9531 L 79.7852 -30.0781 L 108.936 -1.26953 C 107.861 -0.78125 106.641 -0.585938 105.225 -0.585938 Z"/>
  </g>
  <g id="Light-M" transform="matrix(1 0 0 1 1087.63 1126)">
   <path d="M 26.8555 6.10352 L 105.127 6.10352 C 113.721 6.10352 118.555 1.2207 118.555 -8.20312 L 118.555 -62.1582 C 118.555 -71.5332 113.672 -76.416 104.199 -76.416 L 25.8789 -76.416 C 17.2852 -76.416 12.4512 -71.582 12.4512 -62.1582 L 12.4512 -8.20312 C 12.4512 1.26953 17.334 6.10352 26.8555 6.10352 Z M 59.7168 -31.7871 L 21.5332 -69.3848 C 22.8516 -70.2148 24.6094 -70.6543 26.709 -70.6543 L 104.297 -70.6543 C 106.494 -70.6543 108.301 -70.166 109.717 -69.1895 L 71.6797 -31.7871 C 69.5801 -29.6875 67.5781 -28.8574 65.6738 -28.8574 C 63.8184 -28.8574 61.7676 -29.7363 59.7168 -31.7871 Z M 18.2129 -8.25195 L 18.2129 -62.1094 C 18.2129 -62.9883 18.3105 -63.7695 18.4082 -64.4531 L 48.6816 -34.8633 L 18.5059 -5.46875 C 18.3105 -6.29883 18.2129 -7.22656 18.2129 -8.25195 Z M 112.793 -62.1094 L 112.793 -8.20312 C 112.793 -7.32422 112.695 -6.49414 112.549 -5.76172 L 82.7148 -34.8633 L 112.646 -64.1602 C 112.744 -63.5254 112.793 -62.8418 112.793 -62.1094 Z M 26.709 0.292969 C 24.7559 0.292969 23.1445 -0.0488281 21.8262 -0.78125 L 52.6855 -30.957 L 56.2988 -27.3926 C 59.4727 -24.2676 62.5977 -23.0469 65.6738 -23.0469 C 68.75 -23.0469 71.875 -24.2676 75.0977 -27.3926 L 78.7109 -30.957 L 109.424 -0.927734 C 108.057 -0.0976562 106.348 0.292969 104.297 0.292969 Z"/>
  </g>
  <g id="Thin-M" transform="matrix(1 0 0 1 792.018 1126)">
   <path d="M 25.6348 5.0293 L 103.467 5.0293 C 111.816 5.0293 116.357 0.390625 116.357 -8.10547 L 116.357 -62.1582 C 116.357 -70.7031 111.816 -75.293 103.174 -75.293 L 25.293 -75.293 C 16.9922 -75.293 12.4512 -70.8008 12.4512 -62.1582 L 12.4512 -8.10547 C 12.4512 0.488281 16.9922 5.0293 25.6348 5.0293 Z M 58.6426 -30.6152 L 18.7988 -69.6289 C 20.4102 -71.0449 22.7051 -71.7773 25.6836 -71.7773 L 103.125 -71.7773 C 106.201 -71.7773 108.643 -70.8984 110.303 -69.2871 L 70.752 -30.6152 C 68.7012 -28.5156 66.5039 -27.7344 64.6973 -27.7344 C 62.9395 -27.7344 60.6445 -28.5645 58.6426 -30.6152 Z M 16.0156 -8.20312 L 16.0156 -62.0605 C 16.0156 -63.8184 16.2598 -65.332 16.748 -66.6016 L 49.6094 -34.5215 L 16.9434 -3.17383 C 16.3086 -4.58984 16.0156 -6.25 16.0156 -8.20312 Z M 112.793 -62.0605 L 112.793 -8.20312 C 112.793 -6.44531 112.5 -4.93164 112.012 -3.66211 L 79.7852 -34.5215 L 112.207 -66.1133 C 112.598 -64.9414 112.793 -63.5742 112.793 -62.0605 Z M 25.6836 1.46484 C 22.9492 1.46484 20.752 0.830078 19.1895 -0.341797 L 52.1484 -32.0801 L 56.2988 -27.9785 C 59.1797 -25.1953 62.1094 -24.1699 64.6973 -24.1699 C 67.2852 -24.1699 70.2148 -25.1953 73.0957 -27.9785 L 77.2461 -32.0801 L 109.912 -0.683594 C 108.252 0.732422 106.006 1.46484 103.125 1.46484 Z"/>
  </g>
  <g id="Ultralight-M" transform="matrix(1 0 0 1 495.893 1126)">
   <path d="M 25 4.44336 L 102.637 4.44336 C 106.934 4.44336 110.156 3.22266 112.305 0.878906 C 112.549 0.878906 112.793 0.732422 112.988 0.537109 C 113.379 0.146484 113.525 -0.341797 113.477 -0.683594 C 114.6 -2.63672 115.186 -5.12695 115.186 -8.10547 L 115.186 -62.207 C 115.186 -70.2637 110.84 -74.707 102.637 -74.707 L 25 -74.707 C 16.7969 -74.707 12.4512 -70.3613 12.4512 -62.207 L 12.4512 -8.10547 C 12.4512 0.0976562 16.7969 4.44336 25 4.44336 Z M 58.1055 -29.9805 L 17.4316 -69.7266 C 19.1406 -71.4355 21.7285 -72.3145 25.0977 -72.3145 L 102.539 -72.3145 C 106.055 -72.3145 108.789 -71.2891 110.547 -69.2871 L 70.3125 -29.9805 C 68.2617 -27.9297 65.9668 -27.1973 64.209 -27.1973 C 62.4512 -27.1973 60.0586 -27.9785 58.1055 -29.9805 Z M 14.8438 -8.20312 L 14.8438 -62.0605 C 14.8438 -64.2578 15.2344 -66.1133 15.918 -67.5781 L 50.0977 -34.375 L 16.2109 -2.14844 C 15.332 -3.71094 14.8438 -5.76172 14.8438 -8.20312 Z M 112.793 -62.0605 L 112.793 -8.20312 C 112.793 -6.00586 112.402 -4.15039 111.621 -2.63672 L 78.3203 -34.375 L 111.914 -67.041 C 112.5 -65.625 112.793 -63.9648 112.793 -62.0605 Z M 25.0977 2.05078 C 22.0215 2.05078 19.5801 1.31836 17.8711 -0.146484 L 51.8555 -32.666 L 56.3477 -28.3203 C 59.082 -25.6836 61.8652 -24.7559 64.209 -24.7559 C 66.5527 -24.7559 69.3359 -25.6836 72.0703 -28.3203 L 76.5137 -32.666 L 110.107 -0.537109 C 108.35 1.17188 105.811 2.05078 102.539 2.05078 Z"/>
  </g>
  <g id="Black-S" transform="matrix(1 0 0 1 2877.35 696)">
   <path d="M 25 1.26953 L 87.1094 1.26953 C 96.6797 1.26953 102.344 -4.39453 102.344 -13.9648 L 102.344 -56.4453 C 102.344 -66.0156 96.6797 -71.6797 87.1094 -71.6797 L 25 -71.6797 C 15.4297 -71.6797 9.76562 -66.0156 9.76562 -56.4453 L 9.76562 -13.9648 C 9.76562 -4.39453 15.4297 1.26953 25 1.26953 Z M 52.9297 -36.6699 L 30.957 -58.3984 L 81.1523 -58.3984 L 59.1797 -36.6699 C 57.8125 -35.3516 57.0312 -34.8633 56.0547 -34.8633 C 55.0781 -34.8633 54.2969 -35.3516 52.9297 -36.6699 Z M 73.877 -36.2305 L 89.4531 -51.5625 L 89.4531 -20.6543 Z M 22.6562 -51.5625 L 38.1836 -36.1816 L 22.6562 -20.6543 Z M 56.0547 -23.7793 C 59.6191 -23.7793 62.8418 -25.293 65.918 -28.3691 L 66.2109 -28.6621 L 82.8613 -12.0117 L 29.248 -12.0117 L 45.8496 -28.6133 L 46.1426 -28.3691 C 49.2676 -25.293 52.4902 -23.7793 56.0547 -23.7793 Z"/>
  </g>
  <g id="Heavy-S" transform="matrix(1 0 0 1 2581.49 696)">
   <path d="M 24.3652 0.537109 L 86.377 0.537109 C 95.3125 0.537109 100.635 -4.73633 100.635 -14.0137 L 100.635 -56.3965 C 100.635 -65.6738 95.3125 -70.9473 86.0352 -70.9473 L 24.0234 -70.9473 C 15.0391 -70.9473 9.76562 -65.6738 9.76562 -56.3965 L 9.76562 -14.0137 C 9.76562 -4.73633 15.0879 0.537109 24.3652 0.537109 Z M 51.709 -35.9863 L 28.2227 -59.2285 L 82.1777 -59.2285 L 58.6914 -35.9863 C 57.2266 -34.5703 56.2988 -34.0332 55.1758 -34.0332 C 54.1016 -34.0332 53.1738 -34.5703 51.709 -35.9863 Z M 21.1914 -52.5391 L 37.9883 -35.9863 L 21.1914 -19.1895 Z M 72.4121 -35.9863 L 89.209 -52.5391 L 89.209 -19.1895 Z M 55.1758 -23.9746 C 58.5938 -23.9746 61.6699 -25.3906 64.6973 -28.418 L 65.4785 -29.1504 L 83.4473 -11.1816 L 26.9531 -11.1816 L 44.9219 -29.1504 L 45.6543 -28.418 C 48.7305 -25.3906 51.8066 -23.9746 55.1758 -23.9746 Z"/>
  </g>
  <g id="Bold-S" transform="matrix(1 0 0 1 2285.75 696)">
   <path d="M 23.6328 -0.292969 L 85.5469 -0.292969 C 93.7988 -0.292969 98.6816 -5.12695 98.6816 -14.0137 L 98.6816 -56.3965 C 98.6816 -65.2344 93.7988 -70.1172 84.8633 -70.1172 L 22.9004 -70.1172 C 14.6484 -70.1172 9.76562 -65.2832 9.76562 -56.3965 L 9.76562 -14.0137 C 9.76562 -5.12695 14.6973 -0.292969 23.6328 -0.292969 Z M 50.3906 -35.2051 L 25.1465 -60.1562 L 83.3496 -60.1562 L 58.1055 -35.2051 C 56.5918 -33.6914 55.5176 -33.1055 54.248 -33.1055 C 52.9785 -33.1055 51.9043 -33.6914 50.3906 -35.2051 Z M 19.5312 -53.6621 L 37.7441 -35.7422 L 19.5312 -17.5781 Z M 70.752 -35.7422 L 88.916 -53.6621 L 88.916 -17.5781 Z M 54.248 -24.1699 C 57.4707 -24.1699 60.4004 -25.5371 63.3301 -28.4668 L 64.5996 -29.7363 L 84.1309 -10.2539 L 24.3652 -10.2539 L 43.8477 -29.6875 L 45.1172 -28.4668 C 48.0957 -25.5371 51.0254 -24.1699 54.248 -24.1699 Z"/>
  </g>
  <g id="Semibold-S" transform="matrix(1 0 0 1 1989.7 696)">
   <path d="M 23.0957 -0.830078 L 84.9609 -0.830078 C 92.7734 -0.830078 97.3633 -5.41992 97.3633 -14.0625 L 97.3633 -56.3477 C 97.3633 -64.9902 92.7246 -69.5801 84.0332 -69.5801 L 22.168 -69.5801 C 14.3555 -69.5801 9.76562 -64.9902 9.76562 -56.3477 L 9.76562 -14.0625 C 9.76562 -5.41992 14.4043 -0.830078 23.0957 -0.830078 Z M 49.4629 -34.6191 L 23.0469 -60.791 C 23.2422 -60.791 23.2422 -60.791 23.2422 -60.791 L 84.1309 -60.791 L 57.7148 -34.6191 C 56.1523 -33.1055 54.9316 -32.4219 53.5645 -32.4219 C 52.1973 -32.4219 51.0254 -33.1055 49.4629 -34.6191 Z M 18.4082 -54.4434 L 37.5488 -35.5469 L 18.4082 -16.4551 Z M 69.5801 -35.5469 L 88.7207 -54.3945 L 88.7207 -16.4551 Z M 23.2422 -9.61914 C 23.0469 -9.61914 22.8027 -9.61914 22.6074 -9.66797 L 43.1152 -30.0781 L 44.7266 -28.4668 C 47.6562 -25.5859 50.4883 -24.3164 53.5645 -24.3164 C 56.6895 -24.3164 59.5215 -25.5859 62.4023 -28.4668 L 64.0625 -30.127 L 84.5215 -9.66797 C 84.3262 -9.61914 84.082 -9.61914 83.8867 -9.61914 Z"/>
  </g>
  <g id="Medium-S" transform="matrix(1 0 0 1 1693.48 696)">
   <path d="M 22.7051 -1.26953 L 84.5703 -1.26953 C 91.9922 -1.26953 96.3867 -5.61523 96.3867 -14.0625 L 96.3867 -56.3477 C 96.3867 -64.7949 91.9434 -69.1406 83.3984 -69.1406 L 21.582 -69.1406 C 14.1602 -69.1406 9.76562 -64.7949 9.76562 -56.3477 L 9.76562 -14.0625 C 9.76562 -5.61523 14.209 -1.26953 22.7051 -1.26953 Z M 48.7305 -34.2285 L 21.4844 -61.1816 C 21.875 -61.2305 22.2656 -61.2793 22.7051 -61.2793 L 83.4473 -61.2793 C 83.8867 -61.2793 84.2773 -61.2305 84.668 -61.1816 L 57.4219 -34.2285 C 55.8105 -32.6172 54.541 -31.9336 53.0762 -31.9336 C 51.6113 -31.9336 50.3418 -32.6172 48.7305 -34.2285 Z M 17.5781 -54.9805 L 37.4512 -35.4492 L 17.5781 -15.625 Z M 68.7012 -35.4492 L 88.5742 -54.9805 L 88.5742 -15.625 Z M 22.7051 -9.13086 C 22.2168 -9.13086 21.7773 -9.17969 21.3379 -9.22852 L 42.5293 -30.3711 L 44.4824 -28.5156 C 47.3145 -25.6836 50.0977 -24.4629 53.0762 -24.4629 C 56.0547 -24.4629 58.8379 -25.6836 61.6699 -28.5156 L 63.623 -30.4199 L 84.8145 -9.22852 C 84.375 -9.17969 83.9355 -9.13086 83.4473 -9.13086 Z"/>
  </g>
  <g id="Regular-S" transform="matrix(1 0 0 1 1397.43 696)">
   <path d="M 22.2168 -1.85547 L 83.9844 -1.85547 C 90.918 -1.85547 95.0684 -5.9082 95.0684 -14.1113 L 95.0684 -56.2988 C 95.0684 -64.502 90.8691 -68.5547 82.6172 -68.5547 L 20.8496 -68.5547 C 13.8672 -68.5547 9.76562 -64.502 9.76562 -56.2988 L 9.76562 -14.1113 C 9.76562 -5.9082 13.916 -1.85547 22.2168 -1.85547 Z M 47.8027 -33.6914 L 19.6289 -61.5723 C 20.3125 -61.7676 21.0938 -61.9141 21.9238 -61.9141 L 82.8613 -61.9141 C 83.7402 -61.9141 84.5215 -61.7676 85.2051 -61.5723 L 57.0312 -33.6914 C 55.3711 -32.0312 53.9551 -31.2988 52.4414 -31.2988 C 50.8789 -31.2988 49.4629 -32.0312 47.8027 -33.6914 Z M 16.4551 -55.7617 L 37.2559 -35.2539 L 16.4551 -14.502 Z M 67.5781 -35.2539 L 88.3789 -55.7129 L 88.3789 -14.5508 Z M 21.9238 -8.49609 C 21.1426 -8.49609 20.4102 -8.59375 19.7754 -8.78906 L 41.7969 -30.7617 L 44.0918 -28.5156 C 46.875 -25.7324 49.5605 -24.6094 52.4414 -24.6094 C 55.2734 -24.6094 57.959 -25.7324 60.7422 -28.5156 L 63.0371 -30.7617 L 85.0586 -8.78906 C 84.4238 -8.59375 83.6914 -8.49609 82.8613 -8.49609 Z"/>
  </g>
  <g id="Light-S" transform="matrix(1 0 0 1 1101.47 696)">
   <path d="M 21.3867 -2.53906 L 82.8613 -2.53906 C 89.6484 -2.53906 93.5547 -6.44531 93.5547 -14.0625 L 93.5547 -56.2988 C 93.5547 -63.916 89.6484 -67.8223 81.9336 -67.8223 L 20.459 -67.8223 C 13.6719 -67.8223 9.76562 -63.9648 9.76562 -56.2988 L 9.76562 -14.0625 C 9.76562 -6.39648 13.6719 -2.53906 21.3867 -2.53906 Z M 47.1191 -32.9102 L 17.6758 -61.8652 C 18.6523 -62.4023 19.8242 -62.6465 21.2402 -62.6465 L 82.0801 -62.6465 C 83.5449 -62.6465 84.7656 -62.3535 85.7422 -61.7676 L 56.4453 -32.9102 C 54.7852 -31.25 53.2715 -30.5664 51.7578 -30.5664 C 50.293 -30.5664 48.7305 -31.25 47.1191 -32.9102 Z M 14.9414 -14.1113 L 14.9414 -56.2988 C 14.9414 -56.7383 14.9414 -57.1289 14.9902 -57.4707 L 37.8906 -35.0586 L 15.0391 -12.6465 C 14.9902 -13.0859 14.9414 -13.5742 14.9414 -14.1113 Z M 88.3789 -56.2988 L 88.3789 -14.0625 C 88.3789 -13.623 88.3301 -13.1836 88.2812 -12.793 L 65.625 -35.0586 L 88.3301 -57.2754 C 88.3789 -56.9824 88.3789 -56.6406 88.3789 -56.2988 Z M 21.2402 -7.71484 C 19.9219 -7.71484 18.7988 -7.95898 17.9199 -8.39844 L 41.4551 -31.543 L 44.0918 -28.9551 C 46.6797 -26.3672 49.2188 -25.3418 51.7578 -25.3418 C 54.2969 -25.3418 56.8359 -26.3672 59.4238 -28.9551 L 62.0605 -31.543 L 85.5469 -8.49609 C 84.6191 -7.95898 83.4473 -7.71484 82.0801 -7.71484 Z"/>
  </g>
  <g id="Thin-S" transform="matrix(1 0 0 1 805.739 696)">
   <path d="M 20.3125 -3.51562 L 81.3965 -3.51562 C 87.9883 -3.51562 91.6016 -7.17773 91.6016 -14.0137 L 91.6016 -56.3477 C 91.6016 -63.1836 87.9883 -66.8457 81.0547 -66.8457 L 19.9707 -66.8457 C 13.3789 -66.8457 9.76562 -63.2324 9.76562 -56.3477 L 9.76562 -14.0137 C 9.76562 -7.08008 13.3789 -3.51562 20.3125 -3.51562 Z M 46.1426 -31.8359 L 15.2344 -62.1094 C 16.4551 -63.1348 18.1641 -63.623 20.3125 -63.623 L 81.0547 -63.623 C 83.3008 -63.623 85.0586 -63.0371 86.3281 -61.9141 L 55.6152 -31.8359 C 54.0039 -30.2246 52.2949 -29.5898 50.8789 -29.5898 C 49.4629 -29.5898 47.7539 -30.2246 46.1426 -31.8359 Z M 12.9883 -14.0625 L 12.9883 -56.2988 C 12.9883 -57.4707 13.1348 -58.4961 13.4277 -59.4238 L 38.7207 -34.7656 L 13.5742 -10.5469 C 13.1836 -11.5234 12.9883 -12.6953 12.9883 -14.0625 Z M 88.3789 -56.25 L 88.3789 -14.0625 C 88.3789 -12.8418 88.2324 -11.7676 87.8906 -10.8398 L 63.0859 -34.7656 L 87.9883 -59.082 C 88.2324 -58.252 88.3789 -57.3242 88.3789 -56.25 Z M 20.3125 -6.68945 C 18.3105 -6.68945 16.748 -7.12891 15.5273 -7.95898 L 40.9668 -32.5195 L 44.1406 -29.4434 C 46.4355 -27.1973 48.7793 -26.3672 50.8789 -26.3672 C 53.0273 -26.3672 55.3223 -27.1973 57.666 -29.4434 L 60.791 -32.5195 L 86.0352 -8.20312 C 84.8145 -7.22656 83.1055 -6.68945 81.0547 -6.68945 Z"/>
  </g>
  <g id="Ultralight-S" transform="matrix(1 0 0 1 509.54 696)">
   <path d="M 19.7754 -4.00391 L 80.6641 -4.00391 C 84.2773 -4.00391 86.9629 -5.12695 88.623 -7.27539 L 88.6719 -7.27539 C 88.7695 -7.37305 88.8672 -7.51953 88.916 -7.66602 C 89.9902 -9.27734 90.5762 -11.377 90.5762 -13.9648 L 90.5762 -56.3477 C 90.5762 -62.793 87.1094 -66.3086 80.5664 -66.3086 L 19.6777 -66.3086 C 13.2324 -66.3086 9.76562 -62.8906 9.76562 -56.3477 L 9.76562 -13.9648 C 9.76562 -7.42188 13.2324 -4.00391 19.7754 -4.00391 Z M 45.6543 -31.2988 L 14.0137 -62.207 C 15.332 -63.4766 17.2852 -64.1602 19.8242 -64.1602 L 80.5176 -64.1602 C 83.1543 -64.1602 85.2051 -63.3789 86.5234 -61.9141 L 55.2246 -31.2988 C 53.6133 -29.6875 51.8066 -29.0527 50.4395 -29.0527 C 49.0723 -29.0527 47.2168 -29.6875 45.6543 -31.2988 Z M 11.9629 -14.0625 L 11.9629 -56.25 C 11.9629 -57.8613 12.207 -59.1797 12.6953 -60.3027 L 39.1113 -34.6191 L 12.8906 -9.57031 C 12.2559 -10.7422 11.9629 -12.2559 11.9629 -14.0625 Z M 88.3789 -56.25 L 88.3789 -14.0625 C 88.3789 -12.4512 88.0859 -11.084 87.5488 -9.96094 L 61.7676 -34.6191 L 87.7441 -59.9121 C 88.1836 -58.8867 88.3789 -57.666 88.3789 -56.25 Z M 19.8242 -6.15234 C 17.4805 -6.15234 15.6738 -6.73828 14.3555 -7.8125 L 40.7227 -33.0566 L 44.1406 -29.7363 C 46.3379 -27.6367 48.5352 -26.9043 50.4395 -26.9043 C 52.3438 -26.9043 54.5898 -27.6367 56.7383 -29.7363 L 60.1562 -33.0566 L 86.2305 -8.10547 C 84.8633 -6.83594 82.959 -6.15234 80.5176 -6.15234 Z"/>
  </g>
 </g>
</svg>
