<?xml version="1.0" encoding="UTF-8"?>
<!--Generator: Apple Native CoreSVG 123-->
<!DOCTYPE svg
PUBLIC "-//W3C//DTD SVG 1.1//EN"
       "http://www.w3.org/Graphics/SVG/1.1/DTD/svg11.dtd">
<svg version="1.1" xmlns="http://www.w3.org/2000/svg" xmlns:xlink="http://www.w3.org/1999/xlink" width="3300" height="2200">
 <!--glyph: "uni1004A4.medium", point size: 100.000000, font version: "Version 15.0d7e11", template writer version: "5"-->
 <g id="Notes">
  <rect height="2200" id="artboard" style="fill:white;opacity:1" width="3300" x="0" y="0"/>
  <line id="" style="fill:none;stroke:black;opacity:1;stroke-width:0.5;" x1="263" x2="3036" y1="292" y2="292"/>
  <text style="stroke:none;fill:black;font-family:-apple-system,&quot;SF Pro Display&quot;,&quot;SF Pro Text&quot;,Helvetica,sans-serif;font-weight:bold;" transform="matrix(1 0 0 1 263 322)">Weight/Scale Variations</text>
  <text style="stroke:none;fill:black;font-family:-apple-system,&quot;SF Pro Display&quot;,&quot;SF Pro Text&quot;,Helvetica,sans-serif;text-anchor:middle;" transform="matrix(1 0 0 1 559.711 322)">Ultralight</text>
  <text style="stroke:none;fill:black;font-family:-apple-system,&quot;SF Pro Display&quot;,&quot;SF Pro Text&quot;,Helvetica,sans-serif;text-anchor:middle;" transform="matrix(1 0 0 1 856.422 322)">Thin</text>
  <text style="stroke:none;fill:black;font-family:-apple-system,&quot;SF Pro Display&quot;,&quot;SF Pro Text&quot;,Helvetica,sans-serif;text-anchor:middle;" transform="matrix(1 0 0 1 1153.13 322)">Light</text>
  <text style="stroke:none;fill:black;font-family:-apple-system,&quot;SF Pro Display&quot;,&quot;SF Pro Text&quot;,Helvetica,sans-serif;text-anchor:middle;" transform="matrix(1 0 0 1 1449.84 322)">Regular</text>
  <text style="stroke:none;fill:black;font-family:-apple-system,&quot;SF Pro Display&quot;,&quot;SF Pro Text&quot;,Helvetica,sans-serif;text-anchor:middle;" transform="matrix(1 0 0 1 1746.56 322)">Medium</text>
  <text style="stroke:none;fill:black;font-family:-apple-system,&quot;SF Pro Display&quot;,&quot;SF Pro Text&quot;,Helvetica,sans-serif;text-anchor:middle;" transform="matrix(1 0 0 1 2043.27 322)">Semibold</text>
  <text style="stroke:none;fill:black;font-family:-apple-system,&quot;SF Pro Display&quot;,&quot;SF Pro Text&quot;,Helvetica,sans-serif;text-anchor:middle;" transform="matrix(1 0 0 1 2339.98 322)">Bold</text>
  <text style="stroke:none;fill:black;font-family:-apple-system,&quot;SF Pro Display&quot;,&quot;SF Pro Text&quot;,Helvetica,sans-serif;text-anchor:middle;" transform="matrix(1 0 0 1 2636.69 322)">Heavy</text>
  <text style="stroke:none;fill:black;font-family:-apple-system,&quot;SF Pro Display&quot;,&quot;SF Pro Text&quot;,Helvetica,sans-serif;text-anchor:middle;" transform="matrix(1 0 0 1 2933.4 322)">Black</text>
  <line id="" style="fill:none;stroke:black;opacity:1;stroke-width:0.5;" x1="263" x2="3036" y1="1903" y2="1903"/>
  <g id="" transform="matrix(1 0 0 1 263 1933)">
   <path d="M 9.24805 0.830078 C 13.5547 0.830078 17.1387 -2.74414 17.1387 -7.05078 C 17.1387 -11.3574 13.5449 -14.9316 9.23828 -14.9316 C 4.94141 -14.9316 1.36719 -11.3574 1.36719 -7.05078 C 1.36719 -2.74414 4.95117 0.830078 9.24805 0.830078 Z M 9.24805 -0.654297 C 5.70312 -0.654297 2.87109 -3.49609 2.87109 -7.05078 C 2.87109 -10.6055 5.69336 -13.4473 9.23828 -13.4473 C 12.793 -13.4473 15.6348 -10.6055 15.6445 -7.05078 C 15.6543 -3.49609 12.8027 -0.654297 9.24805 -0.654297 Z M 9.22852 -3.42773 C 9.69727 -3.42773 9.9707 -3.74023 9.9707 -4.25781 L 9.9707 -6.31836 L 12.1973 -6.31836 C 12.6953 -6.31836 13.0371 -6.57227 13.0371 -7.04102 C 13.0371 -7.51953 12.7148 -7.7832 12.1973 -7.7832 L 9.9707 -7.7832 L 9.9707 -10.0098 C 9.9707 -10.5273 9.69727 -10.8496 9.22852 -10.8496 C 8.75977 -10.8496 8.50586 -10.5078 8.50586 -10.0098 L 8.50586 -7.7832 L 6.29883 -7.7832 C 5.78125 -7.7832 5.44922 -7.51953 5.44922 -7.04102 C 5.44922 -6.57227 5.80078 -6.31836 6.29883 -6.31836 L 8.50586 -6.31836 L 8.50586 -4.25781 C 8.50586 -3.75977 8.75977 -3.42773 9.22852 -3.42773 Z"/>
  </g>
  <g id="" transform="matrix(1 0 0 1 281.506 1933)">
   <path d="M 11.709 2.91016 C 17.1582 2.91016 21.6699 -1.60156 21.6699 -7.05078 C 21.6699 -12.4902 17.1484 -17.0117 11.6992 -17.0117 C 6.25977 -17.0117 1.74805 -12.4902 1.74805 -7.05078 C 1.74805 -1.60156 6.26953 2.91016 11.709 2.91016 Z M 11.709 1.25 C 7.09961 1.25 3.41797 -2.44141 3.41797 -7.05078 C 3.41797 -11.6504 7.08984 -15.3516 11.6992 -15.3516 C 16.3086 -15.3516 20 -11.6504 20.0098 -7.05078 C 20.0195 -2.44141 16.3184 1.25 11.709 1.25 Z M 11.6895 -2.41211 C 12.207 -2.41211 12.5195 -2.77344 12.5195 -3.33984 L 12.5195 -6.23047 L 15.5762 -6.23047 C 16.123 -6.23047 16.5039 -6.51367 16.5039 -7.03125 C 16.5039 -7.55859 16.1426 -7.86133 15.5762 -7.86133 L 12.5195 -7.86133 L 12.5195 -10.9277 C 12.5195 -11.5039 12.207 -11.8555 11.6895 -11.8555 C 11.1719 -11.8555 10.8789 -11.4844 10.8789 -10.9277 L 10.8789 -7.86133 L 7.83203 -7.86133 C 7.26562 -7.86133 6.89453 -7.55859 6.89453 -7.03125 C 6.89453 -6.51367 7.28516 -6.23047 7.83203 -6.23047 L 10.8789 -6.23047 L 10.8789 -3.33984 C 10.8789 -2.79297 11.1719 -2.41211 11.6895 -2.41211 Z"/>
  </g>
  <g id="" transform="matrix(1 0 0 1 304.924 1933)">
   <path d="M 14.9707 5.67383 C 21.9336 5.67383 27.6953 -0.078125 27.6953 -7.04102 C 27.6953 -14.0039 21.9238 -19.7559 14.9609 -19.7559 C 8.00781 -19.7559 2.25586 -14.0039 2.25586 -7.04102 C 2.25586 -0.078125 8.01758 5.67383 14.9707 5.67383 Z M 14.9707 3.85742 C 8.93555 3.85742 4.08203 -1.00586 4.08203 -7.04102 C 4.08203 -13.0762 8.92578 -17.9395 14.9609 -17.9395 C 21.0059 -17.9395 25.8594 -13.0762 25.8691 -7.04102 C 25.8789 -1.00586 21.0156 3.85742 14.9707 3.85742 Z M 14.9512 -1.06445 C 15.5176 -1.06445 15.8691 -1.45508 15.8691 -2.06055 L 15.8691 -6.13281 L 20.1074 -6.13281 C 20.6934 -6.13281 21.1133 -6.46484 21.1133 -7.02148 C 21.1133 -7.59766 20.7227 -7.93945 20.1074 -7.93945 L 15.8691 -7.93945 L 15.8691 -12.1875 C 15.8691 -12.8027 15.5176 -13.1934 14.9512 -13.1934 C 14.3848 -13.1934 14.0625 -12.7832 14.0625 -12.1875 L 14.0625 -7.93945 L 9.83398 -7.93945 C 9.21875 -7.93945 8.80859 -7.59766 8.80859 -7.02148 C 8.80859 -6.46484 9.23828 -6.13281 9.83398 -6.13281 L 14.0625 -6.13281 L 14.0625 -2.06055 C 14.0625 -1.47461 14.3848 -1.06445 14.9512 -1.06445 Z"/>
  </g>
  <text style="stroke:none;fill:black;font-family:-apple-system,&quot;SF Pro Display&quot;,&quot;SF Pro Text&quot;,Helvetica,sans-serif;font-weight:bold;" transform="matrix(1 0 0 1 263 1953)">Design Variations</text>
  <text style="stroke:none;fill:black;font-family:-apple-system,&quot;SF Pro Display&quot;,&quot;SF Pro Text&quot;,Helvetica,sans-serif;" transform="matrix(1 0 0 1 263 1971)">Symbols are supported in up to nine weights and three scales.</text>
  <text style="stroke:none;fill:black;font-family:-apple-system,&quot;SF Pro Display&quot;,&quot;SF Pro Text&quot;,Helvetica,sans-serif;" transform="matrix(1 0 0 1 263 1989)">For optimal layout with text and other symbols, vertically align</text>
  <text style="stroke:none;fill:black;font-family:-apple-system,&quot;SF Pro Display&quot;,&quot;SF Pro Text&quot;,Helvetica,sans-serif;" transform="matrix(1 0 0 1 263 2007)">symbols with the adjacent text.</text>
  <rect height="14" id="" style="fill:#00AEEF;stroke:none;opacity:0.4;" width="3" x="776" y="1919"/>
  <g id="" transform="matrix(1 0 0 1 779 1933)">
   <path d="M 10.5273 0 L 12.373 0 L 7.17773 -14.0918 L 5.43945 -14.0918 L 0.244141 0 L 2.08984 0 L 3.50586 -4.0332 L 9.11133 -4.0332 Z M 6.2793 -11.9531 L 6.33789 -11.9531 L 8.59375 -5.52734 L 4.02344 -5.52734 Z"/>
  </g>
  <rect height="14" id="" style="fill:#00AEEF;stroke:none;opacity:0.4;" width="3" x="791.617" y="1919"/>
  <text style="stroke:none;fill:black;font-family:-apple-system,&quot;SF Pro Display&quot;,&quot;SF Pro Text&quot;,Helvetica,sans-serif;font-weight:bold;" transform="matrix(1 0 0 1 776 1953)">Margins</text>
  <text style="stroke:none;fill:black;font-family:-apple-system,&quot;SF Pro Display&quot;,&quot;SF Pro Text&quot;,Helvetica,sans-serif;" transform="matrix(1 0 0 1 776 1971)">Leading and trailing margins on the left and right side of each symbol</text>
  <text style="stroke:none;fill:black;font-family:-apple-system,&quot;SF Pro Display&quot;,&quot;SF Pro Text&quot;,Helvetica,sans-serif;" transform="matrix(1 0 0 1 776 1989)">can be adjusted by modifying the width of the blue rectangles.</text>
  <text style="stroke:none;fill:black;font-family:-apple-system,&quot;SF Pro Display&quot;,&quot;SF Pro Text&quot;,Helvetica,sans-serif;" transform="matrix(1 0 0 1 776 2007)">Modifications are automatically applied proportionally to all</text>
  <text style="stroke:none;fill:black;font-family:-apple-system,&quot;SF Pro Display&quot;,&quot;SF Pro Text&quot;,Helvetica,sans-serif;" transform="matrix(1 0 0 1 776 2025)">scales and weights.</text>
  <g id="" transform="matrix(1 0 0 1 1289 1933)">
   <path d="M 2.83203 3.11523 L 4.375 4.6582 C 5.22461 5.48828 6.19141 5.41992 7.06055 4.46289 L 17.2754 -6.66016 C 17.7051 -6.36719 18.0957 -6.37695 18.5645 -6.47461 L 19.6094 -6.68945 L 20.3027 -5.99609 L 20.2539 -5.47852 C 20.1855 -4.95117 20.3516 -4.53125 20.8496 -4.0332 L 21.6602 -3.22266 C 22.168 -2.71484 22.8223 -2.68555 23.3008 -3.16406 L 26.5527 -6.41602 C 27.0312 -6.89453 27.0117 -7.54883 26.5039 -8.05664 L 25.6836 -8.87695 C 25.1855 -9.375 24.7754 -9.55078 24.2383 -9.47266 L 23.7109 -9.41406 L 23.0566 -10.0781 L 23.3398 -11.2207 C 23.4863 -11.7871 23.3398 -12.2559 22.7148 -12.8613 L 20.3027 -15.2539 C 16.7578 -18.7793 12.2266 -18.6719 9.11133 -15.5371 C 8.69141 -15.1074 8.64258 -14.5215 8.91602 -14.0918 C 9.15039 -13.7207 9.62891 -13.4961 10.2734 -13.6621 C 11.7871 -14.043 13.3008 -13.9258 14.7852 -12.9199 L 14.1602 -11.3379 C 13.9258 -10.752 13.9453 -10.2734 14.1797 -9.83398 L 3.01758 0.439453 C 2.08008 1.30859 1.97266 2.25586 2.83203 3.11523 Z M 10.6738 -15.1465 C 13.3398 -17.1387 16.6504 -16.8262 19.0527 -14.4141 L 21.6797 -11.8066 C 21.9141 -11.5723 21.9434 -11.3867 21.8848 -11.0938 L 21.5039 -9.53125 L 23.0762 -7.95898 L 24.043 -8.04688 C 24.3262 -8.07617 24.4141 -8.05664 24.6387 -7.83203 L 25.2637 -7.20703 L 22.5098 -4.46289 L 21.8848 -5.07812 C 21.6602 -5.30273 21.6406 -5.40039 21.6699 -5.68359 L 21.7578 -6.64062 L 20.1953 -8.20312 L 18.5742 -7.89062 C 18.291 -7.83203 18.1445 -7.83203 17.9102 -8.07617 L 15.7324 -10.2539 C 15.5078 -10.4883 15.4785 -10.625 15.6055 -10.9473 L 16.5527 -13.2227 C 14.9512 -14.7559 12.8418 -15.6055 10.8008 -14.9512 C 10.7129 -14.9219 10.6445 -14.9414 10.6152 -14.9805 C 10.5859 -15.0293 10.5859 -15.0781 10.6738 -15.1465 Z M 4.10156 2.41211 C 3.61328 1.91406 3.78906 1.61133 4.12109 1.30859 L 15.0781 -8.80859 L 16.3086 -7.57812 L 6.15234 3.34961 C 5.84961 3.68164 5.46875 3.7793 5.06836 3.37891 Z"/>
  </g>
  <text style="stroke:none;fill:black;font-family:-apple-system,&quot;SF Pro Display&quot;,&quot;SF Pro Text&quot;,Helvetica,sans-serif;font-weight:bold;" transform="matrix(1 0 0 1 1289 1953)">Exporting</text>
  <text style="stroke:none;fill:black;font-family:-apple-system,&quot;SF Pro Display&quot;,&quot;SF Pro Text&quot;,Helvetica,sans-serif;" transform="matrix(1 0 0 1 1289 1971)">Symbols should be outlined when exporting to ensure the</text>
  <text style="stroke:none;fill:black;font-family:-apple-system,&quot;SF Pro Display&quot;,&quot;SF Pro Text&quot;,Helvetica,sans-serif;" transform="matrix(1 0 0 1 1289 1989)">design is preserved when submitting to Xcode.</text>
  <text id="template-version" style="stroke:none;fill:black;font-family:-apple-system,&quot;SF Pro Display&quot;,&quot;SF Pro Text&quot;,Helvetica,sans-serif;text-anchor:end;" transform="matrix(1 0 0 1 3036 1933)">Template v.1.0</text>
  <text style="stroke:none;fill:black;font-family:-apple-system,&quot;SF Pro Display&quot;,&quot;SF Pro Text&quot;,Helvetica,sans-serif;text-anchor:end;" transform="matrix(1 0 0 1 3036 1951)">Generated from bubble.left.and.bubble.right</text>
  <text style="stroke:none;fill:black;font-family:-apple-system,&quot;SF Pro Display&quot;,&quot;SF Pro Text&quot;,Helvetica,sans-serif;text-anchor:end;" transform="matrix(1 0 0 1 3036 1969)">Typeset at 100 points</text>
  <text style="stroke:none;fill:black;font-family:-apple-system,&quot;SF Pro Display&quot;,&quot;SF Pro Text&quot;,Helvetica,sans-serif;" transform="matrix(1 0 0 1 263 726)">Small</text>
  <text style="stroke:none;fill:black;font-family:-apple-system,&quot;SF Pro Display&quot;,&quot;SF Pro Text&quot;,Helvetica,sans-serif;" transform="matrix(1 0 0 1 263 1156)">Medium</text>
  <text style="stroke:none;fill:black;font-family:-apple-system,&quot;SF Pro Display&quot;,&quot;SF Pro Text&quot;,Helvetica,sans-serif;" transform="matrix(1 0 0 1 263 1586)">Large</text>
 </g>
 <g id="Guides">
  <g id="H-reference" style="fill:#27AAE1;stroke:none;" transform="matrix(1 0 0 1 339 696)">
   <path d="M 54.9316 0 L 57.666 0 L 30.5664 -70.459 L 28.0762 -70.459 L 0.976562 0 L 3.66211 0 L 12.9395 -24.4629 L 45.7031 -24.4629 Z M 29.1992 -67.0898 L 29.4434 -67.0898 L 44.8242 -26.709 L 13.8184 -26.709 Z"/>
  </g>
  <line id="Baseline-S" style="fill:none;stroke:#27AAE1;opacity:1;stroke-width:0.577;" x1="263" x2="3036" y1="696" y2="696"/>
  <line id="Capline-S" style="fill:none;stroke:#27AAE1;opacity:1;stroke-width:0.577;" x1="263" x2="3036" y1="625.541" y2="625.541"/>
  <g id="H-reference" style="fill:#27AAE1;stroke:none;" transform="matrix(1 0 0 1 339 1126)">
   <path d="M 54.9316 0 L 57.666 0 L 30.5664 -70.459 L 28.0762 -70.459 L 0.976562 0 L 3.66211 0 L 12.9395 -24.4629 L 45.7031 -24.4629 Z M 29.1992 -67.0898 L 29.4434 -67.0898 L 44.8242 -26.709 L 13.8184 -26.709 Z"/>
  </g>
  <line id="Baseline-M" style="fill:none;stroke:#27AAE1;opacity:1;stroke-width:0.577;" x1="263" x2="3036" y1="1126" y2="1126"/>
  <line id="Capline-M" style="fill:none;stroke:#27AAE1;opacity:1;stroke-width:0.577;" x1="263" x2="3036" y1="1055.54" y2="1055.54"/>
  <g id="H-reference" style="fill:#27AAE1;stroke:none;" transform="matrix(1 0 0 1 339 1556)">
   <path d="M 54.9316 0 L 57.666 0 L 30.5664 -70.459 L 28.0762 -70.459 L 0.976562 0 L 3.66211 0 L 12.9395 -24.4629 L 45.7031 -24.4629 Z M 29.1992 -67.0898 L 29.4434 -67.0898 L 44.8242 -26.709 L 13.8184 -26.709 Z"/>
  </g>
  <line id="Baseline-L" style="fill:none;stroke:#27AAE1;opacity:1;stroke-width:0.577;" x1="263" x2="3036" y1="1556" y2="1556"/>
  <line id="Capline-L" style="fill:none;stroke:#27AAE1;opacity:1;stroke-width:0.577;" x1="263" x2="3036" y1="1485.54" y2="1485.54"/>
  <rect height="119.336" id="left-margin" style="fill:#00AEEF;stroke:none;opacity:0.4;" width="12.4512" x="1367.28" y="1030.79"/>
  <rect height="119.336" id="right-margin" style="fill:#00AEEF;stroke:none;opacity:0.4;" width="12.4512" x="1519.96" y="1030.79"/>
 </g>
 <g id="Symbols">
  <g id="Black-L" transform="matrix(1 0 0 1 2816.92 1556)">
   <path d="M 62.6953 37.8906 C 67.8711 37.8906 72.1191 35.9863 78.5156 30.5176 L 95.8008 15.5762 C 100.781 19.7266 108.008 21.7773 117.383 21.7773 L 137.158 21.7773 L 158.154 39.7949 C 164.453 45.2637 168.652 47.3145 173.779 47.3145 C 181.201 47.3145 185.791 42.334 185.791 34.082 L 185.791 21.7773 L 189.111 21.7773 C 206.885 21.7773 216.895 12.5 216.895 -5.0293 L 216.895 -46.7285 C 216.895 -64.9414 206.25 -75.293 187.256 -75.293 L 173.291 -75.293 L 173.291 -76.9531 C 173.291 -95.166 162.891 -105.518 143.652 -105.518 L 45.7031 -105.518 C 26.709 -105.518 16.0645 -95.166 16.0645 -76.9531 L 16.0645 -14.7949 C 16.0645 2.68555 26.0742 12.0117 43.8477 12.0117 L 50.6348 12.0117 L 50.6348 24.7559 C 50.6348 32.959 55.2246 37.8906 62.6953 37.8906 Z M 67.5293 0 C 67.5293 -5.51758 64.6973 -7.42188 60.2051 -7.42188 L 49.9512 -7.42188 C 41.3574 -7.42188 36.3281 -12.5977 36.3281 -20.8984 L 36.3281 -72.5586 C 36.3281 -81.4941 41.3574 -86.084 49.9512 -86.084 L 139.404 -86.084 C 147.07 -86.084 151.904 -82.4219 152.881 -75.293 L 117.383 -75.293 C 98.1445 -75.293 87.7441 -64.9414 87.7441 -46.7285 L 87.7441 -5.0293 C 87.7441 -4.3457 87.7441 -3.75977 87.793 -3.125 L 67.5293 16.2598 Z M 168.945 26.2207 L 150.391 8.69141 C 145.508 4.05273 143.506 2.92969 137.402 2.92969 L 121.045 2.92969 C 112.451 2.92969 107.373 -2.19727 107.373 -10.5469 L 107.373 -42.9199 C 107.373 -51.8555 112.451 -56.4453 121.045 -56.4453 L 183.594 -56.4453 C 192.188 -56.4453 197.217 -51.8555 197.217 -42.9199 L 197.217 -10.5469 C 197.217 -2.19727 192.188 2.92969 183.594 2.92969 L 176.27 2.92969 C 171.729 2.92969 168.945 4.88281 168.945 10.3516 Z"/>
  </g>
  <g id="Heavy-L" transform="matrix(1 0 0 1 2523.16 1556)">
   <path d="M 61.2305 36.4746 C 65.8203 36.4746 69.5801 34.8145 75.2441 29.9316 L 93.3105 14.0625 C 98.0957 18.5547 105.273 20.8008 114.551 20.8008 L 135.596 20.8008 L 156.494 38.7207 C 162.061 43.5059 165.674 45.4102 170.215 45.4102 C 176.758 45.4102 180.762 41.0156 180.762 33.7402 L 180.762 20.8008 L 184.033 20.8008 C 201.123 20.8008 210.986 11.6211 210.986 -5.37109 L 210.986 -46.3379 C 210.986 -63.8672 200.635 -73.8281 182.617 -73.8281 L 169.434 -73.8281 L 169.434 -76.6113 C 169.434 -94.3848 159.229 -104.492 140.625 -104.492 L 44.873 -104.492 C 26.5625 -104.492 16.0645 -94.3848 16.0645 -76.6113 L 16.0645 -15.5762 C 16.0645 1.66016 26.0742 10.9863 43.4082 10.9863 L 50.6348 10.9863 L 50.6348 24.9023 C 50.6348 32.1777 54.5898 36.4746 61.2305 36.4746 Z M 65.4297 0.976562 C 65.4297 -3.95508 62.8418 -5.76172 58.8379 -5.76172 L 48.2422 -5.76172 C 38.9648 -5.76172 33.5938 -11.1328 33.5938 -20.3613 L 33.5938 -73.1445 C 33.5938 -82.7637 38.9648 -87.7441 48.2422 -87.7441 L 137.207 -87.7441 C 146.289 -87.7441 151.66 -83.0078 151.904 -73.8281 L 114.551 -73.8281 C 96.2402 -73.8281 86.1816 -63.8672 86.1816 -46.3379 L 86.1816 -5.37109 C 86.1816 -4.24805 86.2305 -3.17383 86.2793 -2.14844 L 65.4297 17.7246 Z M 165.967 27.002 L 147.168 9.52148 C 142.92 5.46875 141.064 4.49219 135.693 4.49219 L 117.48 4.49219 C 108.496 4.49219 103.223 -0.732422 103.223 -9.7168 L 103.223 -43.3594 C 103.223 -52.7344 108.496 -57.5195 117.48 -57.5195 L 179.688 -57.5195 C 188.672 -57.5195 193.945 -52.7344 193.945 -43.3594 L 193.945 -9.66797 C 193.945 -0.78125 188.672 4.49219 179.688 4.49219 L 172.51 4.49219 C 168.555 4.49219 165.967 6.25 165.967 11.1816 Z"/>
  </g>
  <g id="Bold-L" transform="matrix(1 0 0 1 2229.72 1556)">
   <path d="M 59.5703 34.9609 C 63.5742 34.9609 66.6992 33.4961 71.582 29.2969 L 90.5762 12.3535 C 95.166 17.1875 102.197 19.6777 111.426 19.6777 L 133.838 19.6777 L 154.639 37.5 C 159.375 41.5527 162.354 43.3105 166.211 43.3105 C 171.777 43.3105 175.098 39.502 175.098 33.3984 L 175.098 19.6777 L 178.369 19.6777 C 194.678 19.6777 204.443 10.6445 204.443 -5.76172 L 204.443 -45.8984 C 204.443 -62.6465 194.336 -72.2168 177.441 -72.2168 L 165.088 -72.2168 L 165.088 -76.1719 C 165.088 -93.5059 155.078 -103.369 137.256 -103.369 L 43.8965 -103.369 C 26.4648 -103.369 16.0645 -93.5059 16.0645 -76.1719 L 16.0645 -16.4551 C 16.0645 0.537109 26.123 9.86328 42.9688 9.86328 L 50.5859 9.86328 L 50.5859 25.0488 C 50.5859 31.25 53.9062 34.9609 59.5703 34.9609 Z M 63.0859 2.05078 C 63.0859 -2.19727 60.7422 -3.90625 57.3242 -3.90625 L 46.3867 -3.90625 C 36.3281 -3.90625 30.5176 -9.57031 30.5176 -19.7266 L 30.5176 -73.7793 C 30.5176 -84.2285 36.3281 -89.6484 46.3867 -89.6484 L 134.766 -89.6484 C 144.824 -89.6484 150.635 -84.2285 150.635 -73.7793 L 150.635 -72.2168 L 111.426 -72.2168 C 94.1406 -72.2168 84.4238 -62.6465 84.4238 -45.8984 L 84.4238 -5.76172 C 84.4238 -4.10156 84.5215 -2.58789 84.7168 -1.07422 L 63.0859 19.3848 Z M 162.646 27.8809 L 143.555 10.4004 C 140.039 7.08008 138.33 6.20117 133.789 6.20117 L 113.525 6.20117 C 104.102 6.20117 98.584 0.878906 98.584 -8.74023 L 98.584 -43.7988 C 98.584 -53.6621 104.102 -58.7402 113.525 -58.7402 L 175.293 -58.7402 C 184.766 -58.7402 190.283 -53.6621 190.283 -43.7988 L 190.283 -8.74023 C 190.283 0.830078 184.766 6.20117 175.293 6.20117 L 168.359 6.20117 C 164.941 6.20117 162.646 7.86133 162.646 12.0605 Z"/>
  </g>
  <g id="Semibold-L" transform="matrix(1 0 0 1 1935.28 1556)">
   <path d="M 58.4473 33.8867 C 62.0117 33.8867 64.7461 32.6172 69.043 28.8574 L 88.7207 11.1816 C 93.1641 16.2598 100.098 18.8965 109.229 18.8965 L 132.617 18.8965 L 153.369 36.6699 C 157.52 40.2344 160.059 41.8457 163.477 41.8457 C 168.311 41.8457 171.191 38.4766 171.191 33.1055 L 171.191 18.8965 L 174.463 18.8965 C 190.186 18.8965 199.902 9.96094 199.902 -6.05469 L 199.902 -45.6055 C 199.902 -61.8164 189.99 -71.1426 173.877 -71.1426 L 162.109 -71.1426 L 162.109 -75.9277 C 162.109 -92.9199 152.246 -102.637 134.912 -102.637 L 43.2617 -102.637 C 26.3672 -102.637 16.0645 -92.9199 16.0645 -75.9277 L 16.0645 -17.041 C 16.0645 -0.292969 26.1719 9.08203 42.6758 9.08203 L 50.5371 9.08203 L 50.5371 25.1465 C 50.5371 30.6152 53.4668 33.8867 58.4473 33.8867 Z M 61.4746 2.83203 C 61.4746 -0.976562 59.3262 -2.63672 56.25 -2.63672 L 45.0684 -2.63672 C 34.4727 -2.63672 28.418 -8.49609 28.418 -19.2871 L 28.418 -74.2188 C 28.418 -85.2051 34.4727 -90.918 45.0684 -90.918 L 133.105 -90.918 C 143.701 -90.918 149.756 -85.2051 149.756 -74.2188 L 149.756 -71.1426 L 109.229 -71.1426 C 92.6758 -71.1426 83.2031 -61.8164 83.2031 -45.6055 L 83.2031 -6.00586 C 83.2031 -4.00391 83.3496 -2.14844 83.6426 -0.390625 L 61.4746 20.5078 Z M 160.352 28.4668 L 141.064 10.9863 C 137.988 8.1543 136.426 7.37305 132.471 7.37305 L 110.84 7.37305 C 101.025 7.37305 95.3613 2.00195 95.3613 -8.05664 L 95.3613 -44.1406 C 95.3613 -54.2969 101.025 -59.6191 110.84 -59.6191 L 172.314 -59.6191 C 182.08 -59.6191 187.744 -54.2969 187.744 -44.1406 L 187.744 -8.05664 C 187.744 1.95312 182.08 7.37305 172.314 7.37305 L 165.479 7.37305 C 162.5 7.37305 160.352 8.93555 160.352 12.6953 Z"/>
  </g>
  <g id="Medium-L" transform="matrix(1 0 0 1 1640.31 1556)">
   <path d="M 57.5684 33.1055 C 60.8398 33.1055 63.2324 31.9336 67.1387 28.5156 L 87.3535 10.2539 C 91.6504 15.5273 98.5352 18.3105 107.617 18.3105 L 131.689 18.3105 L 152.393 35.9863 C 156.104 39.209 158.35 40.7715 161.377 40.7715 C 165.723 40.7715 168.262 37.6953 168.262 32.9102 L 168.262 18.3105 L 171.533 18.3105 C 186.816 18.3105 196.436 9.42383 196.436 -6.25 L 196.436 -45.3613 C 196.436 -61.1816 186.719 -70.2637 171.191 -70.2637 L 159.863 -70.2637 L 159.863 -75.6836 C 159.863 -92.4316 150.098 -102.051 133.154 -102.051 L 42.7734 -102.051 C 26.2695 -102.051 16.0645 -92.4316 16.0645 -75.6836 L 16.0645 -17.5293 C 16.0645 -0.878906 26.1719 8.49609 42.4316 8.49609 L 50.5371 8.49609 L 50.5371 25.2441 C 50.5371 30.1758 53.0762 33.1055 57.5684 33.1055 Z M 60.2539 3.41797 C 60.2539 -0.0976562 58.2031 -1.61133 55.4688 -1.61133 L 44.0918 -1.61133 C 33.0566 -1.61133 26.8066 -7.66602 26.8066 -18.9453 L 26.8066 -74.5117 C 26.8066 -85.9375 33.1055 -91.8945 44.0918 -91.8945 L 131.836 -91.8945 C 142.822 -91.8945 149.121 -85.9375 149.121 -74.5117 L 149.121 -70.2637 L 107.617 -70.2637 C 91.5527 -70.2637 82.3242 -61.1816 82.3242 -45.3613 L 82.3242 -6.20117 C 82.3242 -3.95508 82.5195 -1.85547 82.8613 0.0976562 L 60.2539 21.3379 Z M 158.594 28.9551 L 139.209 11.4258 C 136.475 8.98438 135.01 8.30078 131.445 8.30078 L 108.74 8.30078 C 98.7305 8.30078 92.9199 2.83203 92.9199 -7.56836 L 92.9688 -44.3359 C 92.9688 -54.7852 98.7305 -60.2539 108.74 -60.2539 L 170.02 -60.2539 C 180.029 -60.2539 185.84 -54.7852 185.84 -44.3359 L 185.84 -7.56836 C 185.84 2.7832 180.029 8.30078 170.02 8.30078 L 163.33 8.30078 C 160.596 8.30078 158.594 9.76562 158.594 13.1836 Z"/>
  </g>
  <g id="Regular-L" transform="matrix(1 0 0 1 1345.84 1556)">
   <path d="M 56.4453 32.0801 C 59.2773 32.0801 61.2793 31.0059 64.6484 28.0762 L 85.5469 8.98438 C 89.6484 14.5508 96.4844 17.5293 105.469 17.5293 L 130.518 17.5293 L 151.123 35.1562 C 154.248 37.8906 156.055 39.3066 158.643 39.3066 C 162.305 39.3066 164.404 36.7188 164.404 32.666 L 164.404 17.5293 L 167.676 17.5293 C 182.422 17.5293 191.943 8.78906 191.943 -6.54297 L 191.943 -45.0684 C 191.943 -60.4004 182.422 -69.1895 167.676 -69.1895 L 156.885 -69.1895 L 156.885 -75.4395 C 156.885 -91.8457 147.266 -101.27 130.811 -101.27 L 42.1387 -101.27 C 26.1719 -101.27 16.0645 -91.8457 16.0645 -75.4395 L 16.0645 -18.1152 C 16.0645 -1.66016 26.1719 7.71484 42.1387 7.71484 L 50.4883 7.71484 L 50.4883 25.3418 C 50.4883 29.541 52.6367 32.0801 56.4453 32.0801 Z M 58.6426 4.15039 C 58.6426 1.12305 56.7871 -0.341797 54.3945 -0.341797 L 42.8223 -0.341797 C 31.25 -0.341797 24.707 -6.54297 24.707 -18.5059 L 24.707 -74.9512 C 24.707 -86.9141 31.2988 -93.1641 42.8223 -93.1641 L 130.176 -93.1641 C 141.65 -93.1641 148.242 -86.9141 148.242 -74.9512 L 148.242 -69.1895 L 105.469 -69.1895 C 90.1367 -69.1895 81.1035 -60.4004 81.1035 -45.0684 L 81.1035 -6.49414 C 81.1035 -3.85742 81.3965 -1.46484 81.8848 0.732422 L 58.6426 22.4609 Z M 156.348 29.541 L 136.719 12.0605 C 134.521 10.1074 133.154 9.47266 130.127 9.47266 L 106.055 9.47266 C 95.752 9.47266 89.7461 3.95508 89.7461 -6.88477 L 89.7949 -44.6777 C 89.7949 -55.4688 95.752 -61.084 106.055 -61.084 L 167.041 -61.084 C 177.393 -61.084 183.35 -55.4688 183.35 -44.6777 L 183.35 -6.93359 C 183.35 3.90625 177.344 9.47266 167.041 9.47266 L 160.498 9.47266 C 158.154 9.47266 156.348 10.8398 156.348 13.8184 Z"/>
  </g>
  <g id="Light-L" transform="matrix(1 0 0 1 1052.55 1556)">
   <path d="M 53.5156 29.4434 C 55.7129 29.4434 57.3242 28.5645 59.7656 26.416 L 80.6641 6.83594 C 83.9844 13.3789 90.625 16.8457 99.9512 16.8457 L 129.541 16.8457 L 149.512 33.9844 C 151.758 35.9375 153.174 36.9629 155.078 36.9629 C 157.861 36.9629 159.473 35.0098 159.473 31.9824 L 159.473 16.8457 L 163.525 16.8457 C 176.904 16.8457 185.107 9.13086 185.107 -4.54102 L 185.107 -44.873 C 185.107 -58.5449 176.904 -66.3086 163.525 -66.3086 L 151.611 -66.3086 L 151.611 -74.5605 C 151.611 -90.0391 142.725 -98.8281 127.197 -98.8281 L 40.4785 -98.8281 C 25.2441 -98.8281 16.0645 -90.0391 16.0645 -74.5605 L 16.0645 -18.2617 C 16.0645 -2.68555 25.2441 6.00586 40.4785 6.00586 L 48.877 6.00586 L 48.877 24.1699 C 48.877 27.4414 50.5859 29.4434 53.5156 29.4434 Z M 55.1758 3.32031 C 55.1758 0.976562 53.7598 -0.195312 51.8555 -0.195312 L 41.2109 -0.195312 C 29.1504 -0.195312 22.7051 -6.54297 22.7051 -18.7988 L 22.7051 -73.9746 C 22.7051 -86.2305 29.1992 -92.627 41.2109 -92.627 L 126.465 -92.627 C 138.477 -92.627 144.971 -86.2305 144.971 -73.9746 L 144.971 -66.3086 L 99.9512 -66.3086 C 86.1816 -66.3086 78.2715 -58.5449 78.2715 -44.873 L 78.2715 -4.44336 C 78.2715 -2.97852 78.3691 -1.51367 78.5645 -0.195312 L 55.1758 22.0703 Z M 153.32 29.3945 L 134.57 12.793 C 132.666 11.1328 131.543 10.6445 129.15 10.6445 L 100.537 10.6445 C 90.4297 10.6445 84.8633 5.41992 84.8633 -4.98047 L 84.9121 -44.3848 C 84.9121 -54.7363 90.4297 -60.1074 100.537 -60.1074 L 162.891 -60.1074 C 173.047 -60.1074 178.564 -54.7363 178.564 -44.3848 L 178.564 -5.07812 C 178.564 5.32227 172.998 10.6445 162.891 10.6445 L 156.445 10.6445 C 154.688 10.6445 153.32 11.6699 153.32 13.916 Z"/>
  </g>
  <g id="Thin-L" transform="matrix(1 0 0 1 760.353 1556)">
   <path d="M 49.6582 25.9766 C 51.0254 25.9766 52.0996 25.293 53.3203 24.1699 L 75 3.125 C 76.6602 11.5234 82.7637 15.9668 92.627 15.9668 L 128.174 15.9668 L 147.412 32.373 C 148.438 33.3008 149.365 33.8867 150.391 33.8867 C 151.953 33.8867 152.93 32.8125 152.93 31.0547 L 152.93 15.9668 L 158.105 15.9668 C 169.58 15.9668 176.074 9.61914 176.074 -1.95312 L 176.074 -44.5801 C 176.074 -56.1523 169.58 -62.5488 158.105 -62.5488 L 144.58 -62.5488 L 144.58 -73.4375 C 144.58 -87.6953 136.67 -95.5566 122.363 -95.5566 L 38.2812 -95.5566 C 23.9746 -95.5566 16.0645 -87.6953 16.0645 -73.4375 L 16.0645 -18.4082 C 16.0645 -4.10156 23.9746 3.71094 38.2812 3.71094 L 46.7285 3.71094 L 46.7285 22.5586 C 46.7285 24.6582 47.9004 25.9766 49.6582 25.9766 Z M 50.5859 2.19727 C 50.5859 0.78125 49.707 0 48.4863 0 L 39.0625 0 C 26.3672 0 19.9707 -6.54297 19.9707 -19.1895 L 19.9707 -72.7051 C 19.9707 -85.3027 26.4648 -91.8457 39.0625 -91.8457 L 121.582 -91.8457 C 134.18 -91.8457 140.674 -85.3027 140.674 -72.7051 L 140.674 -62.5488 L 92.627 -62.5488 C 80.957 -62.5488 74.5605 -56.1523 74.5605 -44.5801 L 74.5605 -1.75781 L 50.5859 21.4844 Z M 149.268 29.1992 L 131.689 13.7695 C 130.273 12.5488 129.443 12.2559 127.881 12.2559 L 93.2617 12.2559 C 83.4473 12.2559 78.418 7.42188 78.418 -2.49023 L 78.4668 -43.9941 C 78.4668 -53.7598 83.4473 -58.8379 93.2617 -58.8379 L 157.373 -58.8379 C 167.236 -58.8379 172.217 -53.7598 172.217 -43.9941 L 172.217 -2.63672 C 172.217 7.22656 167.188 12.2559 157.373 12.2559 L 151.123 12.2559 C 150.049 12.2559 149.268 12.8418 149.268 14.0625 Z"/>
  </g>
  <g id="Ultralight-L" transform="matrix(1 0 0 1 465.961 1556)">
   <path d="M 47.6562 24.1699 C 48.584 24.1699 49.4141 23.584 50 23.0469 L 72.6562 0.634766 C 73.0469 10.4492 78.6621 15.4785 88.8672 15.4785 L 127.539 15.4785 L 146.289 31.5918 C 146.729 31.9336 147.412 32.3242 147.998 32.3242 C 148.926 32.3242 149.561 31.6406 149.561 30.6152 L 149.561 15.4785 L 155.273 15.4785 C 165.869 15.4785 171.436 9.86328 171.436 -0.585938 L 171.436 -44.4336 C 171.436 -54.9316 165.869 -60.6445 155.273 -60.6445 L 140.967 -60.6445 L 140.967 -72.8516 C 140.967 -86.4746 133.594 -93.8965 119.922 -93.8965 L 37.1582 -93.8965 C 23.291 -93.8965 16.0645 -86.4746 16.0645 -72.8516 L 16.0645 -18.5059 C 16.0645 -4.83398 23.291 2.53906 37.1582 2.53906 L 45.6055 2.53906 L 45.6055 21.7773 C 45.6055 23.2422 46.5332 24.1699 47.6562 24.1699 Z M 48.2422 1.61133 C 48.2422 0.732422 47.6562 0.0976562 46.7773 0.0976562 L 37.9883 0.0976562 C 24.9512 0.0976562 18.6035 -6.54297 18.6035 -19.3359 L 18.6035 -72.0215 C 18.6035 -84.8145 25.0488 -91.4551 37.9883 -91.4551 L 119.092 -91.4551 C 132.031 -91.4551 138.428 -84.8145 138.428 -72.0215 L 138.428 -60.6445 L 88.8672 -60.6445 C 78.3203 -60.6445 72.6562 -54.9316 72.6562 -44.4336 L 72.6562 -2.73438 L 48.2422 21.1914 Z M 147.217 29.1016 L 130.176 14.2578 C 129.004 13.2324 128.369 13.0371 127.197 13.0371 L 89.5508 13.0371 C 79.8828 13.0371 75.0977 8.39844 75.0977 -1.17188 L 75.1953 -43.7988 C 75.1953 -53.2715 79.8828 -58.2031 89.5508 -58.2031 L 154.541 -58.2031 C 164.307 -58.2031 168.994 -53.2715 168.994 -43.7988 L 168.994 -1.36719 C 168.994 8.20312 164.209 13.0371 154.541 13.0371 L 148.389 13.0371 C 147.705 13.0371 147.217 13.4277 147.217 14.1602 Z"/>
  </g>
  <g id="Black-M" transform="matrix(1 0 0 1 2840.99 1126)">
   <path d="M 49.0234 21.875 C 53.418 21.875 57.2266 20.2148 62.6465 15.5762 L 74.6582 5.27344 C 78.5156 8.44727 84.2773 9.96094 91.7969 9.96094 L 107.861 9.96094 L 123.926 23.7793 C 129.346 28.418 133.203 30.0293 137.598 30.0293 C 144.043 30.0293 148.145 25.7812 148.145 18.6035 L 148.145 9.96094 L 151.172 9.96094 C 165.186 9.96094 172.363 3.125 172.363 -10.2539 L 172.363 -44.5801 C 172.363 -58.7402 164.453 -66.6992 149.17 -66.6992 L 136.67 -66.6992 L 136.67 -67.627 C 136.67 -81.7383 128.76 -89.7461 113.477 -89.7461 L 35.6445 -89.7461 C 20.3613 -89.7461 12.4512 -81.7383 12.4512 -67.627 L 12.4512 -18.4082 C 12.4512 -5.0293 19.6289 1.80664 33.5938 1.80664 L 38.4277 1.80664 L 38.4277 10.4004 C 38.4277 17.5781 42.5293 21.875 49.0234 21.875 Z M 53.2715 -9.7168 C 53.2715 -14.3555 51.0254 -15.8691 47.1191 -15.8691 L 40.1367 -15.8691 C 34.1309 -15.8691 30.7617 -19.5801 30.7617 -25.0488 L 30.7617 -62.8906 C 30.7617 -68.9941 34.1309 -72.0703 40.1367 -72.0703 L 108.984 -72.0703 C 113.574 -72.0703 116.65 -70.2637 117.822 -66.6992 L 91.7969 -66.6992 C 76.5137 -66.6992 68.6035 -58.7402 68.6035 -44.5801 L 68.6035 -12.4512 L 53.2715 2.44141 Z M 133.301 11.2793 L 119.727 -1.85547 C 115.283 -6.15234 113.672 -7.08008 108.252 -7.08008 L 95.6055 -7.08008 C 89.6484 -7.08008 86.2305 -10.791 86.2305 -16.2598 L 86.2305 -40.4785 C 86.2305 -46.582 89.6484 -49.6582 95.6055 -49.6582 L 145.312 -49.6582 C 151.318 -49.6582 154.688 -46.582 154.688 -40.4785 L 154.688 -16.2598 C 154.688 -10.791 151.318 -7.08008 145.312 -7.08008 L 139.453 -7.08008 C 135.547 -7.08008 133.301 -5.56641 133.301 -0.927734 Z"/>
  </g>
  <g id="Heavy-M" transform="matrix(1 0 0 1 2546.6 1126)">
   <path d="M 48.1445 21.0449 C 52.0996 21.0449 55.4688 19.5801 60.3516 15.3809 L 73.3887 4.05273 C 77.1484 7.42188 82.8125 9.0332 90.1855 9.0332 L 106.445 9.0332 L 122.559 22.9004 C 127.393 27.0508 130.664 28.5645 134.619 28.5645 C 140.332 28.5645 143.945 24.7559 143.945 18.4082 L 143.945 9.0332 L 146.729 9.0332 C 160.303 9.0332 167.725 2.05078 167.725 -11.1816 L 167.725 -44.1895 C 167.725 -58.0078 159.766 -65.8691 145.166 -65.8691 L 133.838 -65.8691 L 133.838 -67.4316 C 133.838 -81.3965 125.928 -89.2578 111.084 -89.2578 L 35.1562 -89.2578 C 20.459 -89.2578 12.4512 -81.3965 12.4512 -67.4316 L 12.4512 -19.2383 C 12.4512 -5.85938 19.9219 1.17188 33.5938 1.17188 L 38.8184 1.17188 L 38.8184 10.8887 C 38.8184 17.2363 42.3828 21.0449 48.1445 21.0449 Z M 51.9043 -8.44727 C 51.9043 -12.6465 49.8047 -14.0625 46.2891 -14.0625 L 38.6719 -14.0625 C 32.0801 -14.0625 28.2715 -18.0176 28.2715 -24.3652 L 28.2715 -63.7695 C 28.2715 -70.5566 32.0801 -74.0723 38.6719 -74.0723 L 107.568 -74.0723 C 113.477 -74.0723 117.139 -71.2891 117.871 -65.8691 L 90.1855 -65.8691 C 75.4395 -65.8691 67.627 -58.0078 67.627 -44.1895 L 67.627 -10.9375 L 51.9043 4.15039 Z M 130.859 12.1582 L 116.748 -1.17188 C 112.939 -4.88281 111.426 -5.71289 106.641 -5.71289 L 93.2129 -5.71289 C 86.6699 -5.71289 82.959 -9.61914 82.959 -15.8203 L 82.959 -41.0156 C 82.959 -47.7051 86.6699 -51.123 93.2129 -51.123 L 142.139 -51.123 C 148.633 -51.123 152.393 -47.7051 152.393 -41.0156 L 152.393 -15.8203 C 152.393 -9.61914 148.633 -5.71289 142.139 -5.71289 L 136.426 -5.71289 C 132.959 -5.71289 130.859 -4.29688 130.859 -0.0976562 Z"/>
  </g>
  <g id="Bold-M" transform="matrix(1 0 0 1 2252.5 1126)">
   <path d="M 47.2168 20.1172 C 50.6836 20.1172 53.5156 18.8965 57.7637 15.1855 L 71.9238 2.73438 C 75.6348 6.25 81.1523 8.00781 88.3301 8.00781 L 104.785 8.00781 L 120.996 21.875 C 125.146 25.4883 127.881 26.9531 131.299 26.9531 C 136.182 26.9531 139.209 23.6328 139.209 18.1641 L 139.209 8.00781 L 141.748 8.00781 C 154.834 8.00781 162.5 0.878906 162.5 -12.207 L 162.5 -43.75 C 162.5 -57.2266 154.492 -64.9414 140.723 -64.9414 L 130.664 -64.9414 L 130.664 -67.2363 C 130.664 -80.957 122.754 -88.7695 108.447 -88.7695 L 34.6191 -88.7695 C 20.6055 -88.7695 12.4512 -80.957 12.4512 -67.2363 L 12.4512 -20.166 C 12.4512 -6.83594 20.2637 0.439453 33.5938 0.439453 L 39.2578 0.439453 L 39.2578 11.4258 C 39.2578 16.8945 42.2363 20.1172 47.2168 20.1172 Z M 50.3418 -6.98242 C 50.3418 -10.6934 48.3887 -12.0605 45.3613 -12.0605 L 37.1094 -12.0605 C 29.7852 -12.0605 25.5371 -16.3086 25.5371 -23.584 L 25.5371 -64.7461 C 25.5371 -72.3633 29.7852 -76.2695 37.1094 -76.2695 L 106.006 -76.2695 C 113.232 -76.2695 117.48 -72.4121 117.578 -64.9414 L 88.3301 -64.9414 C 74.2676 -64.9414 66.5527 -57.2266 66.5527 -43.75 L 66.5527 -12.1582 C 66.5527 -11.2305 66.5527 -10.3027 66.6504 -9.375 L 50.3418 6.10352 Z M 128.125 13.1348 L 113.477 -0.439453 C 110.303 -3.41797 108.887 -4.19922 104.834 -4.19922 L 90.4785 -4.19922 C 83.3984 -4.19922 79.2969 -8.25195 79.2969 -15.332 L 79.2969 -41.6016 C 79.2969 -48.9746 83.3984 -52.7344 90.4785 -52.7344 L 138.574 -52.7344 C 145.654 -52.7344 149.756 -48.9746 149.756 -41.6016 L 149.756 -15.2832 C 149.756 -8.25195 145.605 -4.19922 138.574 -4.19922 L 133.057 -4.19922 C 130.078 -4.19922 128.125 -2.83203 128.125 0.878906 Z"/>
  </g>
  <g id="Semibold-M" transform="matrix(1 0 0 1 1957.57 1126)">
   <path d="M 46.5332 19.5312 C 49.707 19.5312 52.1484 18.3594 56.0059 15.0391 L 70.9473 1.80664 C 74.5605 5.41992 80.0293 7.27539 87.0605 7.27539 L 103.662 7.27539 L 119.922 21.1914 C 123.633 24.4141 125.977 25.8301 129.004 25.8301 C 133.35 25.8301 135.938 22.8516 135.938 18.0176 L 135.938 7.27539 L 138.281 7.27539 C 151.074 7.27539 158.936 0.0976562 158.936 -12.8906 L 158.936 -43.457 C 158.936 -56.6895 150.879 -64.3066 137.646 -64.3066 L 128.467 -64.3066 L 128.467 -67.0898 C 128.467 -80.6641 120.557 -88.4277 106.641 -88.4277 L 34.2773 -88.4277 C 20.7031 -88.4277 12.4512 -80.6641 12.4512 -67.0898 L 12.4512 -20.8008 C 12.4512 -7.4707 20.459 -0.0976562 33.5938 -0.0976562 L 39.5508 -0.0976562 L 39.5508 11.7676 C 39.5508 16.6016 42.1387 19.5312 46.5332 19.5312 Z M 49.3164 -5.95703 C 49.3164 -9.32617 47.4121 -10.6934 44.7266 -10.6934 L 35.9863 -10.6934 C 28.1738 -10.6934 23.6328 -15.0879 23.6328 -23.0469 L 23.6328 -65.4297 C 23.6328 -73.584 28.2227 -77.7832 35.9863 -77.7832 L 104.883 -77.7832 C 112.695 -77.7832 117.285 -73.584 117.285 -65.4297 L 117.285 -64.3066 L 87.0605 -64.3066 C 73.4863 -64.3066 65.7715 -56.6895 65.7715 -43.457 L 65.7715 -12.8906 C 65.7715 -11.2793 65.918 -9.81445 66.1133 -8.39844 L 49.3164 7.42188 Z M 126.221 13.8672 L 111.182 0.0976562 C 108.447 -2.44141 107.129 -3.125 103.613 -3.125 L 88.623 -3.125 C 81.1523 -3.125 76.7578 -7.32422 76.7578 -14.9414 L 76.7578 -41.9922 C 76.7578 -49.8047 81.1523 -53.8574 88.623 -53.8574 L 136.133 -53.8574 C 143.555 -53.8574 147.949 -49.8047 147.949 -41.9922 L 147.949 -14.9414 C 147.949 -7.32422 143.555 -3.125 136.133 -3.125 L 130.713 -3.125 C 128.076 -3.125 126.221 -1.80664 126.221 1.5625 Z"/>
  </g>
  <g id="Medium-M" transform="matrix(1 0 0 1 1662.23 1126)">
   <path d="M 46.0449 19.043 C 48.9746 19.043 51.123 18.0176 54.6387 14.9414 L 70.2148 1.07422 C 73.7793 4.78516 79.1992 6.73828 86.1328 6.73828 L 102.832 6.73828 L 119.092 20.7031 C 122.51 23.6328 124.512 24.9512 127.246 24.9512 C 131.152 24.9512 133.447 22.2656 133.447 17.9199 L 133.447 6.73828 L 135.693 6.73828 C 148.242 6.73828 156.201 -0.537109 156.201 -13.4277 L 156.201 -43.2617 C 156.201 -56.2988 148.096 -63.8184 135.303 -63.8184 L 126.807 -63.8184 L 126.807 -66.9922 C 126.807 -80.4199 118.896 -88.1348 105.273 -88.1348 L 33.9844 -88.1348 C 20.752 -88.1348 12.4512 -80.4199 12.4512 -66.9922 L 12.4512 -21.2891 C 12.4512 -7.95898 20.6055 -0.439453 33.5938 -0.439453 L 39.7461 -0.439453 L 39.7461 12.0605 C 39.7461 16.4062 42.041 19.043 46.0449 19.043 Z M 48.4863 -5.22461 C 48.4863 -8.34961 46.6797 -9.66797 44.2383 -9.66797 L 35.1562 -9.66797 C 27.002 -9.66797 22.168 -14.209 22.168 -22.6562 L 22.168 -65.918 C 22.168 -74.5117 27.002 -78.9551 35.1562 -78.9551 L 104.053 -78.9551 C 112.256 -78.9551 117.041 -74.5117 117.041 -65.918 L 117.041 -63.8184 L 86.1328 -63.8184 C 72.8516 -63.8184 65.2344 -56.2988 65.2344 -43.2617 L 65.2344 -13.4277 C 65.2344 -11.377 65.4297 -9.47266 65.7715 -7.71484 L 48.4863 8.44727 Z M 124.756 14.3555 L 109.473 0.488281 C 107.08 -1.70898 105.811 -2.34375 102.637 -2.34375 L 87.1582 -2.34375 C 79.4434 -2.34375 74.8535 -6.5918 74.8535 -14.6973 L 74.8535 -42.334 C 74.8535 -50.4883 79.4434 -54.6875 87.1582 -54.6875 L 134.229 -54.6875 C 141.992 -54.6875 146.582 -50.4883 146.582 -42.334 L 146.582 -14.6973 C 146.582 -6.64062 141.992 -2.34375 134.229 -2.34375 L 128.955 -2.34375 C 126.562 -2.34375 124.756 -1.02539 124.756 2.05078 Z"/>
  </g>
  <g id="Regular-M" transform="matrix(1 0 0 1 1367.28 1126)">
   <path d="M 45.4102 18.4082 C 47.998 18.4082 49.7559 17.5293 52.8809 14.7949 L 69.2383 0.146484 C 72.7539 4.00391 78.0762 6.05469 84.8633 6.05469 L 101.709 6.05469 L 118.018 20.0195 C 120.996 22.5586 122.607 23.877 124.951 23.877 C 128.32 23.877 130.225 21.4844 130.225 17.7734 L 130.225 6.05469 L 132.275 6.05469 C 144.531 6.05469 152.686 -1.31836 152.686 -14.1113 L 152.686 -42.9688 C 152.686 -55.7617 144.531 -63.1348 132.275 -63.1348 L 124.609 -63.1348 L 124.609 -66.8457 C 124.609 -80.127 116.748 -87.793 103.467 -87.793 L 33.5938 -87.793 C 20.8496 -87.793 12.4512 -80.127 12.4512 -66.8457 L 12.4512 -21.875 C 12.4512 -8.59375 20.8496 -0.927734 33.5938 -0.927734 L 40.0391 -0.927734 L 40.0391 12.4023 C 40.0391 16.1621 41.9434 18.4082 45.4102 18.4082 Z M 47.4121 -4.19922 C 47.4121 -6.98242 45.752 -8.30078 43.6035 -8.30078 L 34.082 -8.30078 C 25.4395 -8.30078 20.3125 -12.9883 20.3125 -22.1191 L 20.3125 -66.6016 C 20.3125 -75.6836 25.4395 -80.4688 34.082 -80.4688 L 102.979 -80.4688 C 111.621 -80.4688 116.748 -75.6836 116.748 -66.6016 L 116.748 -63.1348 L 84.8633 -63.1348 C 72.0703 -63.1348 64.502 -55.7617 64.502 -42.9688 L 64.502 -14.1113 C 64.502 -11.4746 64.7949 -9.08203 65.4297 -6.88477 L 47.4121 9.7168 Z M 122.9 15.0391 L 107.227 0.976562 C 105.273 -0.732422 104.102 -1.26953 101.416 -1.26953 L 85.3516 -1.26953 C 77.1973 -1.26953 72.3145 -5.71289 72.3145 -14.3555 L 72.3633 -42.7246 C 72.3633 -51.3184 77.1973 -55.8105 85.3516 -55.8105 L 131.836 -55.8105 C 139.941 -55.8105 144.824 -51.3184 144.824 -42.7246 L 144.824 -14.3555 C 144.824 -5.71289 139.941 -1.26953 131.836 -1.26953 L 126.66 -1.26953 C 124.561 -1.26953 122.9 -0.0488281 122.9 2.73438 Z"/>
  </g>
  <g id="Light-M" transform="matrix(1 0 0 1 1073.64 1126)">
   <path d="M 42.7734 16.0645 C 44.7754 16.0645 46.1914 15.2832 48.4863 13.2812 L 64.6973 -1.61133 C 67.627 2.97852 72.8516 5.46875 79.9316 5.46875 L 100.83 5.46875 L 116.602 18.9453 C 118.75 20.8008 120.02 21.7773 121.777 21.7773 C 124.316 21.7773 125.781 19.9707 125.781 17.1387 L 125.781 5.46875 L 128.564 5.46875 C 139.551 5.46875 146.533 -1.02539 146.533 -12.3535 L 146.533 -42.7734 C 146.533 -54.1016 139.551 -60.5957 128.564 -60.5957 L 119.873 -60.5957 L 119.873 -66.1133 C 119.873 -78.5156 112.646 -85.5957 100.195 -85.5957 L 32.1289 -85.5957 C 19.9707 -85.5957 12.4512 -78.5156 12.4512 -66.1133 L 12.4512 -22.0215 C 12.4512 -9.57031 19.9707 -2.49023 32.1289 -2.49023 L 38.5742 -2.49023 L 38.5742 11.3281 C 38.5742 14.3066 40.1367 16.0645 42.7734 16.0645 Z M 44.3359 -4.98047 C 44.3359 -7.12891 43.0176 -8.1543 41.3086 -8.1543 L 32.666 -8.1543 C 23.5352 -8.1543 18.5059 -12.9883 18.5059 -22.3633 L 18.5059 -65.7227 C 18.5059 -75.0488 23.584 -79.9316 32.666 -79.9316 L 99.6582 -79.9316 C 108.74 -79.9316 113.818 -75.0488 113.818 -65.7227 L 113.818 -60.5957 L 79.9316 -60.5957 C 68.5547 -60.5957 61.9629 -54.1016 61.9629 -42.7734 L 61.9629 -12.3047 C 61.9629 -10.6445 62.0605 -9.08203 62.3535 -7.66602 L 44.3359 9.375 Z M 120.166 14.9414 L 105.273 1.66016 C 103.662 0.244141 102.686 -0.195312 100.537 -0.195312 L 80.3711 -0.195312 C 72.4609 -0.195312 67.9688 -4.39453 67.9688 -12.6465 L 67.9688 -42.4316 C 67.9688 -50.6836 72.4609 -54.9316 80.3711 -54.9316 L 128.076 -54.9316 C 136.035 -54.9316 140.527 -50.6836 140.527 -42.4316 L 140.527 -12.6953 C 140.527 -4.44336 136.035 -0.195312 128.076 -0.195312 L 123.047 -0.195312 C 121.436 -0.195312 120.166 0.732422 120.166 2.83203 Z"/>
  </g>
  <g id="Thin-M" transform="matrix(1 0 0 1 780.983 1126)">
   <path d="M 39.3066 12.9395 C 40.5762 12.9395 41.5039 12.3535 42.7246 11.2793 L 59.2773 -4.58984 C 60.9863 1.41602 65.8691 4.63867 73.3887 4.63867 L 99.6582 4.63867 L 114.697 17.5293 C 115.771 18.457 116.602 18.9941 117.578 18.9941 C 119.043 18.9941 119.922 17.9688 119.922 16.3574 L 119.922 4.63867 L 123.682 4.63867 C 133.008 4.63867 138.428 -0.585938 138.428 -10.0098 L 138.428 -42.5293 C 138.428 -51.9531 133.008 -57.2266 123.682 -57.2266 L 113.574 -57.2266 L 113.574 -65.0879 C 113.574 -76.416 107.227 -82.666 95.8984 -82.666 L 30.127 -82.666 C 18.8477 -82.666 12.4512 -76.416 12.4512 -65.0879 L 12.4512 -22.168 C 12.4512 -10.791 18.8477 -4.54102 30.127 -4.54102 L 36.6699 -4.54102 L 36.6699 9.91211 C 36.6699 11.7676 37.6953 12.9395 39.3066 12.9395 Z M 40.1855 -6.00586 C 40.1855 -7.27539 39.4043 -7.95898 38.2812 -7.95898 L 30.7129 -7.95898 C 21.0449 -7.95898 16.0645 -12.9883 16.0645 -22.7051 L 16.0645 -64.5508 C 16.0645 -74.2188 21.0938 -79.248 30.7129 -79.248 L 95.2637 -79.248 C 104.932 -79.248 109.961 -74.2188 109.961 -64.5508 L 109.961 -57.2266 L 73.3887 -57.2266 C 63.8672 -57.2266 58.5938 -51.9531 58.5938 -42.5293 L 58.5938 -9.91211 C 58.5938 -9.57031 58.5938 -9.22852 58.5938 -8.93555 L 40.1855 8.83789 Z M 116.553 14.7461 L 102.686 2.53906 C 101.465 1.46484 100.781 1.2207 99.3652 1.2207 L 73.877 1.2207 C 66.2109 1.2207 62.1582 -2.63672 62.1582 -10.4004 L 62.207 -42.0898 C 62.207 -49.8047 66.2109 -53.8086 73.877 -53.8086 L 123.145 -53.8086 C 130.859 -53.8086 134.863 -49.8047 134.863 -42.0898 L 134.863 -10.498 C 134.863 -2.73438 130.811 1.2207 123.145 1.2207 L 118.262 1.2207 C 117.285 1.2207 116.553 1.75781 116.553 2.92969 Z"/>
  </g>
  <g id="Ultralight-M" transform="matrix(1 0 0 1 486.347 1126)">
   <path d="M 37.5488 11.377 C 38.3789 11.377 39.1113 10.8398 39.7461 10.2539 L 56.9824 -6.64062 C 57.666 0.488281 62.207 4.19922 70.0195 4.19922 L 99.0234 4.19922 L 113.721 16.7969 C 114.209 17.2363 114.844 17.5781 115.43 17.5781 C 116.309 17.5781 116.895 16.9434 116.895 15.918 L 116.895 4.19922 L 121.191 4.19922 C 129.639 4.19922 134.277 -0.341797 134.277 -8.78906 L 134.277 -42.4316 C 134.277 -50.8789 129.639 -55.5176 121.191 -55.5176 L 110.352 -55.5176 L 110.352 -64.5508 C 110.352 -75.293 104.443 -81.2012 93.6523 -81.2012 L 29.1504 -81.2012 C 18.2617 -81.2012 12.4512 -75.293 12.4512 -64.5508 L 12.4512 -22.2656 C 12.4512 -11.4258 18.2617 -5.61523 29.1504 -5.61523 L 35.6934 -5.61523 L 35.6934 9.17969 C 35.6934 10.498 36.4746 11.377 37.5488 11.377 Z M 38.0859 -6.49414 C 38.0859 -7.32422 37.5488 -7.91016 36.7676 -7.91016 L 29.7363 -7.91016 C 19.7754 -7.91016 14.8438 -12.9883 14.8438 -22.8516 L 14.8438 -63.9648 C 14.8438 -73.8281 19.8242 -78.9062 29.7363 -78.9062 L 93.0176 -78.9062 C 102.979 -78.9062 107.959 -73.8281 107.959 -63.9648 L 107.959 -55.5176 L 70.0195 -55.5176 C 61.4746 -55.5176 56.8848 -50.8789 56.8848 -42.4316 L 56.8848 -9.76562 L 38.0859 8.59375 Z M 114.697 14.6484 L 101.318 2.97852 C 100.342 2.09961 99.8047 1.95312 98.7793 1.95312 L 70.5078 1.95312 C 62.9883 1.95312 59.1797 -1.70898 59.1797 -9.22852 L 59.2773 -41.8945 C 59.2773 -49.3652 62.9883 -53.2227 70.5078 -53.2227 L 120.605 -53.2227 C 128.223 -53.2227 131.934 -49.3652 131.934 -41.8945 L 131.934 -9.375 C 131.934 -1.85547 128.174 1.95312 120.605 1.95312 L 115.82 1.95312 C 115.186 1.95312 114.697 2.29492 114.697 3.02734 Z"/>
  </g>
  <g id="Black-S" transform="matrix(1 0 0 1 2861.13 696)">
   <path d="M 38.3789 9.47266 C 41.7969 9.47266 44.7754 8.20312 48.9746 4.58984 L 58.4473 -3.56445 C 61.5234 -1.07422 66.0156 0.0976562 71.875 0.0976562 L 84.4238 0.0976562 L 97.0215 10.9375 C 101.221 14.5508 104.199 15.8203 107.617 15.8203 C 112.646 15.8203 115.82 12.5 115.82 6.93359 L 115.82 0.0976562 L 118.164 0.0976562 C 129.102 0.0976562 134.766 -5.27344 134.766 -15.7715 L 134.766 -42.5293 C 134.766 -53.6133 128.564 -59.8633 116.602 -59.8633 L 106.934 -59.8633 L 106.934 -60.5957 C 106.934 -71.6797 100.732 -77.9297 88.7695 -77.9297 L 27.9297 -77.9297 C 15.9668 -77.9297 9.76562 -71.6797 9.76562 -60.5957 L 9.76562 -22.1191 C 9.76562 -11.6211 15.4297 -6.25 26.3672 -6.25 L 30.1758 -6.25 L 30.1758 0.585938 C 30.1758 6.15234 33.3496 9.47266 38.3789 9.47266 Z M 41.6992 -15.1367 C 41.6992 -18.75 39.9414 -19.9219 36.9141 -19.9219 L 31.3477 -19.9219 C 26.6113 -19.9219 23.9258 -22.8516 23.9258 -27.1973 L 23.9258 -56.9824 C 23.9258 -61.8164 26.6113 -64.2578 31.3477 -64.2578 L 85.3516 -64.2578 C 89.0137 -64.2578 91.4551 -62.793 92.3828 -59.8633 L 71.875 -59.8633 C 59.9121 -59.8633 53.7109 -53.6133 53.7109 -42.5293 L 53.7109 -17.2363 L 41.6992 -5.56641 Z M 104.297 1.26953 L 93.6035 -9.0332 C 90.1855 -12.3535 88.916 -13.0859 84.7168 -13.0859 L 74.8047 -13.0859 C 70.0684 -13.0859 67.3828 -16.0156 67.3828 -20.3613 L 67.3828 -39.4043 C 67.3828 -44.2383 70.0684 -46.6797 74.8047 -46.6797 L 113.672 -46.6797 C 118.408 -46.6797 121.094 -44.2383 121.094 -39.4043 L 121.094 -20.3613 C 121.094 -16.0156 118.408 -13.0859 113.672 -13.0859 L 109.082 -13.0859 C 106.055 -13.0859 104.297 -11.9141 104.297 -8.30078 Z"/>
  </g>
  <g id="Heavy-S" transform="matrix(1 0 0 1 2565.86 696)">
   <path d="M 38.0371 9.13086 C 41.1621 9.13086 43.7988 7.95898 47.7051 4.63867 L 58.0078 -4.3457 C 61.0352 -1.75781 65.4785 -0.537109 71.1914 -0.537109 L 83.3984 -0.537109 L 96.0938 10.4004 C 99.9512 13.6719 102.588 14.9414 105.713 14.9414 C 110.254 14.9414 113.086 11.9141 113.086 6.83594 L 113.086 -0.537109 L 115.137 -0.537109 C 125.928 -0.537109 131.885 -6.10352 131.885 -16.6504 L 131.885 -42.2363 C 131.885 -53.2715 125.537 -59.5215 113.965 -59.5215 L 105.273 -59.5215 L 105.273 -60.5469 C 105.273 -71.582 99.0234 -77.832 87.3047 -77.832 L 27.7344 -77.832 C 16.1621 -77.832 9.76562 -71.582 9.76562 -60.5469 L 9.76562 -22.7539 C 9.76562 -12.1582 15.7227 -6.5918 26.5137 -6.5918 L 30.6152 -6.5918 L 30.6152 1.07422 C 30.6152 6.10352 33.4473 9.13086 38.0371 9.13086 Z M 40.9668 -14.0625 C 40.9668 -17.3828 39.3066 -18.5547 36.5234 -18.5547 L 30.4199 -18.5547 C 25.2441 -18.5547 22.2656 -21.6797 22.2656 -26.6602 L 22.2656 -57.7637 C 22.2656 -63.0859 25.2441 -65.8203 30.4199 -65.8203 L 84.6191 -65.8203 C 89.209 -65.8203 92.0898 -63.6719 92.6758 -59.5215 L 71.1914 -59.5215 C 59.5215 -59.5215 53.2715 -53.2715 53.2715 -42.2363 L 53.2715 -16.6504 C 53.2715 -16.4062 53.2715 -16.2109 53.2715 -15.9668 L 40.9668 -4.19922 Z M 102.734 1.95312 L 91.5527 -8.59375 C 88.5742 -11.4746 87.3535 -12.1582 83.5938 -12.1582 L 73.4863 -12.1582 C 68.3594 -12.1582 65.332 -15.2344 65.332 -20.2148 L 65.3809 -39.8438 C 65.3809 -45.166 68.3594 -47.9004 73.4863 -47.9004 L 111.67 -47.9004 C 116.797 -47.9004 119.775 -45.166 119.775 -39.8438 L 119.775 -20.2148 C 119.775 -15.2344 116.797 -12.1582 111.67 -12.1582 L 107.178 -12.1582 C 104.443 -12.1582 102.734 -10.9863 102.734 -7.66602 Z"/>
  </g>
  <g id="Bold-S" transform="matrix(1 0 0 1 2270.76 696)">
   <path d="M 37.5977 8.69141 C 40.4785 8.69141 42.7246 7.66602 46.2891 4.63867 L 57.5195 -5.17578 C 60.5469 -2.58789 64.8438 -1.2207 70.4102 -1.2207 L 82.2754 -1.2207 L 95.1172 9.76562 C 98.5352 12.7441 100.732 13.9648 103.516 13.9648 C 107.568 13.9648 110.01 11.2305 110.01 6.78711 L 110.01 -1.2207 L 111.816 -1.2207 C 122.363 -1.2207 128.662 -7.03125 128.662 -17.6758 L 128.662 -41.9434 C 128.662 -52.832 122.119 -59.082 111.035 -59.082 L 103.418 -59.082 L 103.418 -60.498 C 103.418 -71.4355 97.1191 -77.7344 85.6934 -77.7344 L 27.4902 -77.7344 C 16.3574 -77.7344 9.76562 -71.4355 9.76562 -60.498 L 9.76562 -23.4375 C 9.76562 -12.793 16.1133 -6.93359 26.709 -6.93359 L 31.1523 -6.93359 L 31.1523 1.61133 C 31.1523 6.05469 33.5449 8.69141 37.5977 8.69141 Z M 40.1855 -12.8418 C 40.1855 -15.918 38.5742 -17.041 36.084 -17.041 L 29.3945 -17.041 C 23.7305 -17.041 20.3613 -20.3613 20.3613 -26.0254 L 20.3613 -58.5938 C 20.3613 -64.5508 23.7305 -67.5781 29.3945 -67.5781 L 83.8379 -67.5781 C 89.3066 -67.5781 92.627 -64.6973 92.8223 -59.082 L 70.4102 -59.082 C 59.0332 -59.082 52.7344 -52.832 52.7344 -41.9434 L 52.7344 -17.6758 C 52.7344 -16.6016 52.7832 -15.625 52.8809 -14.6973 L 40.1855 -2.68555 Z M 100.977 2.73438 L 89.2578 -8.10547 C 86.7188 -10.498 85.5957 -11.1328 82.3242 -11.1328 L 72.0215 -11.1328 C 66.4062 -11.1328 63.0859 -14.3555 63.0859 -20.0195 L 63.0859 -40.332 C 63.0859 -46.1914 66.4062 -49.2188 72.0215 -49.2188 L 109.375 -49.2188 C 114.99 -49.2188 118.311 -46.1914 118.311 -40.332 L 118.311 -20.0195 C 118.311 -14.3555 114.99 -11.1328 109.375 -11.1328 L 105.029 -11.1328 C 102.588 -11.1328 100.977 -9.96094 100.977 -6.93359 Z"/>
  </g>
  <g id="Semibold-S" transform="matrix(1 0 0 1 1975.15 696)">
   <path d="M 37.3535 8.44727 C 39.9902 8.44727 41.9922 7.51953 45.2637 4.6875 L 57.1777 -5.76172 C 60.1562 -3.125 64.4531 -1.70898 69.873 -1.70898 L 81.4941 -1.70898 L 94.3848 9.32617 C 97.6074 12.0605 99.5117 13.2812 102.051 13.2812 C 105.713 13.2812 107.91 10.7422 107.91 6.68945 L 107.91 -1.70898 L 109.473 -1.70898 C 119.922 -1.70898 126.465 -7.71484 126.465 -18.3594 L 126.465 -41.748 C 126.465 -52.5879 119.727 -58.8379 108.984 -58.8379 L 102.148 -58.8379 L 102.148 -60.4492 C 102.148 -71.3379 95.752 -77.6367 84.5703 -77.6367 L 27.3438 -77.6367 C 16.5039 -77.6367 9.76562 -71.3379 9.76562 -60.4492 L 9.76562 -23.877 C 9.76562 -13.1836 16.3574 -7.17773 26.8555 -7.17773 L 31.4941 -7.17773 L 31.4941 1.95312 C 31.4941 6.00586 33.6426 8.44727 37.3535 8.44727 Z M 39.6484 -12.0117 C 39.6484 -14.8438 38.0371 -16.0156 35.791 -16.0156 L 28.6621 -16.0156 C 22.7051 -16.0156 19.0918 -19.4336 19.0918 -25.5859 L 19.0918 -59.1797 C 19.0918 -65.5273 22.7051 -68.7988 28.6621 -68.7988 L 83.252 -68.7988 C 89.2578 -68.7988 92.8711 -65.5273 92.8711 -59.1797 L 92.8711 -58.8379 L 69.873 -58.8379 C 58.7402 -58.8379 52.3926 -52.5879 52.3926 -41.748 L 52.3926 -18.3594 C 52.3926 -16.748 52.4902 -15.2832 52.7832 -13.916 L 39.6484 -1.66016 Z M 99.7559 3.27148 L 87.6953 -7.76367 C 85.498 -9.81445 84.375 -10.4004 81.4453 -10.4004 L 70.9961 -10.4004 C 65.0879 -10.4004 61.5234 -13.7695 61.5234 -19.9219 L 61.5234 -40.625 C 61.5234 -46.9238 65.0879 -50.1465 70.9961 -50.1465 L 107.812 -50.1465 C 113.721 -50.1465 117.334 -46.9238 117.334 -40.625 L 117.334 -19.873 C 117.334 -13.7695 113.721 -10.4004 107.812 -10.4004 L 103.564 -10.4004 C 101.318 -10.4004 99.7559 -9.27734 99.7559 -6.44531 Z"/>
  </g>
  <g id="Medium-S" transform="matrix(1 0 0 1 1679.29 696)">
   <path d="M 37.1094 8.20312 C 39.6484 8.20312 41.4551 7.37305 44.5312 4.6875 L 56.9336 -6.20117 C 59.9121 -3.51562 64.1113 -2.09961 69.4336 -2.09961 L 80.9082 -2.09961 L 93.8965 8.98438 C 96.8262 11.5723 98.5352 12.7441 100.928 12.7441 C 104.346 12.7441 106.299 10.4004 106.299 6.64062 L 106.299 -2.09961 L 107.715 -2.09961 C 118.066 -2.09961 124.756 -8.20312 124.756 -18.8477 L 124.756 -41.6016 C 124.756 -52.3438 117.969 -58.5938 107.422 -58.5938 L 101.221 -58.5938 L 101.221 -60.4004 C 101.221 -71.2891 94.7754 -77.5879 83.7402 -77.5879 L 27.1973 -77.5879 C 16.6016 -77.5879 9.76562 -71.2891 9.76562 -60.4004 L 9.76562 -24.2676 C 9.76562 -13.5254 16.5039 -7.37305 26.9531 -7.37305 L 31.7383 -7.37305 L 31.7383 2.24609 C 31.7383 6.00586 33.6914 8.20312 37.1094 8.20312 Z M 39.209 -11.377 C 39.209 -14.0625 37.6953 -15.2344 35.5957 -15.2344 L 28.125 -15.2344 C 21.875 -15.2344 18.0664 -18.75 18.0664 -25.2441 L 18.0664 -59.6191 C 18.0664 -66.2598 21.875 -69.7266 28.125 -69.7266 L 82.8613 -69.7266 C 89.0625 -69.7266 92.8711 -66.2598 92.8711 -59.6191 L 92.8711 -58.5938 L 69.4336 -58.5938 C 58.4961 -58.5938 52.0996 -52.3438 52.0996 -41.6016 L 52.0996 -18.8477 C 52.0996 -16.8457 52.3438 -15.0391 52.7344 -13.3789 L 39.209 -0.830078 Z M 98.8281 3.71094 L 86.5234 -7.51953 C 84.5215 -9.32617 83.4473 -9.86328 80.7617 -9.86328 L 70.2637 -9.86328 C 64.1113 -9.86328 60.3516 -13.3301 60.3516 -19.8242 L 60.3516 -40.8691 C 60.3516 -47.4609 64.1113 -50.8301 70.2637 -50.8301 L 106.641 -50.8301 C 112.793 -50.8301 116.553 -47.4609 116.553 -40.8691 L 116.553 -19.7754 C 116.553 -13.3301 112.793 -9.86328 106.641 -9.86328 L 102.441 -9.86328 C 100.391 -9.86328 98.8281 -8.74023 98.8281 -6.05469 Z"/>
  </g>
  <g id="Regular-S" transform="matrix(1 0 0 1 1383.66 696)">
   <path d="M 36.8652 7.95898 C 39.1602 7.95898 40.7227 7.17773 43.5547 4.6875 L 56.5918 -6.78711 C 59.5215 -4.05273 63.7207 -2.58789 68.8965 -2.58789 L 80.127 -2.58789 L 93.1641 8.59375 C 95.8984 10.8887 97.3145 12.0605 99.4629 12.0605 C 102.49 12.0605 104.199 9.91211 104.199 6.5918 L 104.199 -2.58789 L 105.42 -2.58789 C 115.625 -2.58789 122.607 -8.83789 122.607 -19.5312 L 122.607 -41.3574 C 122.607 -52.0996 115.625 -58.3496 105.42 -58.3496 L 99.9512 -58.3496 L 99.9512 -60.4004 C 99.9512 -71.1914 93.457 -77.4902 82.666 -77.4902 L 27.0508 -77.4902 C 16.748 -77.4902 9.76562 -71.1914 9.76562 -60.4004 L 9.76562 -24.707 C 9.76562 -13.916 16.748 -7.61719 27.0508 -7.61719 L 32.0801 -7.61719 L 32.0801 2.63672 C 32.0801 5.95703 33.7402 7.95898 36.8652 7.95898 Z M 38.6719 -10.5469 C 38.6719 -13.0371 37.1582 -14.209 35.3027 -14.209 L 27.3926 -14.209 C 20.8496 -14.209 16.7969 -17.8223 16.7969 -24.8535 L 16.7969 -60.2051 C 16.7969 -67.2363 20.8496 -70.8984 27.3926 -70.8984 L 82.2754 -70.8984 C 88.8672 -70.8984 92.9199 -67.2363 92.9199 -60.2051 L 92.9199 -58.3496 L 68.8965 -58.3496 C 58.2031 -58.3496 51.7578 -52.0996 51.7578 -41.3574 L 51.7578 -19.5312 C 51.7578 -16.9922 52.0996 -14.7461 52.7832 -12.7441 L 38.6719 0.195312 Z M 97.6074 4.24805 L 84.9609 -7.17773 C 83.3008 -8.64258 82.2266 -9.17969 79.8828 -9.17969 L 69.2383 -9.17969 C 62.793 -9.17969 58.7891 -12.7441 58.7891 -19.7266 L 58.7891 -41.2109 C 58.7891 -48.1445 62.793 -51.7578 69.2383 -51.7578 L 105.078 -51.7578 C 111.572 -51.7578 115.527 -48.1445 115.527 -41.2109 L 115.527 -19.6777 C 115.527 -12.7441 111.572 -9.17969 105.078 -9.17969 L 101.025 -9.17969 C 99.1211 -9.17969 97.6074 -8.05664 97.6074 -5.56641 Z"/>
  </g>
  <g id="Light-S" transform="matrix(1 0 0 1 1089.68 696)">
   <path d="M 34.5215 5.85938 C 36.3281 5.85938 37.5488 5.22461 39.6973 3.36914 L 52.3926 -8.20312 C 54.9316 -4.88281 59.082 -3.125 64.5508 -3.125 L 79.3457 -3.125 L 91.8945 7.61719 C 93.8965 9.32617 95.0195 10.2539 96.6309 10.2539 C 98.9746 10.2539 100.244 8.59375 100.244 6.05469 L 100.244 -3.125 L 102.148 -3.125 C 111.279 -3.125 117.139 -8.54492 117.139 -17.9688 L 117.139 -41.2109 C 117.139 -50.6348 111.279 -56.1035 102.148 -56.1035 L 95.752 -56.1035 L 95.752 -59.7168 C 95.752 -69.7754 89.8438 -75.5371 79.7363 -75.5371 L 25.7324 -75.5371 C 16.0156 -75.5371 9.76562 -69.7754 9.76562 -59.7168 L 9.76562 -24.8047 C 9.76562 -14.7461 16.0156 -8.98438 25.7324 -8.98438 L 30.8105 -8.98438 L 30.8105 1.66016 C 30.8105 4.29688 32.1289 5.85938 34.5215 5.85938 Z M 35.9375 -11.2305 C 35.9375 -13.1348 34.7656 -14.0625 33.252 -14.0625 L 26.123 -14.0625 C 19.1895 -14.0625 15.1855 -17.8223 15.1855 -25.0488 L 15.1855 -59.4238 C 15.1855 -66.6992 19.1895 -70.459 26.123 -70.459 L 79.3457 -70.459 C 86.3281 -70.459 90.332 -66.6992 90.332 -59.4238 L 90.332 -56.1035 L 64.5508 -56.1035 C 55.0781 -56.1035 49.5117 -50.6348 49.5117 -41.2109 L 49.5117 -17.9688 C 49.5117 -16.2598 49.707 -14.7461 50.0488 -13.3301 L 35.9375 -0.146484 Z M 95.2148 4.10156 L 83.2031 -6.5918 C 81.8359 -7.8125 81.0059 -8.20312 79.1016 -8.20312 L 64.8926 -8.20312 C 58.5938 -8.20312 54.9316 -11.5723 54.9316 -18.2129 L 54.9316 -40.9668 C 54.9316 -47.5586 58.5938 -51.0254 64.8926 -51.0254 L 101.807 -51.0254 C 108.105 -51.0254 111.768 -47.5586 111.768 -40.9668 L 111.768 -18.2129 C 111.768 -11.5723 108.057 -8.20312 101.807 -8.20312 L 97.8027 -8.20312 C 96.3379 -8.20312 95.2148 -7.32422 95.2148 -5.46875 Z"/>
  </g>
  <g id="Thin-S" transform="matrix(1 0 0 1 796.535 696)">
   <path d="M 31.4941 3.125 C 32.5684 3.125 33.4473 2.63672 34.5703 1.61133 L 47.4121 -10.5957 C 49.0234 -6.20117 52.9297 -3.85742 58.7402 -3.85742 L 78.3203 -3.85742 L 90.2344 6.34766 C 91.2598 7.27539 91.9922 7.8125 92.9199 7.8125 C 94.2871 7.8125 95.0684 6.83594 95.0684 5.32227 L 95.0684 -3.85742 L 97.8516 -3.85742 C 105.469 -3.85742 110.01 -8.1543 110.01 -15.918 L 110.01 -41.0156 C 110.01 -48.7793 105.469 -53.125 97.8516 -53.125 L 90.1855 -53.125 L 90.1855 -58.8379 C 90.1855 -67.8711 85.0586 -72.9492 75.9277 -72.9492 L 24.0234 -72.9492 C 14.9902 -72.9492 9.76562 -67.8711 9.76562 -58.8379 L 9.76562 -24.9512 C 9.76562 -15.8691 14.9902 -10.791 24.0234 -10.791 L 29.1016 -10.791 L 29.1016 0.390625 C 29.1016 2.09961 30.0293 3.125 31.4941 3.125 Z M 32.2754 -12.1094 C 32.2754 -13.2812 31.543 -13.916 30.6152 -13.916 L 24.4629 -13.916 C 16.9922 -13.916 13.0859 -17.8223 13.0859 -25.3418 L 13.0859 -58.3984 C 13.0859 -65.9668 16.9922 -69.873 24.4629 -69.873 L 75.4883 -69.873 C 82.959 -69.873 86.8652 -65.9668 86.8652 -58.3984 L 86.8652 -53.125 L 58.7402 -53.125 C 50.9277 -53.125 46.5332 -48.7793 46.5332 -41.0156 L 46.5332 -15.8203 C 46.5332 -15.332 46.582 -14.8438 46.582 -14.3555 L 32.2754 -0.585938 Z M 91.9922 3.95508 L 80.957 -5.81055 C 79.9316 -6.68945 79.3457 -6.93359 78.0762 -6.93359 L 59.1309 -6.93359 C 53.0762 -6.93359 49.8047 -10.0098 49.8047 -16.2109 L 49.8535 -40.6738 C 49.8535 -46.8262 53.0762 -50 59.1309 -50 L 97.4121 -50 C 103.516 -50 106.738 -46.8262 106.738 -40.6738 L 106.738 -16.2598 C 106.738 -10.1074 103.467 -6.93359 97.4121 -6.93359 L 93.6035 -6.93359 C 92.6758 -6.93359 91.9922 -6.44531 91.9922 -5.37109 Z"/>
  </g>
  <g id="Ultralight-S" transform="matrix(1 0 0 1 501.679 696)">
   <path d="M 29.8828 1.70898 C 30.6641 1.70898 31.2988 1.26953 31.9336 0.683594 L 45.2148 -12.207 C 46.0938 -6.98242 49.707 -4.19922 55.7617 -4.19922 L 77.7832 -4.19922 L 89.3555 5.71289 C 89.8926 6.20117 90.4297 6.54297 91.0156 6.54297 C 91.8457 6.54297 92.4316 5.9082 92.4316 4.98047 L 92.4316 -4.19922 L 95.6055 -4.19922 C 102.49 -4.19922 106.299 -7.95898 106.299 -14.8438 L 106.299 -40.918 C 106.299 -47.8027 102.49 -51.5625 95.6055 -51.5625 L 87.3047 -51.5625 L 87.3047 -58.3496 C 87.3047 -66.9434 82.6172 -71.6309 73.9746 -71.6309 L 23.0957 -71.6309 C 14.4531 -71.6309 9.76562 -66.9434 9.76562 -58.3496 L 9.76562 -25.0488 C 9.76562 -16.4062 14.4531 -11.7676 23.0957 -11.7676 L 28.2227 -11.7676 L 28.2227 -0.244141 C 28.2227 0.927734 28.9062 1.70898 29.8828 1.70898 Z M 30.4199 -12.5977 C 30.4199 -13.3789 29.9316 -13.8184 29.1992 -13.8184 L 23.584 -13.8184 C 15.8203 -13.8184 11.9629 -17.8223 11.9629 -25.4883 L 11.9629 -57.8613 C 11.9629 -65.5762 15.8691 -69.5312 23.584 -69.5312 L 73.4863 -69.5312 C 81.2012 -69.5312 85.1074 -65.5762 85.1074 -57.8613 L 85.1074 -51.5625 L 55.7617 -51.5625 C 48.8281 -51.5625 45.0195 -47.8027 45.0195 -40.918 L 45.0195 -15.0391 L 30.4199 -0.830078 Z M 90.3809 3.85742 L 79.7852 -5.41992 C 78.9551 -6.15234 78.4668 -6.29883 77.5391 -6.29883 L 56.1523 -6.29883 C 50.1953 -6.29883 47.168 -9.22852 47.168 -15.1855 L 47.2168 -40.5273 C 47.2168 -46.4355 50.1953 -49.4629 56.1523 -49.4629 L 95.2148 -49.4629 C 101.172 -49.4629 104.15 -46.4355 104.15 -40.5273 L 104.15 -15.2832 C 104.15 -9.32617 101.123 -6.29883 95.2148 -6.29883 L 91.4062 -6.29883 C 90.8203 -6.29883 90.3809 -5.95703 90.3809 -5.27344 Z"/>
  </g>
 </g>
</svg>
