<?xml version="1.0" encoding="UTF-8"?>
<!--Generator: Apple Native CoreSVG 123-->
<!DOCTYPE svg
PUBLIC "-//W3C//DTD SVG 1.1//EN"
       "http://www.w3.org/Graphics/SVG/1.1/DTD/svg11.dtd">
<svg version="1.1" xmlns="http://www.w3.org/2000/svg" xmlns:xlink="http://www.w3.org/1999/xlink" width="3300" height="2200">
 <!--glyph: "uni100454.medium", point size: 100.000000, font version: "Version 15.0d7e11", template writer version: "5"-->
 <g id="Notes">
  <rect height="2200" id="artboard" style="fill:white;opacity:1" width="3300" x="0" y="0"/>
  <line id="" style="fill:none;stroke:black;opacity:1;stroke-width:0.5;" x1="263" x2="3036" y1="292" y2="292"/>
  <text style="stroke:none;fill:black;font-family:-apple-system,&quot;SF Pro Display&quot;,&quot;SF Pro Text&quot;,Helvetica,sans-serif;font-weight:bold;" transform="matrix(1 0 0 1 263 322)">Weight/Scale Variations</text>
  <text style="stroke:none;fill:black;font-family:-apple-system,&quot;SF Pro Display&quot;,&quot;SF Pro Text&quot;,Helvetica,sans-serif;text-anchor:middle;" transform="matrix(1 0 0 1 559.711 322)">Ultralight</text>
  <text style="stroke:none;fill:black;font-family:-apple-system,&quot;SF Pro Display&quot;,&quot;SF Pro Text&quot;,Helvetica,sans-serif;text-anchor:middle;" transform="matrix(1 0 0 1 856.422 322)">Thin</text>
  <text style="stroke:none;fill:black;font-family:-apple-system,&quot;SF Pro Display&quot;,&quot;SF Pro Text&quot;,Helvetica,sans-serif;text-anchor:middle;" transform="matrix(1 0 0 1 1153.13 322)">Light</text>
  <text style="stroke:none;fill:black;font-family:-apple-system,&quot;SF Pro Display&quot;,&quot;SF Pro Text&quot;,Helvetica,sans-serif;text-anchor:middle;" transform="matrix(1 0 0 1 1449.84 322)">Regular</text>
  <text style="stroke:none;fill:black;font-family:-apple-system,&quot;SF Pro Display&quot;,&quot;SF Pro Text&quot;,Helvetica,sans-serif;text-anchor:middle;" transform="matrix(1 0 0 1 1746.56 322)">Medium</text>
  <text style="stroke:none;fill:black;font-family:-apple-system,&quot;SF Pro Display&quot;,&quot;SF Pro Text&quot;,Helvetica,sans-serif;text-anchor:middle;" transform="matrix(1 0 0 1 2043.27 322)">Semibold</text>
  <text style="stroke:none;fill:black;font-family:-apple-system,&quot;SF Pro Display&quot;,&quot;SF Pro Text&quot;,Helvetica,sans-serif;text-anchor:middle;" transform="matrix(1 0 0 1 2339.98 322)">Bold</text>
  <text style="stroke:none;fill:black;font-family:-apple-system,&quot;SF Pro Display&quot;,&quot;SF Pro Text&quot;,Helvetica,sans-serif;text-anchor:middle;" transform="matrix(1 0 0 1 2636.69 322)">Heavy</text>
  <text style="stroke:none;fill:black;font-family:-apple-system,&quot;SF Pro Display&quot;,&quot;SF Pro Text&quot;,Helvetica,sans-serif;text-anchor:middle;" transform="matrix(1 0 0 1 2933.4 322)">Black</text>
  <line id="" style="fill:none;stroke:black;opacity:1;stroke-width:0.5;" x1="263" x2="3036" y1="1903" y2="1903"/>
  <g id="" transform="matrix(1 0 0 1 263 1933)">
   <path d="M 9.24805 0.830078 C 13.5547 0.830078 17.1387 -2.74414 17.1387 -7.05078 C 17.1387 -11.3574 13.5449 -14.9316 9.23828 -14.9316 C 4.94141 -14.9316 1.36719 -11.3574 1.36719 -7.05078 C 1.36719 -2.74414 4.95117 0.830078 9.24805 0.830078 Z M 9.24805 -0.654297 C 5.70312 -0.654297 2.87109 -3.49609 2.87109 -7.05078 C 2.87109 -10.6055 5.69336 -13.4473 9.23828 -13.4473 C 12.793 -13.4473 15.6348 -10.6055 15.6445 -7.05078 C 15.6543 -3.49609 12.8027 -0.654297 9.24805 -0.654297 Z M 9.22852 -3.42773 C 9.69727 -3.42773 9.9707 -3.74023 9.9707 -4.25781 L 9.9707 -6.31836 L 12.1973 -6.31836 C 12.6953 -6.31836 13.0371 -6.57227 13.0371 -7.04102 C 13.0371 -7.51953 12.7148 -7.7832 12.1973 -7.7832 L 9.9707 -7.7832 L 9.9707 -10.0098 C 9.9707 -10.5273 9.69727 -10.8496 9.22852 -10.8496 C 8.75977 -10.8496 8.50586 -10.5078 8.50586 -10.0098 L 8.50586 -7.7832 L 6.29883 -7.7832 C 5.78125 -7.7832 5.44922 -7.51953 5.44922 -7.04102 C 5.44922 -6.57227 5.80078 -6.31836 6.29883 -6.31836 L 8.50586 -6.31836 L 8.50586 -4.25781 C 8.50586 -3.75977 8.75977 -3.42773 9.22852 -3.42773 Z"/>
  </g>
  <g id="" transform="matrix(1 0 0 1 281.506 1933)">
   <path d="M 11.709 2.91016 C 17.1582 2.91016 21.6699 -1.60156 21.6699 -7.05078 C 21.6699 -12.4902 17.1484 -17.0117 11.6992 -17.0117 C 6.25977 -17.0117 1.74805 -12.4902 1.74805 -7.05078 C 1.74805 -1.60156 6.26953 2.91016 11.709 2.91016 Z M 11.709 1.25 C 7.09961 1.25 3.41797 -2.44141 3.41797 -7.05078 C 3.41797 -11.6504 7.08984 -15.3516 11.6992 -15.3516 C 16.3086 -15.3516 20 -11.6504 20.0098 -7.05078 C 20.0195 -2.44141 16.3184 1.25 11.709 1.25 Z M 11.6895 -2.41211 C 12.207 -2.41211 12.5195 -2.77344 12.5195 -3.33984 L 12.5195 -6.23047 L 15.5762 -6.23047 C 16.123 -6.23047 16.5039 -6.51367 16.5039 -7.03125 C 16.5039 -7.55859 16.1426 -7.86133 15.5762 -7.86133 L 12.5195 -7.86133 L 12.5195 -10.9277 C 12.5195 -11.5039 12.207 -11.8555 11.6895 -11.8555 C 11.1719 -11.8555 10.8789 -11.4844 10.8789 -10.9277 L 10.8789 -7.86133 L 7.83203 -7.86133 C 7.26562 -7.86133 6.89453 -7.55859 6.89453 -7.03125 C 6.89453 -6.51367 7.28516 -6.23047 7.83203 -6.23047 L 10.8789 -6.23047 L 10.8789 -3.33984 C 10.8789 -2.79297 11.1719 -2.41211 11.6895 -2.41211 Z"/>
  </g>
  <g id="" transform="matrix(1 0 0 1 304.924 1933)">
   <path d="M 14.9707 5.67383 C 21.9336 5.67383 27.6953 -0.078125 27.6953 -7.04102 C 27.6953 -14.0039 21.9238 -19.7559 14.9609 -19.7559 C 8.00781 -19.7559 2.25586 -14.0039 2.25586 -7.04102 C 2.25586 -0.078125 8.01758 5.67383 14.9707 5.67383 Z M 14.9707 3.85742 C 8.93555 3.85742 4.08203 -1.00586 4.08203 -7.04102 C 4.08203 -13.0762 8.92578 -17.9395 14.9609 -17.9395 C 21.0059 -17.9395 25.8594 -13.0762 25.8691 -7.04102 C 25.8789 -1.00586 21.0156 3.85742 14.9707 3.85742 Z M 14.9512 -1.06445 C 15.5176 -1.06445 15.8691 -1.45508 15.8691 -2.06055 L 15.8691 -6.13281 L 20.1074 -6.13281 C 20.6934 -6.13281 21.1133 -6.46484 21.1133 -7.02148 C 21.1133 -7.59766 20.7227 -7.93945 20.1074 -7.93945 L 15.8691 -7.93945 L 15.8691 -12.1875 C 15.8691 -12.8027 15.5176 -13.1934 14.9512 -13.1934 C 14.3848 -13.1934 14.0625 -12.7832 14.0625 -12.1875 L 14.0625 -7.93945 L 9.83398 -7.93945 C 9.21875 -7.93945 8.80859 -7.59766 8.80859 -7.02148 C 8.80859 -6.46484 9.23828 -6.13281 9.83398 -6.13281 L 14.0625 -6.13281 L 14.0625 -2.06055 C 14.0625 -1.47461 14.3848 -1.06445 14.9512 -1.06445 Z"/>
  </g>
  <text style="stroke:none;fill:black;font-family:-apple-system,&quot;SF Pro Display&quot;,&quot;SF Pro Text&quot;,Helvetica,sans-serif;font-weight:bold;" transform="matrix(1 0 0 1 263 1953)">Design Variations</text>
  <text style="stroke:none;fill:black;font-family:-apple-system,&quot;SF Pro Display&quot;,&quot;SF Pro Text&quot;,Helvetica,sans-serif;" transform="matrix(1 0 0 1 263 1971)">Symbols are supported in up to nine weights and three scales.</text>
  <text style="stroke:none;fill:black;font-family:-apple-system,&quot;SF Pro Display&quot;,&quot;SF Pro Text&quot;,Helvetica,sans-serif;" transform="matrix(1 0 0 1 263 1989)">For optimal layout with text and other symbols, vertically align</text>
  <text style="stroke:none;fill:black;font-family:-apple-system,&quot;SF Pro Display&quot;,&quot;SF Pro Text&quot;,Helvetica,sans-serif;" transform="matrix(1 0 0 1 263 2007)">symbols with the adjacent text.</text>
  <rect height="14" id="" style="fill:#00AEEF;stroke:none;opacity:0.4;" width="3" x="776" y="1919"/>
  <g id="" transform="matrix(1 0 0 1 779 1933)">
   <path d="M 10.5273 0 L 12.373 0 L 7.17773 -14.0918 L 5.43945 -14.0918 L 0.244141 0 L 2.08984 0 L 3.50586 -4.0332 L 9.11133 -4.0332 Z M 6.2793 -11.9531 L 6.33789 -11.9531 L 8.59375 -5.52734 L 4.02344 -5.52734 Z"/>
  </g>
  <rect height="14" id="" style="fill:#00AEEF;stroke:none;opacity:0.4;" width="3" x="791.617" y="1919"/>
  <text style="stroke:none;fill:black;font-family:-apple-system,&quot;SF Pro Display&quot;,&quot;SF Pro Text&quot;,Helvetica,sans-serif;font-weight:bold;" transform="matrix(1 0 0 1 776 1953)">Margins</text>
  <text style="stroke:none;fill:black;font-family:-apple-system,&quot;SF Pro Display&quot;,&quot;SF Pro Text&quot;,Helvetica,sans-serif;" transform="matrix(1 0 0 1 776 1971)">Leading and trailing margins on the left and right side of each symbol</text>
  <text style="stroke:none;fill:black;font-family:-apple-system,&quot;SF Pro Display&quot;,&quot;SF Pro Text&quot;,Helvetica,sans-serif;" transform="matrix(1 0 0 1 776 1989)">can be adjusted by modifying the width of the blue rectangles.</text>
  <text style="stroke:none;fill:black;font-family:-apple-system,&quot;SF Pro Display&quot;,&quot;SF Pro Text&quot;,Helvetica,sans-serif;" transform="matrix(1 0 0 1 776 2007)">Modifications are automatically applied proportionally to all</text>
  <text style="stroke:none;fill:black;font-family:-apple-system,&quot;SF Pro Display&quot;,&quot;SF Pro Text&quot;,Helvetica,sans-serif;" transform="matrix(1 0 0 1 776 2025)">scales and weights.</text>
  <g id="" transform="matrix(1 0 0 1 1289 1933)">
   <path d="M 2.83203 3.11523 L 4.375 4.6582 C 5.22461 5.48828 6.19141 5.41992 7.06055 4.46289 L 17.2754 -6.66016 C 17.7051 -6.36719 18.0957 -6.37695 18.5645 -6.47461 L 19.6094 -6.68945 L 20.3027 -5.99609 L 20.2539 -5.47852 C 20.1855 -4.95117 20.3516 -4.53125 20.8496 -4.0332 L 21.6602 -3.22266 C 22.168 -2.71484 22.8223 -2.68555 23.3008 -3.16406 L 26.5527 -6.41602 C 27.0312 -6.89453 27.0117 -7.54883 26.5039 -8.05664 L 25.6836 -8.87695 C 25.1855 -9.375 24.7754 -9.55078 24.2383 -9.47266 L 23.7109 -9.41406 L 23.0566 -10.0781 L 23.3398 -11.2207 C 23.4863 -11.7871 23.3398 -12.2559 22.7148 -12.8613 L 20.3027 -15.2539 C 16.7578 -18.7793 12.2266 -18.6719 9.11133 -15.5371 C 8.69141 -15.1074 8.64258 -14.5215 8.91602 -14.0918 C 9.15039 -13.7207 9.62891 -13.4961 10.2734 -13.6621 C 11.7871 -14.043 13.3008 -13.9258 14.7852 -12.9199 L 14.1602 -11.3379 C 13.9258 -10.752 13.9453 -10.2734 14.1797 -9.83398 L 3.01758 0.439453 C 2.08008 1.30859 1.97266 2.25586 2.83203 3.11523 Z M 10.6738 -15.1465 C 13.3398 -17.1387 16.6504 -16.8262 19.0527 -14.4141 L 21.6797 -11.8066 C 21.9141 -11.5723 21.9434 -11.3867 21.8848 -11.0938 L 21.5039 -9.53125 L 23.0762 -7.95898 L 24.043 -8.04688 C 24.3262 -8.07617 24.4141 -8.05664 24.6387 -7.83203 L 25.2637 -7.20703 L 22.5098 -4.46289 L 21.8848 -5.07812 C 21.6602 -5.30273 21.6406 -5.40039 21.6699 -5.68359 L 21.7578 -6.64062 L 20.1953 -8.20312 L 18.5742 -7.89062 C 18.291 -7.83203 18.1445 -7.83203 17.9102 -8.07617 L 15.7324 -10.2539 C 15.5078 -10.4883 15.4785 -10.625 15.6055 -10.9473 L 16.5527 -13.2227 C 14.9512 -14.7559 12.8418 -15.6055 10.8008 -14.9512 C 10.7129 -14.9219 10.6445 -14.9414 10.6152 -14.9805 C 10.5859 -15.0293 10.5859 -15.0781 10.6738 -15.1465 Z M 4.10156 2.41211 C 3.61328 1.91406 3.78906 1.61133 4.12109 1.30859 L 15.0781 -8.80859 L 16.3086 -7.57812 L 6.15234 3.34961 C 5.84961 3.68164 5.46875 3.7793 5.06836 3.37891 Z"/>
  </g>
  <text style="stroke:none;fill:black;font-family:-apple-system,&quot;SF Pro Display&quot;,&quot;SF Pro Text&quot;,Helvetica,sans-serif;font-weight:bold;" transform="matrix(1 0 0 1 1289 1953)">Exporting</text>
  <text style="stroke:none;fill:black;font-family:-apple-system,&quot;SF Pro Display&quot;,&quot;SF Pro Text&quot;,Helvetica,sans-serif;" transform="matrix(1 0 0 1 1289 1971)">Symbols should be outlined when exporting to ensure the</text>
  <text style="stroke:none;fill:black;font-family:-apple-system,&quot;SF Pro Display&quot;,&quot;SF Pro Text&quot;,Helvetica,sans-serif;" transform="matrix(1 0 0 1 1289 1989)">design is preserved when submitting to Xcode.</text>
  <text id="template-version" style="stroke:none;fill:black;font-family:-apple-system,&quot;SF Pro Display&quot;,&quot;SF Pro Text&quot;,Helvetica,sans-serif;text-anchor:end;" transform="matrix(1 0 0 1 3036 1933)">Template v.1.0</text>
  <text style="stroke:none;fill:black;font-family:-apple-system,&quot;SF Pro Display&quot;,&quot;SF Pro Text&quot;,Helvetica,sans-serif;text-anchor:end;" transform="matrix(1 0 0 1 3036 1951)">Generated from studentdesk</text>
  <text style="stroke:none;fill:black;font-family:-apple-system,&quot;SF Pro Display&quot;,&quot;SF Pro Text&quot;,Helvetica,sans-serif;text-anchor:end;" transform="matrix(1 0 0 1 3036 1969)">Typeset at 100 points</text>
  <text style="stroke:none;fill:black;font-family:-apple-system,&quot;SF Pro Display&quot;,&quot;SF Pro Text&quot;,Helvetica,sans-serif;" transform="matrix(1 0 0 1 263 726)">Small</text>
  <text style="stroke:none;fill:black;font-family:-apple-system,&quot;SF Pro Display&quot;,&quot;SF Pro Text&quot;,Helvetica,sans-serif;" transform="matrix(1 0 0 1 263 1156)">Medium</text>
  <text style="stroke:none;fill:black;font-family:-apple-system,&quot;SF Pro Display&quot;,&quot;SF Pro Text&quot;,Helvetica,sans-serif;" transform="matrix(1 0 0 1 263 1586)">Large</text>
 </g>
 <g id="Guides">
  <g id="H-reference" style="fill:#27AAE1;stroke:none;" transform="matrix(1 0 0 1 339 696)">
   <path d="M 54.9316 0 L 57.666 0 L 30.5664 -70.459 L 28.0762 -70.459 L 0.976562 0 L 3.66211 0 L 12.9395 -24.4629 L 45.7031 -24.4629 Z M 29.1992 -67.0898 L 29.4434 -67.0898 L 44.8242 -26.709 L 13.8184 -26.709 Z"/>
  </g>
  <line id="Baseline-S" style="fill:none;stroke:#27AAE1;opacity:1;stroke-width:0.577;" x1="263" x2="3036" y1="696" y2="696"/>
  <line id="Capline-S" style="fill:none;stroke:#27AAE1;opacity:1;stroke-width:0.577;" x1="263" x2="3036" y1="625.541" y2="625.541"/>
  <g id="H-reference" style="fill:#27AAE1;stroke:none;" transform="matrix(1 0 0 1 339 1126)">
   <path d="M 54.9316 0 L 57.666 0 L 30.5664 -70.459 L 28.0762 -70.459 L 0.976562 0 L 3.66211 0 L 12.9395 -24.4629 L 45.7031 -24.4629 Z M 29.1992 -67.0898 L 29.4434 -67.0898 L 44.8242 -26.709 L 13.8184 -26.709 Z"/>
  </g>
  <line id="Baseline-M" style="fill:none;stroke:#27AAE1;opacity:1;stroke-width:0.577;" x1="263" x2="3036" y1="1126" y2="1126"/>
  <line id="Capline-M" style="fill:none;stroke:#27AAE1;opacity:1;stroke-width:0.577;" x1="263" x2="3036" y1="1055.54" y2="1055.54"/>
  <g id="H-reference" style="fill:#27AAE1;stroke:none;" transform="matrix(1 0 0 1 339 1556)">
   <path d="M 54.9316 0 L 57.666 0 L 30.5664 -70.459 L 28.0762 -70.459 L 0.976562 0 L 3.66211 0 L 12.9395 -24.4629 L 45.7031 -24.4629 Z M 29.1992 -67.0898 L 29.4434 -67.0898 L 44.8242 -26.709 L 13.8184 -26.709 Z"/>
  </g>
  <line id="Baseline-L" style="fill:none;stroke:#27AAE1;opacity:1;stroke-width:0.577;" x1="263" x2="3036" y1="1556" y2="1556"/>
  <line id="Capline-L" style="fill:none;stroke:#27AAE1;opacity:1;stroke-width:0.577;" x1="263" x2="3036" y1="1485.54" y2="1485.54"/>
  <rect height="119.336" id="left-margin" style="fill:#00AEEF;stroke:none;opacity:0.4;" width="12.4512" x="1390.45" y="1030.79"/>
  <rect height="119.336" id="right-margin" style="fill:#00AEEF;stroke:none;opacity:0.4;" width="12.4512" x="1496.79" y="1030.79"/>
 </g>
 <g id="Symbols">
  <g id="Black-L" transform="matrix(1 0 0 1 2849.78 1556)">
   <path d="M 59.4727 -74.8047 L 109.424 -74.8047 C 118.115 -74.8047 122.168 -78.8086 122.168 -87.3047 L 122.168 -107.129 C 122.168 -115.527 118.115 -119.531 109.424 -119.531 L 59.4727 -119.531 C 50.8301 -119.531 46.6797 -115.527 46.6797 -107.129 L 46.6797 -87.3047 C 46.6797 -78.8086 50.8301 -74.8047 59.4727 -74.8047 Z M 45.6055 44.3848 C 50.5371 44.3848 53.125 42.2363 54.4434 37.4023 L 59.2773 18.9941 L 107.764 18.9941 L 112.646 37.4023 C 113.916 42.2363 116.602 44.3848 121.436 44.3848 C 126.758 44.3848 130.029 40.7227 130.029 35.7422 C 130.029 34.668 129.883 33.5938 129.59 32.4707 L 120.166 -3.66211 L 125.146 -3.66211 C 130.615 -3.66211 134.863 -8.10547 134.863 -13.2812 C 134.863 -18.7012 130.811 -22.998 125.244 -22.998 L 52.2949 -22.998 C 44.9707 -22.998 41.3086 -26.5137 41.3086 -33.5938 L 41.3086 -46.875 L 45.8984 -46.875 L 45.8984 -43.0176 C 45.8984 -35.3516 50.293 -31.0059 58.2031 -31.0059 L 110.01 -31.0059 C 117.92 -31.0059 122.363 -35.3516 122.363 -43.0176 L 122.363 -46.875 L 142.041 -46.875 C 147.266 -46.875 151.172 -51.123 151.172 -56.0547 C 151.172 -61.1816 147.363 -65.2832 142.139 -65.2832 L 25 -65.2832 C 19.873 -65.2832 16.0645 -61.1816 16.0645 -56.0547 C 16.0645 -51.123 19.9707 -46.875 25.0977 -46.875 L 27.6367 -46.875 L 27.6367 -19.4824 C 27.6367 -9.61914 33.6914 -3.66211 43.7012 -3.66211 L 46.875 -3.66211 L 37.4512 32.4707 C 37.1582 33.5449 37.0117 34.5703 37.0117 35.6445 C 37.0117 40.625 40.1367 44.3848 45.6055 44.3848 Z M 63.5254 3.22266 L 65.332 -3.66211 L 101.758 -3.66211 L 103.516 3.22266 Z"/>
  </g>
  <g id="Heavy-L" transform="matrix(1 0 0 1 2554.85 1556)">
   <path d="M 58.4961 -72.9004 L 106.641 -72.9004 C 114.99 -72.9004 118.945 -76.7578 118.945 -84.9121 L 118.945 -104.248 C 118.945 -112.354 114.99 -116.211 106.641 -116.211 L 58.4961 -116.211 C 50.1465 -116.211 46.1426 -112.354 46.1426 -104.248 L 46.1426 -84.9121 C 46.1426 -76.7578 50.1465 -72.9004 58.4961 -72.9004 Z M 43.5547 41.4062 C 47.9004 41.4062 50.1465 39.4531 51.2695 35.2051 L 56.2012 16.4551 L 107.52 16.4551 L 112.451 35.2051 C 113.574 39.4531 115.918 41.4062 120.166 41.4062 C 124.902 41.4062 127.734 38.2324 127.734 33.8379 C 127.734 32.9102 127.588 31.9336 127.344 30.957 L 117.725 -5.61523 L 122.607 -5.61523 C 127.588 -5.61523 131.445 -9.57031 131.445 -14.209 C 131.445 -19.1406 127.783 -22.9004 122.754 -22.9004 L 50 -22.9004 C 43.1152 -22.9004 39.6484 -26.2207 39.6484 -32.9102 L 39.6484 -47.2168 L 45.6543 -47.2168 L 45.6543 -42.9688 C 45.6543 -35.4492 49.8535 -31.3477 57.6172 -31.3477 L 106.982 -31.3477 C 114.697 -31.3477 118.945 -35.4492 118.945 -42.9688 L 118.945 -47.2168 L 139.551 -47.2168 C 144.189 -47.2168 147.607 -50.8301 147.607 -55.1758 C 147.607 -59.7168 144.287 -63.2324 139.648 -63.2324 L 23.877 -63.2324 C 19.3359 -63.2324 16.0645 -59.7168 16.0645 -55.1758 C 16.0645 -50.8301 19.4824 -47.2168 24.0234 -47.2168 L 27.1973 -47.2168 L 27.1973 -20.8984 C 27.1973 -11.3281 33.0566 -5.61523 42.7246 -5.61523 L 45.9961 -5.61523 L 36.377 30.957 C 36.1328 31.9336 35.9863 32.8125 35.9863 33.7891 C 35.9863 38.1348 38.6719 41.4062 43.5547 41.4062 Z M 60.0098 2.39258 L 62.1094 -5.61523 L 101.611 -5.61523 L 103.711 2.39258 Z"/>
  </g>
  <g id="Bold-L" transform="matrix(1 0 0 1 2260.12 1556)">
   <path d="M 57.373 -70.752 L 103.516 -70.752 C 111.523 -70.752 115.332 -74.4629 115.332 -82.2754 L 115.332 -101.025 C 115.332 -108.838 111.523 -112.5 103.516 -112.5 L 57.373 -112.5 C 49.3652 -112.5 45.5078 -108.838 45.5078 -101.025 L 45.5078 -82.2754 C 45.5078 -74.4629 49.3652 -70.752 57.373 -70.752 Z M 41.2598 38.0371 C 44.9707 38.0371 46.8262 36.2793 47.7539 32.7637 L 52.832 13.5742 L 107.227 13.5742 L 112.256 32.7637 C 113.232 36.2793 115.137 38.0371 118.75 38.0371 C 122.754 38.0371 125.146 35.4492 125.146 31.7383 C 125.146 30.957 125.049 30.127 124.805 29.2969 L 114.99 -7.8125 L 119.775 -7.8125 C 124.219 -7.8125 127.588 -11.1816 127.588 -15.2344 C 127.588 -19.5801 124.463 -22.8027 119.971 -22.8027 L 47.4609 -22.8027 C 41.0156 -22.8027 37.7441 -25.8789 37.7441 -32.1289 L 37.7441 -47.5586 L 45.4102 -47.5586 L 45.4102 -42.9199 C 45.4102 -35.5957 49.3652 -31.7383 56.9336 -31.7383 L 103.613 -31.7383 C 111.133 -31.7383 115.088 -35.5957 115.088 -42.9199 L 115.088 -47.5586 L 136.768 -47.5586 C 140.771 -47.5586 143.652 -50.4883 143.652 -54.1992 C 143.652 -58.0566 140.82 -60.9375 136.914 -60.9375 L 22.6562 -60.9375 C 18.7988 -60.9375 16.0645 -58.0566 16.0645 -54.1992 C 16.0645 -50.4883 18.8965 -47.5586 22.8027 -47.5586 L 26.7578 -47.5586 L 26.7578 -22.5586 C 26.7578 -13.2812 32.3242 -7.8125 41.6504 -7.8125 L 45.0195 -7.8125 L 35.2051 29.2969 C 35.0098 30.0781 34.8633 30.8594 34.8633 31.7383 C 34.8633 35.3516 37.0605 38.0371 41.2598 38.0371 Z M 56.0547 1.51367 L 58.5449 -7.8125 L 101.514 -7.8125 L 103.955 1.51367 Z"/>
  </g>
  <g id="Semibold-L" transform="matrix(1 0 0 1 1964.78 1556)">
   <path d="M 56.5918 -69.2871 L 101.367 -69.2871 C 109.131 -69.2871 112.842 -72.8516 112.842 -80.4688 L 112.842 -98.8281 C 112.842 -106.396 109.131 -109.961 101.367 -109.961 L 56.5918 -109.961 C 48.8281 -109.961 45.0684 -106.396 45.0684 -98.8281 L 45.0684 -80.4688 C 45.0684 -72.8516 48.8281 -69.2871 56.5918 -69.2871 Z M 39.6973 35.7422 C 42.9688 35.7422 44.4824 34.1309 45.3125 31.0547 L 50.4883 11.6211 L 106.982 11.6211 L 112.158 31.0547 C 112.939 34.1309 114.648 35.7422 117.773 35.7422 C 121.338 35.7422 123.34 33.4961 123.34 30.2734 C 123.34 29.5898 123.291 28.8574 123.047 28.125 L 113.135 -9.32617 L 117.822 -9.32617 C 121.924 -9.32617 124.951 -12.2559 124.951 -15.9668 C 124.951 -19.9219 122.119 -22.7051 118.018 -22.7051 L 45.7031 -22.7051 C 39.5996 -22.7051 36.4258 -25.6836 36.4258 -31.543 L 36.4258 -47.8027 L 45.2637 -47.8027 L 45.2637 -42.8711 C 45.2637 -35.6445 49.0234 -31.9824 56.4453 -31.9824 L 101.27 -31.9824 C 108.691 -31.9824 112.451 -35.6445 112.451 -42.8711 L 112.451 -47.8027 L 134.814 -47.8027 C 138.428 -47.8027 140.918 -50.293 140.918 -53.5645 C 140.918 -56.9336 138.477 -59.3262 135.01 -59.3262 L 21.7773 -59.3262 C 18.4082 -59.3262 16.0645 -56.8848 16.0645 -53.5645 C 16.0645 -50.293 18.5059 -47.8027 21.9727 -47.8027 L 26.416 -47.8027 L 26.416 -23.6816 C 26.416 -14.5996 31.8359 -9.32617 40.918 -9.32617 L 44.3359 -9.32617 L 34.4238 28.125 C 34.2285 28.8574 34.1309 29.4922 34.1309 30.2734 C 34.1309 33.3984 35.9863 35.7422 39.6973 35.7422 Z M 53.3691 0.878906 L 56.0547 -9.32617 L 101.416 -9.32617 L 104.102 0.878906 Z"/>
  </g>
  <g id="Medium-L" transform="matrix(1 0 0 1 1669.11 1556)">
   <path d="M 56.0059 -68.1641 L 99.7559 -68.1641 C 107.275 -68.1641 110.938 -71.6797 110.938 -79.0527 L 110.938 -97.1191 C 110.938 -104.541 107.275 -108.008 99.7559 -108.008 L 56.0059 -108.008 C 48.4375 -108.008 44.7754 -104.541 44.7754 -97.1191 L 44.7754 -79.0527 C 44.7754 -71.6797 48.4375 -68.1641 56.0059 -68.1641 Z M 38.5254 33.9844 C 41.4062 33.9844 42.7734 32.4707 43.5059 29.7363 L 48.6816 10.1074 L 106.836 10.1074 L 112.061 29.7363 C 112.744 32.4707 114.258 33.9844 116.992 33.9844 C 120.215 33.9844 122.021 32.0312 122.021 29.1504 C 122.021 28.5645 121.924 27.9297 121.729 27.2461 L 111.719 -10.498 L 116.357 -10.498 C 120.166 -10.498 122.998 -13.1348 122.998 -16.5039 C 122.998 -20.166 120.361 -22.6562 116.602 -22.6562 L 44.3359 -22.6562 C 38.5254 -22.6562 35.4492 -25.4883 35.4492 -31.1523 L 35.4492 -47.998 L 45.166 -47.998 L 45.166 -42.8711 C 45.166 -35.6934 48.7793 -32.1777 56.1035 -32.1777 L 99.4629 -32.1777 C 106.787 -32.1777 110.449 -35.6934 110.449 -42.8711 L 110.449 -47.998 L 133.35 -47.998 C 136.621 -47.998 138.818 -50.0977 138.818 -53.0273 C 138.818 -56.0547 136.67 -58.1543 133.545 -58.1543 L 21.1426 -58.1543 C 18.1152 -58.1543 16.0645 -56.0547 16.0645 -53.0273 C 16.0645 -50.0977 18.2129 -47.998 21.3379 -47.998 L 26.2207 -47.998 L 26.2207 -24.5117 C 26.2207 -15.625 31.4453 -10.498 40.3809 -10.498 L 43.8477 -10.498 L 33.7891 27.2461 C 33.6426 27.8809 33.5449 28.4668 33.5449 29.1992 C 33.5449 31.9336 35.1074 33.9844 38.5254 33.9844 Z M 51.3184 0.390625 L 54.1992 -10.498 L 101.318 -10.498 L 104.199 0.390625 Z"/>
  </g>
  <g id="Regular-L" transform="matrix(1 0 0 1 1373.75 1556)">
   <path d="M 55.2246 -66.6992 L 97.6074 -66.6992 C 104.932 -66.6992 108.496 -70.1172 108.496 -77.2461 L 108.496 -94.9219 C 108.496 -102.148 104.932 -105.518 97.6074 -105.518 L 55.2246 -105.518 C 47.9004 -105.518 44.3359 -102.148 44.3359 -94.9219 L 44.3359 -77.2461 C 44.3359 -70.1172 47.9004 -66.6992 55.2246 -66.6992 Z M 36.9629 31.6895 C 39.4043 31.6895 40.4785 30.3711 41.0645 28.0762 L 46.3867 8.1543 L 106.641 8.1543 L 111.914 28.0762 C 112.5 30.3711 113.721 31.6895 116.016 31.6895 C 118.75 31.6895 120.215 30.127 120.215 27.7344 C 120.215 27.2461 120.166 26.709 120.02 26.0742 L 109.814 -12.0117 L 114.453 -12.0117 C 117.871 -12.0117 120.361 -14.209 120.361 -17.2363 C 120.361 -20.459 118.115 -22.5586 114.697 -22.5586 L 42.5781 -22.5586 C 37.1094 -22.5586 34.1797 -25.293 34.1797 -30.6152 L 34.1797 -48.2422 L 44.9707 -48.2422 L 44.9707 -42.8223 C 44.9707 -35.791 48.4375 -32.4707 55.6641 -32.4707 L 97.168 -32.4707 C 104.346 -32.4707 107.812 -35.791 107.812 -42.8223 L 107.812 -48.2422 L 131.445 -48.2422 C 134.277 -48.2422 136.133 -49.8535 136.133 -52.3926 C 136.133 -54.9316 134.326 -56.5918 131.641 -56.5918 L 20.2637 -56.5918 C 17.7246 -56.5918 16.0645 -54.8828 16.0645 -52.3926 C 16.0645 -49.8535 17.8223 -48.2422 20.5078 -48.2422 L 25.8789 -48.2422 L 25.8789 -25.6348 C 25.8789 -16.9922 30.957 -12.0117 39.6484 -12.0117 L 43.1641 -12.0117 L 33.0078 26.0742 C 32.8613 26.6602 32.7637 27.1484 32.7637 27.7832 C 32.7637 30.0293 34.0332 31.6895 36.9629 31.6895 Z M 48.6328 -0.244141 L 51.7578 -12.0117 L 101.27 -12.0117 L 104.346 -0.244141 Z"/>
  </g>
  <g id="Light-L" transform="matrix(1 0 0 1 1077.79 1556)">
   <path d="M 54.5898 -65.5762 L 96.4844 -65.5762 C 103.711 -65.5762 107.227 -68.9453 107.227 -76.0254 L 107.227 -93.5059 C 107.227 -100.635 103.711 -103.906 96.4844 -103.906 L 54.5898 -103.906 C 47.3633 -103.906 43.8477 -100.635 43.8477 -93.5059 L 43.8477 -76.0254 C 43.8477 -68.9453 47.3633 -65.5762 54.5898 -65.5762 Z M 36.2305 30.127 C 38.0371 30.127 38.916 29.1504 39.3555 27.4902 L 44.6289 7.76367 L 107.422 7.76367 L 112.646 27.4902 C 113.086 29.1504 114.062 30.127 115.771 30.127 C 117.871 30.127 119.043 28.9551 119.043 27.0996 C 119.043 26.8066 119.043 26.3672 118.896 25.8789 L 108.545 -12.6953 L 114.502 -12.6953 C 116.943 -12.6953 118.75 -14.3555 118.75 -16.5527 C 118.75 -18.9453 117.09 -20.5078 114.648 -20.5078 L 42.2852 -20.5078 C 35.791 -20.5078 32.6172 -23.5352 32.6172 -29.9316 L 32.6172 -48.0957 L 44.873 -48.0957 L 44.873 -41.6016 C 44.873 -34.7656 48.2422 -31.4941 55.2734 -31.4941 L 95.8008 -31.4941 C 102.832 -31.4941 106.201 -34.7656 106.201 -41.6016 L 106.201 -48.0957 L 131.152 -48.0957 C 133.252 -48.0957 134.619 -49.3652 134.619 -51.2695 C 134.619 -53.2227 133.252 -54.4922 131.299 -54.4922 L 19.2383 -54.4922 C 17.334 -54.4922 16.0645 -53.1738 16.0645 -51.2695 C 16.0645 -49.3652 17.4316 -48.0957 19.3848 -48.0957 L 26.2695 -48.0957 L 26.2695 -26.8066 C 26.2695 -17.7246 31.2988 -12.6953 40.4297 -12.6953 L 43.5059 -12.6953 L 33.1543 25.8789 C 33.0566 26.3672 33.0078 26.709 33.0078 27.1484 C 33.0078 28.9062 34.0332 30.127 36.2305 30.127 Z M 46.3867 1.26953 L 50.0977 -12.6953 L 101.953 -12.6953 L 105.664 1.26953 Z"/>
  </g>
  <g id="Thin-L" transform="matrix(1 0 0 1 782.081 1556)">
   <path d="M 53.7598 -64.1113 L 95.0195 -64.1113 C 102.148 -64.1113 105.615 -67.4316 105.615 -74.3652 L 105.615 -91.6016 C 105.615 -98.6328 102.148 -101.855 95.0195 -101.855 L 53.7598 -101.855 C 46.6309 -101.855 43.1641 -98.6328 43.1641 -91.6016 L 43.1641 -74.3652 C 43.1641 -67.4316 46.6309 -64.1113 53.7598 -64.1113 Z M 35.3027 28.0762 C 36.2305 28.0762 36.8652 27.5391 37.1094 26.709 L 42.334 7.17773 L 108.447 7.17773 L 113.672 26.709 C 113.867 27.5391 114.551 28.0762 115.479 28.0762 C 116.65 28.0762 117.48 27.4414 117.48 26.3184 C 117.48 26.1719 117.48 25.9766 117.383 25.5859 L 106.836 -13.623 L 114.551 -13.623 C 115.723 -13.623 116.602 -14.5508 116.602 -15.7227 C 116.602 -16.8945 115.723 -17.8223 114.6 -17.8223 L 41.8945 -17.8223 C 34.0332 -17.8223 30.5176 -21.2402 30.5176 -29.0527 L 30.5176 -47.9492 L 44.7266 -47.9492 L 44.7266 -40.0391 C 44.7266 -33.3984 47.998 -30.2246 54.7852 -30.2246 L 93.9941 -30.2246 C 100.781 -30.2246 104.053 -33.3984 104.053 -40.0391 L 104.053 -47.9492 L 130.762 -47.9492 C 131.836 -47.9492 132.617 -48.7305 132.617 -49.8047 C 132.617 -50.9277 131.836 -51.709 130.811 -51.709 L 17.8711 -51.709 C 16.8457 -51.709 16.0645 -50.9277 16.0645 -49.8047 C 16.0645 -48.7305 16.8457 -47.9492 17.9199 -47.9492 L 26.8066 -47.9492 L 26.8066 -28.418 C 26.8066 -18.7012 31.7871 -13.623 41.5039 -13.623 L 43.9453 -13.623 L 33.3984 25.5859 C 33.3008 25.9766 33.3008 26.1719 33.3008 26.3184 C 33.3008 27.4414 34.082 28.0762 35.3027 28.0762 Z M 43.4082 3.27148 L 47.9004 -13.623 L 102.832 -13.623 L 107.373 3.27148 Z"/>
  </g>
  <g id="Ultralight-L" transform="matrix(1 0 0 1 485.859 1556)">
   <path d="M 53.3203 -63.3789 L 94.2871 -63.3789 C 101.318 -63.3789 104.785 -66.6504 104.785 -73.5352 L 104.785 -90.625 C 104.785 -97.5586 101.318 -100.781 94.2871 -100.781 L 53.3203 -100.781 C 46.2891 -100.781 42.8223 -97.5586 42.8223 -90.625 L 42.8223 -73.5352 C 42.8223 -66.6504 46.2891 -63.3789 53.3203 -63.3789 Z M 34.8145 27.0508 C 35.3027 27.0508 35.8398 26.7578 35.9375 26.3184 L 41.1621 6.88477 L 108.984 6.88477 L 114.16 26.3184 C 114.307 26.7578 114.795 27.0508 115.283 27.0508 C 116.064 27.0508 116.699 26.6602 116.699 25.8789 C 116.699 25.8789 116.699 25.7324 116.602 25.4395 L 105.957 -14.1113 L 114.6 -14.1113 C 115.088 -14.1113 115.479 -14.6484 115.479 -15.2832 C 115.479 -15.8691 115.039 -16.4062 114.551 -16.4062 L 41.6992 -16.4062 C 33.1543 -16.4062 29.4434 -20.0684 29.4434 -28.6133 L 29.4434 -47.8516 L 44.6777 -47.8516 L 44.6777 -39.209 C 44.6777 -32.666 47.8516 -29.5898 54.541 -29.5898 L 93.0664 -29.5898 C 99.7559 -29.5898 102.93 -32.666 102.93 -39.209 L 102.93 -47.8516 L 130.566 -47.8516 C 131.104 -47.8516 131.641 -48.3887 131.641 -49.0723 C 131.641 -49.7559 131.104 -50.2441 130.518 -50.2441 L 17.1875 -50.2441 C 16.6016 -50.2441 16.0645 -49.7559 16.0645 -49.0723 C 16.0645 -48.3887 16.5527 -47.8516 17.1387 -47.8516 L 27.0508 -47.8516 L 27.0508 -29.248 C 27.0508 -19.1895 32.0312 -14.1113 42.041 -14.1113 L 44.1406 -14.1113 L 33.4961 25.4395 C 33.3984 25.7324 33.4473 25.8789 33.4473 25.8789 C 33.4473 26.709 34.082 27.0508 34.8145 27.0508 Z M 41.8457 4.29688 L 46.8262 -14.1113 L 103.32 -14.1113 L 108.252 4.29688 Z"/>
  </g>
  <g id="Black-M" transform="matrix(1 0 0 1 2866.6 1126)">
   <path d="M 47.1191 -67.8711 L 87.9883 -67.8711 C 95.0684 -67.8711 98.3887 -71.1426 98.3887 -78.0762 L 98.3887 -94.043 C 98.3887 -100.928 95.0684 -104.199 87.9883 -104.199 L 47.1191 -104.199 C 40.0391 -104.199 36.6699 -100.928 36.6699 -94.043 L 36.6699 -78.0762 C 36.6699 -71.1426 40.0391 -67.8711 47.1191 -67.8711 Z M 37.6953 29.6875 C 41.9922 29.6875 44.3848 27.9297 45.5078 23.7305 L 49.1211 10.0098 L 84.3262 10.0098 L 87.9395 23.7305 C 89.0625 27.9297 91.4551 29.6875 95.7031 29.6875 C 100.293 29.6875 103.271 26.416 103.271 22.0215 C 103.271 21.0449 103.125 20.1172 102.881 19.1895 L 95.752 -8.44727 L 100.439 -8.44727 C 104.785 -8.44727 108.252 -12.3535 108.252 -16.6016 C 108.252 -21.0449 104.834 -24.7559 100.439 -24.7559 L 43.457 -24.7559 C 36.6699 -24.7559 33.4473 -27.9297 33.4473 -34.5703 L 33.4473 -43.75 L 35.791 -43.75 L 35.791 -40.6738 C 35.791 -34.6191 39.4531 -31.0059 45.7031 -31.0059 L 88.623 -31.0059 C 94.873 -31.0059 98.584 -34.6191 98.584 -40.6738 L 98.584 -43.75 L 113.33 -43.75 C 117.676 -43.75 121.143 -47.6562 121.143 -51.9531 C 121.143 -56.3965 117.773 -60.1562 113.281 -60.1562 L 20.3125 -60.1562 C 15.8691 -60.1562 12.4512 -56.3965 12.4512 -51.9531 C 12.4512 -47.6562 15.918 -43.75 20.3125 -43.75 L 22.168 -43.75 L 22.168 -21.6797 C 22.168 -13.4277 27.1973 -8.44727 35.5957 -8.44727 L 37.6953 -8.44727 L 30.5176 19.1895 C 30.2734 20.1172 30.127 20.9961 30.127 21.875 C 30.127 26.3672 33.0566 29.6875 37.6953 29.6875 Z M 52.7344 -3.51562 L 54.0527 -8.44727 L 79.3457 -8.44727 L 80.6641 -3.51562 Z"/>
  </g>
  <g id="Heavy-M" transform="matrix(1 0 0 1 2571.63 1126)">
   <path d="M 46.1914 -66.1133 L 85.2539 -66.1133 C 91.9922 -66.1133 95.166 -69.1895 95.166 -75.8301 L 95.166 -91.2598 C 95.166 -97.8516 91.9922 -100.977 85.2539 -100.977 L 46.1914 -100.977 C 39.4531 -100.977 36.1816 -97.8516 36.1816 -91.2598 L 36.1816 -75.8301 C 36.1816 -69.1895 39.4531 -66.1133 46.1914 -66.1133 Z M 35.6445 26.8066 C 39.4531 26.8066 41.5039 25.1953 42.5293 21.4844 L 46.2402 7.32422 L 83.8379 7.32422 L 87.5488 21.4844 C 88.5254 25.1953 90.625 26.8066 94.3848 26.8066 C 98.4863 26.8066 101.074 23.9746 101.074 20.1172 C 101.074 19.2871 100.928 18.4082 100.732 17.5781 L 93.4082 -10.4492 L 97.6562 -10.4492 C 101.758 -10.4492 104.932 -13.916 104.932 -17.8223 C 104.932 -21.9238 101.855 -25.1953 97.7051 -25.1953 L 41.0645 -25.1953 C 34.9609 -25.1953 32.0312 -28.0762 32.0312 -33.9844 L 32.0312 -44.1406 L 35.5957 -44.1406 L 35.5957 -40.9668 C 35.5957 -35.0098 39.0625 -31.6406 45.166 -31.6406 L 85.6934 -31.6406 C 91.7969 -31.6406 95.2637 -35.0098 95.2637 -40.9668 L 95.2637 -44.1406 L 110.645 -44.1406 C 114.6 -44.1406 117.676 -47.4609 117.676 -51.2695 C 117.676 -55.2734 114.697 -58.4473 110.693 -58.4473 L 19.3848 -58.4473 C 15.4297 -58.4473 12.4512 -55.2246 12.4512 -51.2695 C 12.4512 -47.4609 15.4785 -44.1406 19.4336 -44.1406 L 21.6309 -44.1406 L 21.6309 -22.9492 C 21.6309 -15.1367 26.3672 -10.4492 34.3262 -10.4492 L 36.6211 -10.4492 L 29.3457 17.5781 C 29.1016 18.4082 29.0039 19.1895 29.0039 20.0195 C 29.0039 23.9258 31.4941 26.8066 35.6445 26.8066 Z M 49.5117 -4.78516 L 50.9766 -10.4492 L 79.0527 -10.4492 L 80.5664 -4.78516 Z"/>
  </g>
  <g id="Bold-M" transform="matrix(1 0 0 1 2276.87 1126)">
   <path d="M 45.1172 -64.0625 L 82.1289 -64.0625 C 88.5254 -64.0625 91.6016 -67.041 91.6016 -73.291 L 91.6016 -88.1836 C 91.6016 -94.4336 88.5254 -97.3633 82.1289 -97.3633 L 45.1172 -97.3633 C 38.7207 -97.3633 35.6445 -94.4336 35.6445 -88.1836 L 35.6445 -73.291 C 35.6445 -67.041 38.7207 -64.0625 45.1172 -64.0625 Z M 33.3984 23.584 C 36.6699 23.584 38.3301 22.1191 39.1602 18.9453 L 43.0176 4.3457 L 83.252 4.3457 L 87.1094 18.9453 C 87.9395 22.1191 89.6973 23.584 92.8711 23.584 C 96.4355 23.584 98.584 21.2402 98.584 17.9688 C 98.584 17.2363 98.4863 16.5527 98.291 15.7715 L 90.8203 -12.6465 L 94.5312 -12.6465 C 98.3398 -12.6465 101.221 -15.625 101.221 -19.1406 C 101.221 -22.8516 98.4863 -25.6836 94.6777 -25.6836 L 38.3301 -25.6836 C 33.0566 -25.6836 30.4199 -28.2227 30.4199 -33.3008 L 30.4199 -44.5801 L 35.3516 -44.5801 L 35.3516 -41.2598 C 35.3516 -35.4492 38.5742 -32.3242 44.5312 -32.3242 L 82.373 -32.3242 C 88.3301 -32.3242 91.5527 -35.4492 91.5527 -41.2598 L 91.5527 -44.5801 L 107.666 -44.5801 C 111.182 -44.5801 113.77 -47.2656 113.77 -50.5371 C 113.77 -53.9551 111.23 -56.543 107.764 -56.543 L 18.3105 -56.543 C 14.8926 -56.543 12.4512 -53.9551 12.4512 -50.5371 C 12.4512 -47.2656 14.9902 -44.5801 18.4082 -44.5801 L 20.9961 -44.5801 L 20.9961 -24.4141 C 20.9961 -17.041 25.4883 -12.6465 32.9102 -12.6465 L 35.4492 -12.6465 L 27.9785 15.7715 C 27.832 16.5039 27.6855 17.1875 27.6855 17.9199 C 27.6855 21.1426 29.6875 23.584 33.3984 23.584 Z M 45.8496 -6.25 L 47.5586 -12.6465 L 78.7109 -12.6465 L 80.4199 -6.25 Z"/>
  </g>
  <g id="Semibold-M" transform="matrix(1 0 0 1 1981.52 1126)">
   <path d="M 44.4336 -62.6953 L 79.9805 -62.6953 C 86.1328 -62.6953 89.1113 -65.5273 89.1113 -71.582 L 89.1113 -86.0352 C 89.1113 -92.0898 86.1328 -94.9219 79.9805 -94.9219 L 44.4336 -94.9219 C 38.2812 -94.9219 35.3027 -92.0898 35.3027 -86.0352 L 35.3027 -71.582 C 35.3027 -65.5273 38.2812 -62.6953 44.4336 -62.6953 Z M 31.7871 21.3867 C 34.7168 21.3867 36.1328 19.9707 36.8652 17.1875 L 40.8203 2.24609 L 82.8613 2.24609 L 86.8164 17.1875 C 87.5488 19.9707 89.0625 21.3867 91.8457 21.3867 C 95.0195 21.3867 96.8262 19.3359 96.8262 16.5039 C 96.8262 15.8691 96.7773 15.2344 96.582 14.5508 L 89.0137 -14.1602 L 92.3828 -14.1602 C 95.9961 -14.1602 98.6816 -16.7969 98.6816 -20.0195 C 98.6816 -23.5352 96.1426 -26.0254 92.5781 -26.0254 L 36.4746 -26.0254 C 31.7871 -26.0254 29.2969 -28.3203 29.2969 -32.8125 L 29.2969 -44.873 L 35.2051 -44.873 L 35.2051 -41.4551 C 35.2051 -35.7422 38.2324 -32.8125 44.0918 -32.8125 L 80.0781 -32.8125 C 85.9375 -32.8125 88.9648 -35.7422 88.9648 -41.4551 L 88.9648 -44.873 L 105.615 -44.873 C 108.789 -44.873 111.035 -47.1191 111.035 -50.0488 C 111.035 -53.0762 108.887 -55.2734 105.762 -55.2734 L 17.5781 -55.2734 C 14.5508 -55.2734 12.4512 -53.0273 12.4512 -50.0488 C 12.4512 -47.1191 14.6484 -44.873 17.7246 -44.873 L 20.6055 -44.873 L 20.6055 -25.3906 C 20.6055 -18.3594 24.8535 -14.1602 31.9336 -14.1602 L 34.668 -14.1602 L 27.0996 14.5508 C 26.9043 15.1855 26.8066 15.7715 26.8066 16.4551 C 26.8066 19.2871 28.4668 21.3867 31.7871 21.3867 Z M 43.3594 -7.22656 L 45.166 -14.1602 L 78.4668 -14.1602 L 80.3223 -7.22656 Z"/>
  </g>
  <g id="Medium-M" transform="matrix(1 0 0 1 1685.84 1126)">
   <path d="M 43.8477 -61.6211 L 78.3691 -61.6211 C 84.375 -61.6211 87.207 -64.4043 87.207 -70.2148 L 87.207 -84.4238 C 87.207 -90.2832 84.375 -93.0176 78.3691 -93.0176 L 43.8477 -93.0176 C 37.8906 -93.0176 35.0098 -90.2832 35.0098 -84.4238 L 35.0098 -70.2148 C 35.0098 -64.4043 37.8906 -61.6211 43.8477 -61.6211 Z M 30.6152 19.7266 C 33.252 19.7266 34.4238 18.3594 35.1074 15.8691 L 39.1113 0.683594 L 82.5684 0.683594 L 86.5723 15.8691 C 87.2559 18.3594 88.5742 19.7266 91.0645 19.7266 C 93.9453 19.7266 95.5566 17.9199 95.5566 15.3809 C 95.5566 14.8438 95.5078 14.209 95.3125 13.623 L 87.6465 -15.332 L 90.7715 -15.332 C 94.1895 -15.332 96.7285 -17.6758 96.7285 -20.752 C 96.7285 -24.0234 94.3848 -26.2695 90.9668 -26.2695 L 35.0098 -26.2695 C 30.8105 -26.2695 28.4668 -28.418 28.4668 -32.4707 L 28.4668 -45.1172 L 35.1074 -45.1172 L 35.1074 -41.6016 C 35.1074 -35.9375 37.9883 -33.1543 43.75 -33.1543 L 78.3203 -33.1543 C 84.1309 -33.1543 87.0117 -35.9375 87.0117 -41.6016 L 87.0117 -45.1172 L 104.053 -45.1172 C 107.031 -45.1172 108.984 -47.0215 108.984 -49.6582 C 108.984 -52.3926 107.08 -54.248 104.248 -54.248 L 17.041 -54.248 C 14.3066 -54.248 12.4512 -52.3438 12.4512 -49.6582 C 12.4512 -47.0215 14.4043 -45.1172 17.2363 -45.1172 L 20.2637 -45.1172 L 20.2637 -26.123 C 20.2637 -19.3359 24.4141 -15.332 31.2012 -15.332 L 34.0332 -15.332 L 26.3672 13.623 C 26.2695 14.209 26.123 14.7461 26.123 15.3809 C 26.123 17.8223 27.5879 19.7266 30.6152 19.7266 Z M 41.4551 -8.00781 L 43.3594 -15.332 L 78.3203 -15.332 L 80.2246 -8.00781 Z"/>
  </g>
  <g id="Regular-M" transform="matrix(1 0 0 1 1390.45 1126)">
   <path d="M 43.1641 -60.2539 L 76.2695 -60.2539 C 81.9824 -60.2539 84.7656 -62.8906 84.7656 -68.5059 L 84.7656 -82.3242 C 84.7656 -87.9395 81.9824 -90.5762 76.2695 -90.5762 L 43.1641 -90.5762 C 37.4023 -90.5762 34.668 -87.9395 34.668 -82.3242 L 34.668 -68.5059 C 34.668 -62.8906 37.4023 -60.2539 43.1641 -60.2539 Z M 29.0527 17.5293 C 31.3477 17.5293 32.2754 16.2598 32.8125 14.1602 L 36.9141 -1.36719 L 82.1777 -1.36719 L 86.2793 14.1602 C 86.8652 16.2598 87.9395 17.5293 90.0391 17.5293 C 92.5781 17.5293 93.8477 16.0645 93.8477 13.916 C 93.8477 13.4277 93.7988 12.9395 93.6523 12.4023 L 85.8398 -16.8457 L 88.6719 -16.8457 C 91.8457 -16.8457 94.2383 -18.8477 94.2383 -21.6309 C 94.2383 -24.6582 92.0898 -26.6113 88.916 -26.6113 L 33.1543 -26.6113 C 29.4922 -26.6113 27.3926 -28.5156 27.3926 -32.0312 L 27.3926 -45.4102 L 34.9121 -45.4102 L 34.9121 -41.7969 C 34.9121 -36.2305 37.6465 -33.6426 43.3594 -33.6426 L 76.0742 -33.6426 C 81.7383 -33.6426 84.4727 -36.2305 84.4727 -41.7969 L 84.4727 -45.4102 L 102.051 -45.4102 C 104.688 -45.4102 106.348 -46.875 106.348 -49.1699 C 106.348 -51.5137 104.736 -52.9785 102.246 -52.9785 L 16.3086 -52.9785 C 13.9648 -52.9785 12.4512 -51.4648 12.4512 -49.1699 C 12.4512 -46.875 14.0625 -45.4102 16.5527 -45.4102 L 19.8242 -45.4102 L 19.8242 -27.0996 C 19.8242 -20.6543 23.7793 -16.8457 30.2246 -16.8457 L 33.252 -16.8457 L 25.4883 12.4023 C 25.3418 12.8906 25.2441 13.3301 25.2441 13.9648 C 25.2441 15.9668 26.3672 17.5293 29.0527 17.5293 Z M 38.9648 -8.98438 L 41.0156 -16.8457 L 78.0762 -16.8457 L 80.127 -8.98438 Z"/>
  </g>
  <g id="Light-M" transform="matrix(1 0 0 1 1094.42 1126)">
   <path d="M 42.5781 -59.2773 L 75.293 -59.2773 C 80.9082 -59.2773 83.6426 -61.8652 83.6426 -67.3828 L 83.6426 -81.0059 C 83.6426 -86.5723 80.9082 -89.1602 75.293 -89.1602 L 42.5781 -89.1602 C 36.9629 -89.1602 34.1797 -86.5723 34.1797 -81.0059 L 34.1797 -67.3828 C 34.1797 -61.8652 36.9629 -59.2773 42.5781 -59.2773 Z M 28.418 16.1133 C 30.127 16.1133 30.8594 15.1855 31.2988 13.623 L 35.3516 -1.75781 L 82.9102 -1.75781 L 86.9629 13.623 C 87.4023 15.1855 88.2324 16.1133 89.8438 16.1133 C 91.748 16.1133 92.7734 15.0391 92.7734 13.3789 C 92.7734 13.0371 92.7734 12.6465 92.627 12.207 L 84.7168 -17.4805 L 88.7207 -17.4805 C 91.0156 -17.4805 92.7734 -18.9941 92.7734 -21.0449 C 92.7734 -23.291 91.2109 -24.7559 88.8672 -24.7559 L 32.9102 -24.7559 C 28.3203 -24.7559 25.9766 -26.9531 25.9766 -31.4453 L 25.9766 -45.2637 L 34.8145 -45.2637 L 34.8145 -40.7227 C 34.8145 -35.3027 37.5 -32.7637 43.0176 -32.7637 L 74.8535 -32.7637 C 80.3711 -32.7637 83.0566 -35.3027 83.0566 -40.7227 L 83.0566 -45.2637 L 101.758 -45.2637 C 103.711 -45.2637 104.98 -46.4355 104.98 -48.1445 C 104.98 -49.9512 103.76 -51.0742 101.904 -51.0742 L 15.3809 -51.0742 C 13.623 -51.0742 12.4512 -49.9023 12.4512 -48.1445 C 12.4512 -46.4355 13.6719 -45.2637 15.5273 -45.2637 L 20.166 -45.2637 L 20.166 -28.1738 C 20.166 -21.3379 24.1211 -17.4805 30.957 -17.4805 L 33.5449 -17.4805 L 25.6348 12.207 C 25.5371 12.5977 25.4883 12.9883 25.4883 13.3789 C 25.4883 14.9902 26.3672 16.1133 28.418 16.1133 Z M 36.9629 -7.61719 L 39.5508 -17.4805 L 78.7109 -17.4805 L 81.2988 -7.61719 Z"/>
  </g>
  <g id="Thin-M" transform="matrix(1 0 0 1 798.585 1126)">
   <path d="M 41.8457 -57.959 L 73.9746 -57.959 C 79.4922 -57.959 82.1777 -60.498 82.1777 -65.918 L 82.1777 -79.2969 C 82.1777 -84.7656 79.4922 -87.3047 73.9746 -87.3047 L 41.8457 -87.3047 C 36.3281 -87.3047 33.5938 -84.7656 33.5938 -79.2969 L 33.5938 -65.918 C 33.5938 -60.498 36.3281 -57.959 41.8457 -57.959 Z M 27.5391 14.2578 C 28.4668 14.2578 29.0039 13.7695 29.248 12.9395 L 33.3008 -2.24609 L 83.8379 -2.24609 L 87.8906 12.9395 C 88.0859 13.7695 88.6719 14.2578 89.5508 14.2578 C 90.6738 14.2578 91.4062 13.6719 91.4062 12.6465 C 91.4062 12.5 91.3574 12.3047 91.3086 11.9629 L 83.1543 -18.3105 L 88.7695 -18.3105 C 89.9414 -18.3105 90.8203 -19.1406 90.8203 -20.3125 C 90.8203 -21.4844 89.9902 -22.3145 88.8184 -22.3145 L 32.5684 -22.3145 C 26.7578 -22.3145 24.1211 -24.9023 24.1211 -30.6641 L 24.1211 -45.1172 L 34.7168 -45.1172 L 34.7168 -39.3066 C 34.7168 -34.082 37.2559 -31.6406 42.5781 -31.6406 L 73.2422 -31.6406 C 78.5645 -31.6406 81.1035 -34.082 81.1035 -39.3066 L 81.1035 -45.1172 L 101.416 -45.1172 C 102.49 -45.1172 103.223 -45.8008 103.223 -46.8262 C 103.223 -47.9004 102.49 -48.584 101.465 -48.584 L 14.1602 -48.584 C 13.1836 -48.584 12.4512 -47.8516 12.4512 -46.8262 C 12.4512 -45.8008 13.1836 -45.1172 14.209 -45.1172 L 20.6543 -45.1172 L 20.6543 -29.5898 C 20.6543 -22.2168 24.5117 -18.3105 31.9336 -18.3105 L 33.9355 -18.3105 L 25.8301 11.9629 C 25.7324 12.2559 25.7324 12.4512 25.7324 12.6465 C 25.7324 13.6719 26.416 14.2578 27.5391 14.2578 Z M 34.2773 -5.81055 L 37.5977 -18.3105 L 79.4922 -18.3105 L 82.8613 -5.81055 Z"/>
  </g>
  <g id="Ultralight-M" transform="matrix(1 0 0 1 502.338 1126)">
   <path d="M 41.4551 -57.2754 L 73.291 -57.2754 C 78.7598 -57.2754 81.4453 -59.8145 81.4453 -65.1855 L 81.4453 -78.4668 C 81.4453 -83.8379 78.7598 -86.3281 73.291 -86.3281 L 41.4551 -86.3281 C 35.9863 -86.3281 33.3008 -83.8379 33.3008 -78.4668 L 33.3008 -65.1855 C 33.3008 -59.8145 35.9863 -57.2754 41.4551 -57.2754 Z M 27.1484 13.3301 C 27.6367 13.3301 28.0762 13.0371 28.1738 12.5977 L 32.2266 -2.49023 L 84.2773 -2.49023 L 88.3301 12.5977 C 88.4766 13.0371 88.8672 13.3301 89.4043 13.3301 C 90.1367 13.3301 90.6738 12.9883 90.6738 12.2559 C 90.6738 12.207 90.6738 12.1094 90.625 11.8652 L 82.373 -18.7012 L 88.8184 -18.7012 C 89.3555 -18.7012 89.8438 -19.2383 89.8438 -19.873 C 89.8438 -20.5566 89.3555 -21.0938 88.8184 -21.0938 L 32.373 -21.0938 C 25.9766 -21.0938 23.1445 -23.8281 23.1445 -30.2246 L 23.1445 -45.0195 L 34.6191 -45.0195 L 34.6191 -38.5742 C 34.6191 -33.4473 37.1094 -31.0547 42.334 -31.0547 L 72.4121 -31.0547 C 77.6367 -31.0547 80.127 -33.4473 80.127 -38.5742 L 80.127 -45.0195 L 101.27 -45.0195 C 101.855 -45.0195 102.295 -45.5078 102.295 -46.1914 C 102.295 -46.8262 101.855 -47.3145 101.221 -47.3145 L 13.5254 -47.3145 C 12.9395 -47.3145 12.4512 -46.8262 12.4512 -46.1914 C 12.4512 -45.5078 12.9395 -45.0195 13.5254 -45.0195 L 20.8984 -45.0195 L 20.8984 -30.3223 C 20.8984 -22.6562 24.7559 -18.7012 32.4219 -18.7012 L 34.1797 -18.7012 L 25.9277 11.8652 C 25.8789 12.1094 25.8789 12.207 25.8789 12.2559 C 25.8789 12.9883 26.416 13.3301 27.1484 13.3301 Z M 32.9102 -4.88281 L 36.6211 -18.7012 L 79.9316 -18.7012 L 83.6426 -4.88281 Z"/>
  </g>
  <g id="Black-S" transform="matrix(1 0 0 1 2881.18 696)">
   <path d="M 36.8652 -60.6934 L 68.75 -60.6934 C 74.2676 -60.6934 76.8555 -63.2324 76.8555 -68.6523 L 76.8555 -81.1035 C 76.8555 -86.4746 74.2676 -89.0137 68.75 -89.0137 L 36.8652 -89.0137 C 31.3477 -89.0137 28.7109 -86.4746 28.7109 -81.1035 L 28.7109 -68.6523 C 28.7109 -63.2324 31.3477 -60.6934 36.8652 -60.6934 Z M 29.3945 15.4297 C 32.7148 15.4297 34.5703 14.0625 35.4492 10.791 L 38.2812 0 L 66.0156 0 L 68.8477 10.791 C 69.7266 14.0625 71.582 15.4297 74.9023 15.4297 C 78.4668 15.4297 80.7617 12.8906 80.7617 9.47266 C 80.7617 8.74023 80.6641 8.00781 80.4688 7.27539 L 74.8535 -14.4043 L 78.4668 -14.4043 C 81.8848 -14.4043 84.5703 -17.4316 84.5703 -20.752 C 84.5703 -24.2188 81.9336 -27.0996 78.4668 -27.0996 L 33.8867 -27.0996 C 28.6133 -27.0996 26.123 -29.541 26.123 -34.668 L 26.123 -41.9434 L 28.0273 -41.9434 L 28.0273 -39.5508 C 28.0273 -34.8145 30.9082 -31.9824 35.791 -31.9824 L 69.2383 -31.9824 C 74.1211 -31.9824 77.002 -34.8145 77.002 -39.5508 L 77.002 -41.9434 L 88.5742 -41.9434 C 91.9922 -41.9434 94.6777 -44.9707 94.6777 -48.291 C 94.6777 -51.7578 92.041 -54.6387 88.5742 -54.6387 L 15.8691 -54.6387 C 12.4023 -54.6387 9.76562 -51.7578 9.76562 -48.291 C 9.76562 -44.9707 12.4512 -41.9434 15.8691 -41.9434 L 17.334 -41.9434 L 17.334 -24.707 C 17.334 -18.2617 21.2402 -14.4043 27.7832 -14.4043 L 29.4434 -14.4043 L 23.8281 7.27539 C 23.6328 8.00781 23.5352 8.69141 23.5352 9.375 C 23.5352 12.8418 25.7812 15.4297 29.3945 15.4297 Z M 41.1133 -10.498 L 42.1387 -14.4043 L 62.1582 -14.4043 L 63.1836 -10.498 Z"/>
  </g>
  <g id="Heavy-S" transform="matrix(1 0 0 1 2585.74 696)">
   <path d="M 36.2305 -59.4238 L 66.748 -59.4238 C 72.0215 -59.4238 74.5117 -61.8652 74.5117 -67.041 L 74.5117 -79.1504 C 74.5117 -84.2773 72.0215 -86.7188 66.748 -86.7188 L 36.2305 -86.7188 C 30.9082 -86.7188 28.418 -84.2773 28.418 -79.1504 L 28.418 -67.041 C 28.418 -61.8652 30.9082 -59.4238 36.2305 -59.4238 Z M 27.9297 13.3789 C 30.9082 13.3789 32.5195 12.0605 33.3496 9.13086 L 36.2305 -2.00195 L 65.5762 -2.00195 L 68.457 9.13086 C 69.2871 12.0605 70.8984 13.3789 73.9258 13.3789 C 77.1484 13.3789 79.1992 11.1328 79.1992 8.05664 C 79.1992 7.42188 79.1016 6.73828 78.9062 6.05469 L 73.1934 -15.8691 L 76.3184 -15.8691 C 79.6387 -15.8691 82.1777 -18.6035 82.1777 -21.7285 C 82.1777 -25 79.7363 -27.6367 76.3672 -27.6367 L 32.0801 -27.6367 C 27.4414 -27.6367 25.1953 -29.834 25.1953 -34.2773 L 25.1953 -42.2363 L 27.8809 -42.2363 L 27.8809 -39.8926 C 27.8809 -35.2051 30.6152 -32.5684 35.4004 -32.5684 L 67.0898 -32.5684 C 71.9238 -32.5684 74.6094 -35.2051 74.6094 -39.8926 L 74.6094 -42.2363 L 86.5723 -42.2363 C 89.7461 -42.2363 92.1387 -44.873 92.1387 -47.9004 C 92.1387 -51.0254 89.7949 -53.5645 86.6211 -53.5645 L 15.2344 -53.5645 C 12.1094 -53.5645 9.76562 -51.0254 9.76562 -47.9004 C 9.76562 -44.873 12.1582 -42.2363 15.2832 -42.2363 L 16.8945 -42.2363 L 16.8945 -25.5859 C 16.8945 -19.4824 20.6055 -15.8691 26.7578 -15.8691 L 28.6133 -15.8691 L 22.9004 6.05469 C 22.7051 6.73828 22.6562 7.37305 22.6562 8.00781 C 22.6562 11.084 24.5605 13.3789 27.9297 13.3789 Z M 38.8672 -11.6211 L 39.9414 -15.8691 L 61.8652 -15.8691 L 62.9395 -11.6211 Z"/>
  </g>
  <g id="Bold-S" transform="matrix(1 0 0 1 2290.44 696)">
   <path d="M 35.498 -58.0078 L 64.502 -58.0078 C 69.5312 -58.0078 71.9238 -60.3027 71.9238 -65.2344 L 71.9238 -76.9043 C 71.9238 -81.8359 69.5312 -84.1309 64.502 -84.1309 L 35.498 -84.1309 C 30.4688 -84.1309 28.0273 -81.8359 28.0273 -76.9043 L 28.0273 -65.2344 C 28.0273 -60.3027 30.4688 -58.0078 35.498 -58.0078 Z M 26.2207 11.084 C 28.9551 11.084 30.2734 9.86328 30.957 7.27539 L 33.9844 -4.24805 L 65.0391 -4.24805 L 68.0664 7.27539 C 68.75 9.86328 70.166 11.084 72.8027 11.084 C 75.6836 11.084 77.3926 9.17969 77.3926 6.49414 C 77.3926 5.9082 77.3438 5.32227 77.1484 4.73633 L 71.3379 -17.4805 L 73.9746 -17.4805 C 77.1484 -17.4805 79.541 -19.873 79.541 -22.8027 C 79.541 -25.9277 77.2949 -28.2227 74.0723 -28.2227 L 30.0293 -28.2227 C 26.1719 -28.2227 24.1211 -30.127 24.1211 -33.8379 L 24.1211 -42.5781 L 27.7344 -42.5781 L 27.7344 -40.2344 C 27.7344 -35.6445 30.2734 -33.2031 34.9609 -33.2031 L 64.7461 -33.2031 C 69.4336 -33.2031 71.9727 -35.6445 71.9727 -40.2344 L 71.9727 -42.5781 L 84.3262 -42.5781 C 87.2559 -42.5781 89.3066 -44.7754 89.3066 -47.4609 C 89.3066 -50.2441 87.2559 -52.3438 84.4238 -52.3438 L 14.5508 -52.3438 C 11.7676 -52.3438 9.76562 -50.2441 9.76562 -47.4609 C 9.76562 -44.7754 11.8164 -42.5781 14.6484 -42.5781 L 16.3574 -42.5781 L 16.3574 -26.5137 C 16.3574 -20.8984 19.873 -17.4805 25.5859 -17.4805 L 27.6855 -17.4805 L 21.875 4.73633 C 21.7285 5.32227 21.6309 5.85938 21.6309 6.49414 C 21.6309 9.08203 23.2422 11.084 26.2207 11.084 Z M 36.3281 -12.8906 L 37.5 -17.4805 L 61.5234 -17.4805 L 62.6953 -12.8906 Z"/>
  </g>
  <g id="Semibold-S" transform="matrix(1 0 0 1 1994.71 696)">
   <path d="M 34.9609 -57.0312 L 62.9395 -57.0312 C 67.7734 -57.0312 70.1172 -59.2773 70.1172 -64.0137 L 70.1172 -75.3906 C 70.1172 -80.127 67.7734 -82.373 62.9395 -82.373 L 34.9609 -82.373 C 30.127 -82.373 27.7832 -80.127 27.7832 -75.3906 L 27.7832 -64.0137 C 27.7832 -59.2773 30.127 -57.0312 34.9609 -57.0312 Z M 25.0977 9.52148 C 27.5391 9.52148 28.7109 8.30078 29.3457 5.95703 L 32.4219 -5.81055 L 64.6973 -5.81055 L 67.7734 5.95703 C 68.4082 8.30078 69.6289 9.52148 72.0215 9.52148 C 74.707 9.52148 76.1719 7.8125 76.1719 5.41992 C 76.1719 4.88281 76.123 4.3457 75.9766 3.80859 L 70.0684 -18.5547 L 72.3145 -18.5547 C 75.3906 -18.5547 77.7344 -20.752 77.7344 -23.5352 C 77.7344 -26.5137 75.5859 -28.6133 72.4609 -28.6133 L 28.6133 -28.6133 C 25.2441 -28.6133 23.3887 -30.3223 23.3887 -33.5449 L 23.3887 -42.8223 L 27.6367 -42.8223 L 27.6367 -40.4785 C 27.6367 -35.9375 30.0293 -33.6426 34.668 -33.6426 L 63.0859 -33.6426 C 67.7246 -33.6426 70.1172 -35.9375 70.1172 -40.4785 L 70.1172 -42.8223 L 82.7637 -42.8223 C 85.498 -42.8223 87.3535 -44.6777 87.3535 -47.168 C 87.3535 -49.707 85.5469 -51.5137 82.9102 -51.5137 L 14.0625 -51.5137 C 11.5234 -51.5137 9.76562 -49.6582 9.76562 -47.168 C 9.76562 -44.6777 11.6211 -42.8223 14.209 -42.8223 L 16.0156 -42.8223 L 16.0156 -27.1973 C 16.0156 -21.8262 19.3848 -18.5547 24.7559 -18.5547 L 27.0508 -18.5547 L 21.1426 3.80859 C 20.9961 4.29688 20.9473 4.83398 20.9473 5.41992 C 20.9473 7.76367 22.2656 9.52148 25.0977 9.52148 Z M 34.5703 -13.7695 L 35.8398 -18.5547 L 61.2793 -18.5547 L 62.5488 -13.7695 Z"/>
  </g>
  <g id="Medium-S" transform="matrix(1 0 0 1 1698.73 696)">
   <path d="M 34.5703 -56.2988 L 61.7676 -56.2988 C 66.5039 -56.2988 68.75 -58.4473 68.75 -63.0859 L 68.75 -74.2676 C 68.75 -78.8574 66.5039 -81.0059 61.7676 -81.0059 L 34.5703 -81.0059 C 29.8828 -81.0059 27.6367 -78.8574 27.6367 -74.2676 L 27.6367 -63.0859 C 27.6367 -58.4473 29.8828 -56.2988 34.5703 -56.2988 Z M 24.2188 8.34961 C 26.5137 8.34961 27.4902 7.17773 28.0762 4.98047 L 31.25 -6.98242 L 64.4043 -6.98242 L 67.5781 4.98047 C 68.1641 7.17773 69.2383 8.34961 71.4355 8.34961 C 73.9258 8.34961 75.2441 6.78711 75.2441 4.58984 C 75.2441 4.10156 75.1953 3.61328 75.0488 3.07617 L 69.0918 -19.4336 L 71.0449 -19.4336 C 74.0723 -19.4336 76.3184 -21.4355 76.3184 -24.1211 C 76.3184 -27.002 74.2676 -28.9551 71.2402 -28.9551 L 27.5391 -28.9551 C 24.5605 -28.9551 22.8516 -30.5176 22.8516 -33.3008 L 22.8516 -43.0176 L 27.5391 -43.0176 L 27.5391 -40.6738 C 27.5391 -36.1816 29.834 -33.9355 34.4238 -33.9355 L 61.8164 -33.9355 C 66.4062 -33.9355 68.75 -36.1816 68.75 -40.6738 L 68.75 -43.0176 L 81.5918 -43.0176 C 84.1797 -43.0176 85.8887 -44.6289 85.8887 -46.9238 C 85.8887 -49.2676 84.2285 -50.8789 81.7871 -50.8789 L 13.7207 -50.8789 C 11.377 -50.8789 9.76562 -49.2188 9.76562 -46.9238 C 9.76562 -44.6289 11.4258 -43.0176 13.916 -43.0176 L 15.7227 -43.0176 L 15.7227 -27.6855 C 15.7227 -22.5586 18.9941 -19.4336 24.1699 -19.4336 L 26.5625 -19.4336 L 20.6055 3.07617 C 20.5078 3.56445 20.4102 4.05273 20.4102 4.63867 C 20.4102 6.68945 21.582 8.34961 24.2188 8.34961 Z M 33.252 -14.4531 L 34.5215 -19.4336 L 61.1328 -19.4336 L 62.4023 -14.4531 Z"/>
  </g>
  <g id="Regular-S" transform="matrix(1 0 0 1 1402.97 696)">
   <path d="M 34.082 -55.3223 L 60.2539 -55.3223 C 64.7949 -55.3223 66.9434 -57.4219 66.9434 -61.8164 L 66.9434 -72.7539 C 66.9434 -77.1973 64.7949 -79.2969 60.2539 -79.2969 L 34.082 -79.2969 C 29.541 -79.2969 27.3926 -77.1973 27.3926 -72.7539 L 27.3926 -61.8164 C 27.3926 -57.4219 29.541 -55.3223 34.082 -55.3223 Z M 23.0957 6.78711 C 25.1465 6.78711 25.9766 5.66406 26.4648 3.71094 L 29.6875 -8.49609 L 64.0625 -8.49609 L 67.2852 3.71094 C 67.8223 5.66406 68.75 6.78711 70.6543 6.78711 C 72.9004 6.78711 74.0723 5.46875 74.0723 3.51562 C 74.0723 3.125 74.0234 2.63672 73.877 2.14844 L 67.8223 -20.5078 L 69.4336 -20.5078 C 72.3633 -20.5078 74.5117 -22.3145 74.5117 -24.8535 C 74.5117 -27.6367 72.6074 -29.3457 69.6777 -29.3457 L 26.123 -29.3457 C 23.6816 -29.3457 22.168 -30.7129 22.168 -33.0078 L 22.168 -43.2617 L 27.4414 -43.2617 L 27.4414 -40.918 C 27.4414 -36.4746 29.5898 -34.375 34.1309 -34.375 L 60.2051 -34.375 C 64.7461 -34.375 66.8945 -36.4746 66.8945 -40.918 L 66.8945 -43.2617 L 80.0781 -43.2617 C 82.4707 -43.2617 83.9844 -44.5801 83.9844 -46.6309 C 83.9844 -48.7305 82.5195 -50.0488 80.2734 -50.0488 L 13.2324 -50.0488 C 11.1328 -50.0488 9.76562 -48.6816 9.76562 -46.6309 C 9.76562 -44.5801 11.2305 -43.2617 13.4766 -43.2617 L 15.3809 -43.2617 L 15.3809 -28.3203 C 15.3809 -23.4863 18.5059 -20.5078 23.3398 -20.5078 L 25.9277 -20.5078 L 19.873 2.14844 C 19.8242 2.58789 19.7266 3.02734 19.7266 3.56445 C 19.7266 5.37109 20.6543 6.78711 23.0957 6.78711 Z M 31.543 -15.332 L 32.8613 -20.5078 L 60.8887 -20.5078 L 62.2559 -15.332 Z"/>
  </g>
  <g id="Light-S" transform="matrix(1 0 0 1 1106.87 696)">
   <path d="M 33.5938 -54.4434 L 59.375 -54.4434 C 63.8184 -54.4434 65.9668 -56.4941 65.9668 -60.8398 L 65.9668 -71.582 C 65.9668 -75.9766 63.8184 -78.0273 59.375 -78.0273 L 33.5938 -78.0273 C 29.1504 -78.0273 26.9531 -75.9766 26.9531 -71.582 L 26.9531 -60.8398 C 26.9531 -56.4941 29.1504 -54.4434 33.5938 -54.4434 Z M 22.5098 5.51758 C 24.0723 5.51758 24.707 4.6875 25.0977 3.27148 L 28.3203 -8.83789 L 64.6973 -8.83789 L 67.8711 3.27148 C 68.2617 4.6875 69.043 5.51758 70.459 5.51758 C 72.2168 5.51758 73.0957 4.54102 73.0957 3.02734 C 73.0957 2.73438 73.0957 2.39258 72.9492 2.00195 L 66.7969 -21.0449 L 69.4824 -21.0449 C 71.6309 -21.0449 73.2422 -22.4609 73.2422 -24.3652 C 73.2422 -26.416 71.8262 -27.7344 69.6289 -27.7344 L 25.8789 -27.7344 C 22.6562 -27.7344 20.8984 -29.3457 20.8984 -32.4707 L 20.8984 -43.1641 L 27.3438 -43.1641 L 27.3438 -39.9414 C 27.3438 -35.6445 29.4434 -33.6426 33.8379 -33.6426 L 59.1309 -33.6426 C 63.5254 -33.6426 65.625 -35.6445 65.625 -39.9414 L 65.625 -43.1641 L 79.834 -43.1641 C 81.6406 -43.1641 82.7637 -44.1406 82.7637 -45.752 C 82.7637 -47.3633 81.6895 -48.3887 79.9805 -48.3887 L 12.4023 -48.3887 C 10.8398 -48.3887 9.76562 -47.3145 9.76562 -45.752 C 9.76562 -44.1406 10.8887 -43.1641 12.5488 -43.1641 L 15.6738 -43.1641 L 15.6738 -29.2969 C 15.6738 -24.0723 18.7988 -21.0449 24.0234 -21.0449 L 26.1719 -21.0449 L 20.0195 2.00195 C 19.9707 2.34375 19.873 2.68555 19.873 3.07617 C 19.873 4.49219 20.6543 5.51758 22.5098 5.51758 Z M 29.7363 -14.1113 L 31.5918 -21.0449 L 61.4258 -21.0449 L 63.2812 -14.1113 Z"/>
  </g>
  <g id="Thin-S" transform="matrix(1 0 0 1 810.939 696)">
   <path d="M 32.959 -53.2715 L 58.2031 -53.2715 C 62.5488 -53.2715 64.6973 -55.3223 64.6973 -59.5703 L 64.6973 -70.1172 C 64.6973 -74.4141 62.5488 -76.3672 58.2031 -76.3672 L 32.959 -76.3672 C 28.5645 -76.3672 26.4648 -74.4141 26.4648 -70.1172 L 26.4648 -59.5703 C 26.4648 -55.3223 28.5645 -53.2715 32.959 -53.2715 Z M 21.7773 3.90625 C 22.6562 3.90625 23.0957 3.41797 23.291 2.63672 L 26.5137 -9.27734 L 65.4785 -9.27734 L 68.7012 2.63672 C 68.8965 3.41797 69.3848 3.90625 70.2148 3.90625 C 71.2402 3.90625 71.875 3.36914 71.875 2.39258 C 71.875 2.24609 71.875 2.05078 71.7773 1.80664 L 65.4785 -21.7773 L 69.5312 -21.7773 C 70.7031 -21.7773 71.5332 -22.6074 71.5332 -23.6816 C 71.5332 -24.8047 70.752 -25.5859 69.6289 -25.5859 L 25.5859 -25.5859 C 21.2891 -25.5859 19.2383 -27.5391 19.2383 -31.7871 L 19.2383 -43.0176 L 27.2461 -43.0176 L 27.2461 -38.6719 C 27.2461 -34.5703 29.248 -32.6172 33.4473 -32.6172 L 57.7148 -32.6172 C 61.9141 -32.6172 63.916 -34.5703 63.916 -38.6719 L 63.916 -43.0176 L 79.541 -43.0176 C 80.5176 -43.0176 81.2012 -43.6523 81.2012 -44.5801 C 81.2012 -45.5566 80.5664 -46.1914 79.5898 -46.1914 L 11.3281 -46.1914 C 10.4004 -46.1914 9.76562 -45.5078 9.76562 -44.5801 C 9.76562 -43.6523 10.4492 -43.0176 11.377 -43.0176 L 16.1133 -43.0176 L 16.1133 -30.5664 C 16.1133 -24.8535 19.1406 -21.7773 24.8535 -21.7773 L 26.5137 -21.7773 L 20.2148 1.80664 C 20.1172 2.05078 20.1172 2.24609 20.1172 2.44141 C 20.1172 3.32031 20.7031 3.90625 21.7773 3.90625 Z M 27.3926 -12.5488 L 29.834 -21.7773 L 62.1582 -21.7773 L 64.5996 -12.5488 Z"/>
  </g>
  <g id="Ultralight-S" transform="matrix(1 0 0 1 514.618 696)">
   <path d="M 32.6172 -52.6855 L 57.6172 -52.6855 C 61.9141 -52.6855 64.0137 -54.6875 64.0137 -58.8867 L 64.0137 -69.3359 C 64.0137 -73.584 61.9141 -75.5371 57.6172 -75.5371 L 32.6172 -75.5371 C 28.2715 -75.5371 26.1719 -73.584 26.1719 -69.3359 L 26.1719 -58.8867 C 26.1719 -54.6875 28.2715 -52.6855 32.6172 -52.6855 Z M 21.3867 3.07617 C 21.875 3.07617 22.2656 2.7832 22.3633 2.29492 L 25.5371 -9.52148 L 65.918 -9.52148 L 69.0918 2.29492 C 69.2383 2.7832 69.5801 3.07617 70.1172 3.07617 C 70.752 3.07617 71.2402 2.73438 71.2402 2.09961 C 71.2402 2.00195 71.2402 1.9043 71.1914 1.70898 L 64.7461 -22.168 L 69.5801 -22.168 C 70.166 -22.168 70.6543 -22.7051 70.6543 -23.3398 C 70.6543 -23.9746 70.2148 -24.4629 69.5801 -24.4629 L 25.4395 -24.4629 C 20.5566 -24.4629 18.4082 -26.5625 18.4082 -31.4453 L 18.4082 -42.9199 L 27.1484 -42.9199 L 27.1484 -38.0371 C 27.1484 -34.0332 29.1504 -32.0801 33.252 -32.0801 L 56.9336 -32.0801 C 61.084 -32.0801 63.0371 -34.0332 63.0371 -38.0371 L 63.0371 -42.9199 L 79.3945 -42.9199 C 79.9805 -42.9199 80.4199 -43.3594 80.4199 -43.9941 C 80.4199 -44.5801 79.9805 -45.0195 79.3945 -45.0195 L 10.791 -45.0195 C 10.2051 -45.0195 9.76562 -44.5801 9.76562 -43.9941 C 9.76562 -43.3594 10.2051 -42.9199 10.791 -42.9199 L 16.3086 -42.9199 L 16.3086 -31.2012 C 16.3086 -25.2441 19.3359 -22.168 25.293 -22.168 L 26.709 -22.168 L 20.3125 1.70898 C 20.2637 1.9043 20.2148 2.00195 20.2148 2.09961 C 20.2148 2.73438 20.7031 3.07617 21.3867 3.07617 Z M 26.1719 -11.7188 L 28.9551 -22.168 L 62.5 -22.168 L 65.332 -11.7188 Z"/>
  </g>
 </g>
</svg>
