<?xml version="1.0" encoding="UTF-8"?>
<!--Generator: Apple Native CoreSVG 123-->
<!DOCTYPE svg
PUBLIC "-//W3C//DTD SVG 1.1//EN"
       "http://www.w3.org/Graphics/SVG/1.1/DTD/svg11.dtd">
<svg version="1.1" xmlns="http://www.w3.org/2000/svg" xmlns:xlink="http://www.w3.org/1999/xlink" width="3300" height="2200">
 <!--glyph: "uni10046B.medium", point size: 100.000000, font version: "Version 15.0d7e11", template writer version: "5"-->
 <g id="Notes">
  <rect height="2200" id="artboard" style="fill:white;opacity:1" width="3300" x="0" y="0"/>
  <line id="" style="fill:none;stroke:black;opacity:1;stroke-width:0.5;" x1="263" x2="3036" y1="292" y2="292"/>
  <text style="stroke:none;fill:black;font-family:-apple-system,&quot;SF Pro Display&quot;,&quot;SF Pro Text&quot;,Helvetica,sans-serif;font-weight:bold;" transform="matrix(1 0 0 1 263 322)">Weight/Scale Variations</text>
  <text style="stroke:none;fill:black;font-family:-apple-system,&quot;SF Pro Display&quot;,&quot;SF Pro Text&quot;,Helvetica,sans-serif;text-anchor:middle;" transform="matrix(1 0 0 1 559.711 322)">Ultralight</text>
  <text style="stroke:none;fill:black;font-family:-apple-system,&quot;SF Pro Display&quot;,&quot;SF Pro Text&quot;,Helvetica,sans-serif;text-anchor:middle;" transform="matrix(1 0 0 1 856.422 322)">Thin</text>
  <text style="stroke:none;fill:black;font-family:-apple-system,&quot;SF Pro Display&quot;,&quot;SF Pro Text&quot;,Helvetica,sans-serif;text-anchor:middle;" transform="matrix(1 0 0 1 1153.13 322)">Light</text>
  <text style="stroke:none;fill:black;font-family:-apple-system,&quot;SF Pro Display&quot;,&quot;SF Pro Text&quot;,Helvetica,sans-serif;text-anchor:middle;" transform="matrix(1 0 0 1 1449.84 322)">Regular</text>
  <text style="stroke:none;fill:black;font-family:-apple-system,&quot;SF Pro Display&quot;,&quot;SF Pro Text&quot;,Helvetica,sans-serif;text-anchor:middle;" transform="matrix(1 0 0 1 1746.56 322)">Medium</text>
  <text style="stroke:none;fill:black;font-family:-apple-system,&quot;SF Pro Display&quot;,&quot;SF Pro Text&quot;,Helvetica,sans-serif;text-anchor:middle;" transform="matrix(1 0 0 1 2043.27 322)">Semibold</text>
  <text style="stroke:none;fill:black;font-family:-apple-system,&quot;SF Pro Display&quot;,&quot;SF Pro Text&quot;,Helvetica,sans-serif;text-anchor:middle;" transform="matrix(1 0 0 1 2339.98 322)">Bold</text>
  <text style="stroke:none;fill:black;font-family:-apple-system,&quot;SF Pro Display&quot;,&quot;SF Pro Text&quot;,Helvetica,sans-serif;text-anchor:middle;" transform="matrix(1 0 0 1 2636.69 322)">Heavy</text>
  <text style="stroke:none;fill:black;font-family:-apple-system,&quot;SF Pro Display&quot;,&quot;SF Pro Text&quot;,Helvetica,sans-serif;text-anchor:middle;" transform="matrix(1 0 0 1 2933.4 322)">Black</text>
  <line id="" style="fill:none;stroke:black;opacity:1;stroke-width:0.5;" x1="263" x2="3036" y1="1903" y2="1903"/>
  <g id="" transform="matrix(1 0 0 1 263 1933)">
   <path d="M 9.24805 0.830078 C 13.5547 0.830078 17.1387 -2.74414 17.1387 -7.05078 C 17.1387 -11.3574 13.5449 -14.9316 9.23828 -14.9316 C 4.94141 -14.9316 1.36719 -11.3574 1.36719 -7.05078 C 1.36719 -2.74414 4.95117 0.830078 9.24805 0.830078 Z M 9.24805 -0.654297 C 5.70312 -0.654297 2.87109 -3.49609 2.87109 -7.05078 C 2.87109 -10.6055 5.69336 -13.4473 9.23828 -13.4473 C 12.793 -13.4473 15.6348 -10.6055 15.6445 -7.05078 C 15.6543 -3.49609 12.8027 -0.654297 9.24805 -0.654297 Z M 9.22852 -3.42773 C 9.69727 -3.42773 9.9707 -3.74023 9.9707 -4.25781 L 9.9707 -6.31836 L 12.1973 -6.31836 C 12.6953 -6.31836 13.0371 -6.57227 13.0371 -7.04102 C 13.0371 -7.51953 12.7148 -7.7832 12.1973 -7.7832 L 9.9707 -7.7832 L 9.9707 -10.0098 C 9.9707 -10.5273 9.69727 -10.8496 9.22852 -10.8496 C 8.75977 -10.8496 8.50586 -10.5078 8.50586 -10.0098 L 8.50586 -7.7832 L 6.29883 -7.7832 C 5.78125 -7.7832 5.44922 -7.51953 5.44922 -7.04102 C 5.44922 -6.57227 5.80078 -6.31836 6.29883 -6.31836 L 8.50586 -6.31836 L 8.50586 -4.25781 C 8.50586 -3.75977 8.75977 -3.42773 9.22852 -3.42773 Z"/>
  </g>
  <g id="" transform="matrix(1 0 0 1 281.506 1933)">
   <path d="M 11.709 2.91016 C 17.1582 2.91016 21.6699 -1.60156 21.6699 -7.05078 C 21.6699 -12.4902 17.1484 -17.0117 11.6992 -17.0117 C 6.25977 -17.0117 1.74805 -12.4902 1.74805 -7.05078 C 1.74805 -1.60156 6.26953 2.91016 11.709 2.91016 Z M 11.709 1.25 C 7.09961 1.25 3.41797 -2.44141 3.41797 -7.05078 C 3.41797 -11.6504 7.08984 -15.3516 11.6992 -15.3516 C 16.3086 -15.3516 20 -11.6504 20.0098 -7.05078 C 20.0195 -2.44141 16.3184 1.25 11.709 1.25 Z M 11.6895 -2.41211 C 12.207 -2.41211 12.5195 -2.77344 12.5195 -3.33984 L 12.5195 -6.23047 L 15.5762 -6.23047 C 16.123 -6.23047 16.5039 -6.51367 16.5039 -7.03125 C 16.5039 -7.55859 16.1426 -7.86133 15.5762 -7.86133 L 12.5195 -7.86133 L 12.5195 -10.9277 C 12.5195 -11.5039 12.207 -11.8555 11.6895 -11.8555 C 11.1719 -11.8555 10.8789 -11.4844 10.8789 -10.9277 L 10.8789 -7.86133 L 7.83203 -7.86133 C 7.26562 -7.86133 6.89453 -7.55859 6.89453 -7.03125 C 6.89453 -6.51367 7.28516 -6.23047 7.83203 -6.23047 L 10.8789 -6.23047 L 10.8789 -3.33984 C 10.8789 -2.79297 11.1719 -2.41211 11.6895 -2.41211 Z"/>
  </g>
  <g id="" transform="matrix(1 0 0 1 304.924 1933)">
   <path d="M 14.9707 5.67383 C 21.9336 5.67383 27.6953 -0.078125 27.6953 -7.04102 C 27.6953 -14.0039 21.9238 -19.7559 14.9609 -19.7559 C 8.00781 -19.7559 2.25586 -14.0039 2.25586 -7.04102 C 2.25586 -0.078125 8.01758 5.67383 14.9707 5.67383 Z M 14.9707 3.85742 C 8.93555 3.85742 4.08203 -1.00586 4.08203 -7.04102 C 4.08203 -13.0762 8.92578 -17.9395 14.9609 -17.9395 C 21.0059 -17.9395 25.8594 -13.0762 25.8691 -7.04102 C 25.8789 -1.00586 21.0156 3.85742 14.9707 3.85742 Z M 14.9512 -1.06445 C 15.5176 -1.06445 15.8691 -1.45508 15.8691 -2.06055 L 15.8691 -6.13281 L 20.1074 -6.13281 C 20.6934 -6.13281 21.1133 -6.46484 21.1133 -7.02148 C 21.1133 -7.59766 20.7227 -7.93945 20.1074 -7.93945 L 15.8691 -7.93945 L 15.8691 -12.1875 C 15.8691 -12.8027 15.5176 -13.1934 14.9512 -13.1934 C 14.3848 -13.1934 14.0625 -12.7832 14.0625 -12.1875 L 14.0625 -7.93945 L 9.83398 -7.93945 C 9.21875 -7.93945 8.80859 -7.59766 8.80859 -7.02148 C 8.80859 -6.46484 9.23828 -6.13281 9.83398 -6.13281 L 14.0625 -6.13281 L 14.0625 -2.06055 C 14.0625 -1.47461 14.3848 -1.06445 14.9512 -1.06445 Z"/>
  </g>
  <text style="stroke:none;fill:black;font-family:-apple-system,&quot;SF Pro Display&quot;,&quot;SF Pro Text&quot;,Helvetica,sans-serif;font-weight:bold;" transform="matrix(1 0 0 1 263 1953)">Design Variations</text>
  <text style="stroke:none;fill:black;font-family:-apple-system,&quot;SF Pro Display&quot;,&quot;SF Pro Text&quot;,Helvetica,sans-serif;" transform="matrix(1 0 0 1 263 1971)">Symbols are supported in up to nine weights and three scales.</text>
  <text style="stroke:none;fill:black;font-family:-apple-system,&quot;SF Pro Display&quot;,&quot;SF Pro Text&quot;,Helvetica,sans-serif;" transform="matrix(1 0 0 1 263 1989)">For optimal layout with text and other symbols, vertically align</text>
  <text style="stroke:none;fill:black;font-family:-apple-system,&quot;SF Pro Display&quot;,&quot;SF Pro Text&quot;,Helvetica,sans-serif;" transform="matrix(1 0 0 1 263 2007)">symbols with the adjacent text.</text>
  <rect height="14" id="" style="fill:#00AEEF;stroke:none;opacity:0.4;" width="3" x="776" y="1919"/>
  <g id="" transform="matrix(1 0 0 1 779 1933)">
   <path d="M 10.5273 0 L 12.373 0 L 7.17773 -14.0918 L 5.43945 -14.0918 L 0.244141 0 L 2.08984 0 L 3.50586 -4.0332 L 9.11133 -4.0332 Z M 6.2793 -11.9531 L 6.33789 -11.9531 L 8.59375 -5.52734 L 4.02344 -5.52734 Z"/>
  </g>
  <rect height="14" id="" style="fill:#00AEEF;stroke:none;opacity:0.4;" width="3" x="791.617" y="1919"/>
  <text style="stroke:none;fill:black;font-family:-apple-system,&quot;SF Pro Display&quot;,&quot;SF Pro Text&quot;,Helvetica,sans-serif;font-weight:bold;" transform="matrix(1 0 0 1 776 1953)">Margins</text>
  <text style="stroke:none;fill:black;font-family:-apple-system,&quot;SF Pro Display&quot;,&quot;SF Pro Text&quot;,Helvetica,sans-serif;" transform="matrix(1 0 0 1 776 1971)">Leading and trailing margins on the left and right side of each symbol</text>
  <text style="stroke:none;fill:black;font-family:-apple-system,&quot;SF Pro Display&quot;,&quot;SF Pro Text&quot;,Helvetica,sans-serif;" transform="matrix(1 0 0 1 776 1989)">can be adjusted by modifying the width of the blue rectangles.</text>
  <text style="stroke:none;fill:black;font-family:-apple-system,&quot;SF Pro Display&quot;,&quot;SF Pro Text&quot;,Helvetica,sans-serif;" transform="matrix(1 0 0 1 776 2007)">Modifications are automatically applied proportionally to all</text>
  <text style="stroke:none;fill:black;font-family:-apple-system,&quot;SF Pro Display&quot;,&quot;SF Pro Text&quot;,Helvetica,sans-serif;" transform="matrix(1 0 0 1 776 2025)">scales and weights.</text>
  <g id="" transform="matrix(1 0 0 1 1289 1933)">
   <path d="M 2.83203 3.11523 L 4.375 4.6582 C 5.22461 5.48828 6.19141 5.41992 7.06055 4.46289 L 17.2754 -6.66016 C 17.7051 -6.36719 18.0957 -6.37695 18.5645 -6.47461 L 19.6094 -6.68945 L 20.3027 -5.99609 L 20.2539 -5.47852 C 20.1855 -4.95117 20.3516 -4.53125 20.8496 -4.0332 L 21.6602 -3.22266 C 22.168 -2.71484 22.8223 -2.68555 23.3008 -3.16406 L 26.5527 -6.41602 C 27.0312 -6.89453 27.0117 -7.54883 26.5039 -8.05664 L 25.6836 -8.87695 C 25.1855 -9.375 24.7754 -9.55078 24.2383 -9.47266 L 23.7109 -9.41406 L 23.0566 -10.0781 L 23.3398 -11.2207 C 23.4863 -11.7871 23.3398 -12.2559 22.7148 -12.8613 L 20.3027 -15.2539 C 16.7578 -18.7793 12.2266 -18.6719 9.11133 -15.5371 C 8.69141 -15.1074 8.64258 -14.5215 8.91602 -14.0918 C 9.15039 -13.7207 9.62891 -13.4961 10.2734 -13.6621 C 11.7871 -14.043 13.3008 -13.9258 14.7852 -12.9199 L 14.1602 -11.3379 C 13.9258 -10.752 13.9453 -10.2734 14.1797 -9.83398 L 3.01758 0.439453 C 2.08008 1.30859 1.97266 2.25586 2.83203 3.11523 Z M 10.6738 -15.1465 C 13.3398 -17.1387 16.6504 -16.8262 19.0527 -14.4141 L 21.6797 -11.8066 C 21.9141 -11.5723 21.9434 -11.3867 21.8848 -11.0938 L 21.5039 -9.53125 L 23.0762 -7.95898 L 24.043 -8.04688 C 24.3262 -8.07617 24.4141 -8.05664 24.6387 -7.83203 L 25.2637 -7.20703 L 22.5098 -4.46289 L 21.8848 -5.07812 C 21.6602 -5.30273 21.6406 -5.40039 21.6699 -5.68359 L 21.7578 -6.64062 L 20.1953 -8.20312 L 18.5742 -7.89062 C 18.291 -7.83203 18.1445 -7.83203 17.9102 -8.07617 L 15.7324 -10.2539 C 15.5078 -10.4883 15.4785 -10.625 15.6055 -10.9473 L 16.5527 -13.2227 C 14.9512 -14.7559 12.8418 -15.6055 10.8008 -14.9512 C 10.7129 -14.9219 10.6445 -14.9414 10.6152 -14.9805 C 10.5859 -15.0293 10.5859 -15.0781 10.6738 -15.1465 Z M 4.10156 2.41211 C 3.61328 1.91406 3.78906 1.61133 4.12109 1.30859 L 15.0781 -8.80859 L 16.3086 -7.57812 L 6.15234 3.34961 C 5.84961 3.68164 5.46875 3.7793 5.06836 3.37891 Z"/>
  </g>
  <text style="stroke:none;fill:black;font-family:-apple-system,&quot;SF Pro Display&quot;,&quot;SF Pro Text&quot;,Helvetica,sans-serif;font-weight:bold;" transform="matrix(1 0 0 1 1289 1953)">Exporting</text>
  <text style="stroke:none;fill:black;font-family:-apple-system,&quot;SF Pro Display&quot;,&quot;SF Pro Text&quot;,Helvetica,sans-serif;" transform="matrix(1 0 0 1 1289 1971)">Symbols should be outlined when exporting to ensure the</text>
  <text style="stroke:none;fill:black;font-family:-apple-system,&quot;SF Pro Display&quot;,&quot;SF Pro Text&quot;,Helvetica,sans-serif;" transform="matrix(1 0 0 1 1289 1989)">design is preserved when submitting to Xcode.</text>
  <text id="template-version" style="stroke:none;fill:black;font-family:-apple-system,&quot;SF Pro Display&quot;,&quot;SF Pro Text&quot;,Helvetica,sans-serif;text-anchor:end;" transform="matrix(1 0 0 1 3036 1933)">Template v.1.0</text>
  <text style="stroke:none;fill:black;font-family:-apple-system,&quot;SF Pro Display&quot;,&quot;SF Pro Text&quot;,Helvetica,sans-serif;text-anchor:end;" transform="matrix(1 0 0 1 3036 1951)">Generated from music.mic</text>
  <text style="stroke:none;fill:black;font-family:-apple-system,&quot;SF Pro Display&quot;,&quot;SF Pro Text&quot;,Helvetica,sans-serif;text-anchor:end;" transform="matrix(1 0 0 1 3036 1969)">Typeset at 100 points</text>
  <text style="stroke:none;fill:black;font-family:-apple-system,&quot;SF Pro Display&quot;,&quot;SF Pro Text&quot;,Helvetica,sans-serif;" transform="matrix(1 0 0 1 263 726)">Small</text>
  <text style="stroke:none;fill:black;font-family:-apple-system,&quot;SF Pro Display&quot;,&quot;SF Pro Text&quot;,Helvetica,sans-serif;" transform="matrix(1 0 0 1 263 1156)">Medium</text>
  <text style="stroke:none;fill:black;font-family:-apple-system,&quot;SF Pro Display&quot;,&quot;SF Pro Text&quot;,Helvetica,sans-serif;" transform="matrix(1 0 0 1 263 1586)">Large</text>
 </g>
 <g id="Guides">
  <g id="H-reference" style="fill:#27AAE1;stroke:none;" transform="matrix(1 0 0 1 339 696)">
   <path d="M 54.9316 0 L 57.666 0 L 30.5664 -70.459 L 28.0762 -70.459 L 0.976562 0 L 3.66211 0 L 12.9395 -24.4629 L 45.7031 -24.4629 Z M 29.1992 -67.0898 L 29.4434 -67.0898 L 44.8242 -26.709 L 13.8184 -26.709 Z"/>
  </g>
  <line id="Baseline-S" style="fill:none;stroke:#27AAE1;opacity:1;stroke-width:0.577;" x1="263" x2="3036" y1="696" y2="696"/>
  <line id="Capline-S" style="fill:none;stroke:#27AAE1;opacity:1;stroke-width:0.577;" x1="263" x2="3036" y1="625.541" y2="625.541"/>
  <g id="H-reference" style="fill:#27AAE1;stroke:none;" transform="matrix(1 0 0 1 339 1126)">
   <path d="M 54.9316 0 L 57.666 0 L 30.5664 -70.459 L 28.0762 -70.459 L 0.976562 0 L 3.66211 0 L 12.9395 -24.4629 L 45.7031 -24.4629 Z M 29.1992 -67.0898 L 29.4434 -67.0898 L 44.8242 -26.709 L 13.8184 -26.709 Z"/>
  </g>
  <line id="Baseline-M" style="fill:none;stroke:#27AAE1;opacity:1;stroke-width:0.577;" x1="263" x2="3036" y1="1126" y2="1126"/>
  <line id="Capline-M" style="fill:none;stroke:#27AAE1;opacity:1;stroke-width:0.577;" x1="263" x2="3036" y1="1055.54" y2="1055.54"/>
  <g id="H-reference" style="fill:#27AAE1;stroke:none;" transform="matrix(1 0 0 1 339 1556)">
   <path d="M 54.9316 0 L 57.666 0 L 30.5664 -70.459 L 28.0762 -70.459 L 0.976562 0 L 3.66211 0 L 12.9395 -24.4629 L 45.7031 -24.4629 Z M 29.1992 -67.0898 L 29.4434 -67.0898 L 44.8242 -26.709 L 13.8184 -26.709 Z"/>
  </g>
  <line id="Baseline-L" style="fill:none;stroke:#27AAE1;opacity:1;stroke-width:0.577;" x1="263" x2="3036" y1="1556" y2="1556"/>
  <line id="Capline-L" style="fill:none;stroke:#27AAE1;opacity:1;stroke-width:0.577;" x1="263" x2="3036" y1="1485.54" y2="1485.54"/>
  <rect height="119.336" id="left-margin" style="fill:#00AEEF;stroke:none;opacity:0.4;" width="11.2402" x="1390.13" y="1030.79"/>
  <rect height="119.336" id="right-margin" style="fill:#00AEEF;stroke:none;opacity:0.4;" width="11.2551" x="1498.31" y="1030.79"/>
 </g>
 <g id="Symbols">
  <g id="Black-L" transform="matrix(1 0 0 1 2851.42 1556)">
   <path d="M 100.244 -95.2637 L 140.186 -55.3223 C 151.709 -66.4551 153.223 -83.252 140.723 -95.8008 C 128.174 -108.252 111.377 -106.787 100.244 -95.2637 Z M 91.6992 -86.7676 C 85.4492 -80.7129 82.1777 -72.9492 82.4707 -65.1855 L 24.3164 -2.97852 C 21.3379 0.195312 21.3867 3.75977 24.707 8.30078 L 15.625 19.6777 C 13.916 21.8262 14.209 24.8535 16.2109 26.8555 L 18.0664 28.7109 C 20.1172 30.7617 23.1445 31.0547 25.4395 29.1992 L 36.6211 20.166 C 41.1621 23.4863 44.6777 23.4863 47.8516 20.5566 L 74.9023 -4.73633 L 74.9023 22.9004 C 74.9023 27.6367 78.7109 31.3965 83.4961 31.3965 C 88.2812 31.3965 92.0898 27.6367 92.0898 22.9004 L 92.0898 -13.5742 L 91.6992 -20.3613 L 110.156 -37.5488 C 117.92 -37.2559 125.635 -40.5762 131.641 -46.8262 Z M 36.4258 3.36914 L 88.1348 -49.9023 C 89.0137 -48.6816 90.0391 -47.5098 91.2109 -46.3867 C 92.3828 -45.2148 93.5547 -44.1895 94.7754 -43.2617 L 41.5527 8.49609 Z"/>
  </g>
  <g id="Heavy-L" transform="matrix(1 0 0 1 2555.95 1556)">
   <path d="M 99.1699 -93.9941 L 137.842 -55.3711 C 149.268 -66.5039 150.537 -82.5684 138.477 -94.6289 C 126.416 -106.641 110.352 -105.42 99.1699 -93.9941 Z M 91.3086 -86.1328 C 84.9121 -79.8828 81.6895 -72.168 82.1777 -64.4531 L 23.9746 -2.05078 C 21.1426 0.976562 21.1426 4.49219 24.4141 8.64258 L 15.4785 19.8242 C 14.0137 21.6797 14.2578 24.2676 16.0156 26.0254 L 17.8223 27.8809 C 19.6289 29.6387 22.168 29.8828 24.1699 28.3203 L 35.2051 19.3848 C 39.3555 22.6562 42.8711 22.6074 45.8496 19.8242 L 74.4141 -6.78711 L 74.4141 23.0957 C 74.4141 27.4414 77.8809 30.8105 82.2266 30.8105 C 86.5723 30.8105 90.0391 27.4414 90.0391 23.0957 L 90.0391 -13.7695 L 89.6484 -20.9473 L 108.301 -38.2812 C 115.967 -37.8418 123.73 -41.1133 129.932 -47.5098 Z M 34.4727 3.90625 L 87.207 -50.8789 C 88.1836 -49.4629 89.3066 -48.1445 90.5762 -46.8262 C 91.8945 -45.5078 93.2129 -44.3359 94.6289 -43.3594 L 39.9902 9.42383 Z"/>
  </g>
  <g id="Bold-L" transform="matrix(1 0 0 1 2260.63 1556)">
   <path d="M 97.998 -92.5293 L 135.156 -55.3711 C 146.582 -66.5527 147.51 -81.8359 135.986 -93.3594 C 124.414 -104.785 109.18 -103.955 97.998 -92.5293 Z M 90.8691 -85.4492 C 84.2773 -78.9551 81.2012 -71.2402 81.8848 -63.6719 L 23.584 -1.07422 C 20.8984 1.80664 20.8496 5.27344 24.0234 9.0332 L 15.2832 20.0195 C 14.1113 21.4844 14.2578 23.6328 15.7227 25.0977 L 17.5781 26.9531 C 19.043 28.418 21.1426 28.6133 22.7539 27.2949 L 33.6426 18.5547 C 37.3047 21.7285 40.8203 21.6797 43.6523 18.9941 L 73.877 -9.08203 L 73.877 23.291 C 73.877 27.1484 76.9531 30.1758 80.8105 30.1758 C 84.668 30.1758 87.7441 27.1484 87.7441 23.291 L 87.7441 -13.916 L 87.3047 -21.582 L 106.201 -39.1113 C 113.818 -38.5254 121.582 -41.6992 128.027 -48.291 Z M 32.2754 4.49219 L 86.1816 -51.9531 C 87.207 -50.3906 88.4766 -48.8281 89.9414 -47.3633 C 91.3574 -45.8496 92.8711 -44.5801 94.4336 -43.5059 L 38.1836 10.4004 Z"/>
  </g>
  <g id="Semibold-L" transform="matrix(1 0 0 1 1964.9 1556)">
   <path d="M 97.2168 -91.5527 L 133.35 -55.4199 C 144.678 -66.6016 145.459 -81.2988 134.229 -92.4805 C 123.096 -103.564 108.398 -102.881 97.2168 -91.5527 Z M 90.5762 -84.9609 C 83.8379 -78.3203 80.8594 -70.6543 81.7383 -63.1348 L 23.291 -0.390625 C 20.752 2.39258 20.6543 5.81055 23.7793 9.27734 L 15.1855 20.1172 C 14.1602 21.3379 14.2578 23.1445 15.5273 24.4141 L 17.3828 26.2695 C 18.6523 27.5391 20.4102 27.6855 21.7773 26.6113 L 32.5684 17.9199 C 35.9375 21.0938 39.4043 20.9961 42.1387 18.457 L 73.4863 -10.6445 L 73.4863 23.4375 C 73.4863 27.002 76.2695 29.6875 79.834 29.6875 C 83.3496 29.6875 86.1816 27.002 86.1816 23.4375 L 86.1816 -14.0137 L 85.7422 -22.0215 L 104.785 -39.6973 C 112.305 -38.9648 120.117 -42.0898 126.709 -48.7793 Z M 30.7617 4.88281 L 85.498 -52.7344 C 86.5723 -51.0254 87.8906 -49.3164 89.4531 -47.7051 C 91.0156 -46.0938 92.627 -44.7266 94.3359 -43.5547 L 36.9629 11.084 Z"/>
  </g>
  <g id="Medium-L" transform="matrix(1 0 0 1 1668.89 1556)">
   <path d="M 96.582 -90.7715 L 131.934 -55.4199 C 143.262 -66.6016 143.896 -80.9082 132.91 -91.7969 C 122.021 -102.588 107.812 -102.1 96.582 -90.7715 Z M 90.3809 -84.5703 C 83.5449 -77.832 80.6152 -70.166 81.5918 -62.793 L 23.0957 0.146484 C 20.6055 2.83203 20.5078 6.20117 23.584 9.47266 L 15.0879 20.2148 C 14.2578 21.2891 14.3066 22.8027 15.4297 23.9258 L 17.2363 25.7812 C 18.3594 26.9043 19.873 27.002 21.0449 26.0742 L 31.7383 17.4805 C 34.8633 20.6543 38.3301 20.5078 40.9668 18.0176 L 73.1934 -11.8652 L 73.1934 23.584 C 73.1934 26.8555 75.7812 29.3945 79.1016 29.3945 C 82.373 29.3945 84.9609 26.8555 84.9609 23.584 L 84.9609 -14.1113 L 84.5215 -22.3633 L 103.76 -40.1855 C 111.182 -39.3066 118.945 -42.3828 125.684 -49.1699 Z M 29.5898 5.17578 L 84.9609 -53.3203 C 86.084 -51.4648 87.4512 -49.707 89.1113 -47.9492 C 90.7227 -46.2402 92.4316 -44.8242 94.2383 -43.6523 L 36.0352 11.5723 Z"/>
  </g>
  <g id="Regular-L" transform="matrix(1 0 0 1 1373.14 1556)">
   <path d="M 95.8008 -89.7949 L 130.127 -55.4688 C 141.406 -66.6504 141.846 -80.4199 131.201 -90.918 C 120.703 -101.367 107.031 -101.074 95.8008 -89.7949 Z M 90.0879 -84.082 C 83.1055 -77.1484 80.3223 -69.5801 81.3965 -62.2559 L 22.8027 0.830078 C 20.459 3.41797 20.3125 6.73828 23.3398 9.76562 L 14.9902 20.3125 C 14.3066 21.1426 14.3066 22.3633 15.2344 23.291 L 17.0898 25.1465 C 18.0176 26.0742 19.1406 26.123 20.1172 25.3906 L 30.6641 16.8945 C 33.4961 20.0195 36.9629 19.8242 39.4531 17.4805 L 72.8027 -13.3789 L 72.8027 23.7305 C 72.8027 26.6602 75.1465 28.9551 78.125 28.9551 C 81.1035 28.9551 83.3984 26.6602 83.3984 23.7305 L 83.3984 -14.2578 L 82.959 -22.8027 L 102.344 -40.7715 C 109.668 -39.7461 117.48 -42.7734 124.414 -49.707 Z M 28.125 5.56641 L 84.2773 -54.1016 C 85.4492 -52.1484 86.8652 -50.1953 88.623 -48.291 C 90.3809 -46.4355 92.2363 -44.9219 94.1406 -43.75 L 34.8145 12.2559 Z"/>
  </g>
  <g id="Light-L" transform="matrix(1 0 0 1 1076.94 1556)">
   <path d="M 95.0684 -89.9414 L 128.906 -56.1035 C 140.479 -67.5781 140.869 -80.957 130.322 -91.4062 C 119.873 -101.807 106.543 -101.514 95.0684 -89.9414 Z M 90.1855 -85.1074 C 82.7637 -77.6855 79.9805 -70.0195 81.25 -62.6465 L 22.6562 0.585938 C 20.3125 3.17383 20.4102 6.10352 23.6328 9.22852 L 14.7949 19.9707 C 14.3555 20.6055 14.3555 21.4355 15.0391 22.1191 L 16.8945 23.9746 C 17.5781 24.6582 18.3594 24.707 19.0918 24.1211 L 29.834 15.2344 C 32.7148 18.5059 35.8398 18.6035 38.3301 16.2598 L 72.6074 -15.4297 L 72.6074 23.1445 C 72.6074 25.7324 74.6582 27.7344 77.2949 27.7344 C 79.9316 27.7344 81.9824 25.7324 81.9824 23.1445 L 81.9824 -15.6738 L 81.4941 -23.6816 L 101.172 -41.8457 C 108.594 -40.625 116.65 -43.8477 124.023 -51.2207 Z M 26.3672 4.73633 L 83.4961 -56.1523 C 84.668 -53.8086 86.2793 -51.5137 88.2324 -49.3164 C 90.2344 -47.1191 92.334 -45.4102 94.6289 -44.1406 L 34.2773 12.6465 Z"/>
  </g>
  <g id="Thin-L" transform="matrix(1 0 0 1 780.861 1556)">
   <path d="M 94.1895 -90.1367 L 127.344 -56.9824 C 139.209 -68.7988 139.6 -81.6406 129.15 -92.041 C 118.75 -102.344 105.908 -102.051 94.1895 -90.1367 Z M 90.332 -86.4746 C 82.2754 -78.3691 79.541 -70.6055 81.1035 -63.0859 L 22.4121 0.292969 C 20.166 2.7832 20.6055 5.32227 24.0234 8.49609 L 14.5996 19.5312 C 14.4043 19.873 14.4531 20.2148 14.7949 20.5566 L 16.6504 22.4121 C 17.041 22.8027 17.334 22.8027 17.7246 22.5098 L 28.7598 12.9883 C 31.6406 16.5039 34.4238 16.9434 36.8164 14.6973 L 72.4609 -18.2129 L 72.3633 -17.627 L 72.3633 22.4121 C 72.3633 24.5605 73.9746 26.1719 76.2207 26.1719 C 78.418 26.1719 80.0293 24.5605 80.0293 22.4121 L 80.0293 -17.627 L 79.6387 -24.8535 L 99.5605 -43.2617 C 107.129 -41.7969 115.576 -45.2148 123.584 -53.2227 Z M 24.0234 3.61328 L 82.4707 -58.8379 C 83.6426 -56.1035 85.4492 -53.3691 87.6953 -50.6836 C 90.0391 -47.9492 92.5293 -45.9961 95.2637 -44.6777 L 33.5449 13.1836 Z M 89.4043 -52.2949 L 89.4043 -52.3438 C 89.4043 -52.2949 89.4043 -52.2949 89.4043 -52.2949 Z"/>
  </g>
  <g id="Ultralight-L" transform="matrix(1 0 0 1 484.491 1556)">
   <path d="M 93.7012 -90.2344 L 126.514 -57.4219 C 138.574 -69.4336 138.965 -82.0312 128.564 -92.3828 C 118.164 -102.637 105.615 -102.295 93.7012 -90.2344 Z M 90.4297 -87.1582 C 82.0312 -78.7109 79.2969 -70.9473 81.0547 -63.3789 L 22.3145 0.0976562 C 20.0684 2.58789 20.7031 4.88281 24.2188 8.1543 L 14.502 19.2871 C 14.4043 19.4824 14.502 19.5801 14.6484 19.7754 L 16.5039 21.582 C 16.748 21.875 16.7969 21.8262 17.041 21.6797 L 28.2227 11.8652 C 31.1035 15.4785 33.6426 16.1133 36.0352 13.8672 L 72.4121 -19.6777 L 72.2168 -18.6035 L 72.2168 22.0703 C 72.2168 23.9258 73.6816 25.3906 75.6348 25.3906 C 77.6367 25.3906 79.0527 23.9258 79.0527 22.0703 L 79.0527 -18.6035 L 78.6621 -25.4395 L 98.7793 -43.9941 C 106.348 -42.3828 114.99 -45.8984 123.34 -54.248 Z M 84.1797 -62.6465 C 84.4238 -62.3047 84.3262 -62.5 84.5703 -62.1582 L 84.1309 -62.5977 Z M 22.8027 3.07617 L 81.9824 -60.3027 C 83.1543 -57.2754 85.0098 -54.3457 87.4512 -51.3672 C 89.8926 -48.3887 92.6758 -46.2891 95.6055 -45.0195 L 33.2031 13.4277 Z M 89.1602 -52.9785 C 89.1113 -53.0273 89.1113 -53.125 89.2578 -53.125 C 89.209 -52.9785 89.209 -52.9297 89.1602 -52.9785 Z M 98.9258 -48.0957 L 98.7793 -47.9492 L 97.9004 -48.8281 C 98.2422 -48.584 98.584 -48.3887 98.9258 -48.0957 Z"/>
  </g>
  <g id="Black-M" transform="matrix(1 0 0 1 2868.43 1126)">
   <path d="M 78.7598 -83.5938 L 111.23 -51.123 C 120.312 -59.8633 121.826 -73.6328 111.572 -83.9355 C 101.27 -94.2383 87.4512 -92.7246 78.7598 -83.5938 Z M 71.6797 -76.5625 C 66.7969 -71.875 64.0625 -65.7715 64.209 -59.5703 L 19.2383 -11.5723 C 16.6992 -8.93555 16.9922 -6.25 19.7266 -2.24609 L 12.207 6.98242 C 10.6445 8.93555 11.0352 11.6211 12.793 13.3789 L 14.209 14.8438 C 16.0645 16.6504 18.75 16.9922 20.8496 15.2832 L 29.834 7.8125 C 33.8867 10.5957 36.4746 10.791 39.1113 8.34961 L 58.6426 -9.91211 L 58.6426 9.27734 C 58.6426 13.3301 61.9141 16.5527 65.9668 16.5527 C 70.0684 16.5527 73.3398 13.3301 73.3398 9.27734 L 73.3398 -19.043 L 73.0957 -23.3887 L 87.207 -36.6211 C 93.4082 -36.5234 99.5117 -39.2578 104.15 -44.0918 Z M 29.9316 -6.44531 L 69.043 -46.3379 C 69.7266 -45.459 70.459 -44.6289 71.2891 -43.7988 C 72.1191 -42.9199 72.998 -42.1387 73.9258 -41.4551 L 34.0332 -2.29492 Z"/>
  </g>
  <g id="Heavy-M" transform="matrix(1 0 0 1 2572.97 1126)">
   <path d="M 77.7832 -82.1289 L 108.936 -50.9766 C 117.92 -59.668 119.141 -72.7539 109.375 -82.5684 C 99.5605 -92.334 86.4746 -91.1133 77.7832 -82.1289 Z M 71.1914 -75.6348 C 66.2598 -70.8496 63.6719 -64.7949 63.916 -58.6914 L 18.8965 -10.498 C 16.5527 -8.00781 16.6504 -5.32227 19.3359 -1.70898 L 12.1094 7.22656 C 10.7422 8.88672 11.0352 11.2305 12.5977 12.793 L 14.0137 14.209 C 15.625 15.8203 17.9199 16.0645 19.7266 14.5996 L 28.5156 7.42188 C 32.1289 10.0586 34.7656 10.1562 37.2559 7.86133 L 58.1543 -11.6211 L 58.1543 9.61914 C 58.1543 13.3301 61.084 16.2109 64.7949 16.2109 C 68.5059 16.2109 71.4844 13.3301 71.4844 9.61914 L 71.4844 -18.8477 L 71.1914 -23.8281 L 85.498 -37.1582 C 91.6016 -36.9141 97.6074 -39.5508 102.344 -44.4336 Z M 28.2227 -5.66406 L 68.2617 -46.875 C 68.9941 -45.8984 69.8242 -44.9707 70.7031 -44.043 C 71.6309 -43.0664 72.6074 -42.2363 73.584 -41.5039 L 32.4707 -1.46484 Z"/>
  </g>
  <g id="Bold-M" transform="matrix(1 0 0 1 2277.65 1126)">
   <path d="M 76.6602 -80.5176 L 106.348 -50.8301 C 115.234 -59.4727 116.162 -71.7773 106.885 -81.0547 C 97.6074 -90.2344 85.3027 -89.3555 76.6602 -80.5176 Z M 70.7031 -74.5605 C 65.6738 -69.6777 63.2324 -63.6719 63.623 -57.7637 L 18.5059 -9.375 C 16.3086 -7.03125 16.3086 -4.29688 18.8477 -1.12305 L 11.9629 7.4707 C 10.8398 8.83789 11.0352 10.791 12.3535 12.1094 L 13.7695 13.5254 C 15.0879 14.8438 17.041 15.0391 18.5059 13.8672 L 27.0508 6.98242 C 30.127 9.52148 32.8613 9.47266 35.1562 7.32422 L 57.5684 -13.5254 L 57.5684 10.0098 C 57.5684 13.2812 60.2051 15.8691 63.4766 15.8691 C 66.7969 15.8691 69.3848 13.2812 69.3848 10.0098 L 69.3848 -18.6035 L 69.0918 -24.2676 L 83.5938 -37.7441 C 89.502 -37.3535 95.5078 -39.8438 100.342 -44.8242 Z M 26.3672 -4.78516 L 67.3828 -47.5098 C 68.1641 -46.3867 69.0918 -45.3125 70.1172 -44.2871 C 71.0938 -43.2617 72.168 -42.334 73.291 -41.5527 L 30.6641 -0.488281 Z"/>
  </g>
  <g id="Semibold-M" transform="matrix(1 0 0 1 1981.89 1126)">
   <path d="M 75.9277 -79.3945 L 104.59 -50.7324 C 113.379 -59.3262 114.062 -71.0938 105.176 -79.9805 C 96.2891 -88.7695 84.5703 -88.1836 75.9277 -79.3945 Z M 70.3125 -73.8281 C 65.2832 -68.8477 62.9395 -62.9395 63.4766 -57.0801 L 18.2129 -8.54492 C 16.1621 -6.34766 16.0645 -3.61328 18.5059 -0.732422 L 11.8652 7.66602 C 10.9375 8.83789 11.0352 10.498 12.207 11.6211 L 13.623 13.0371 C 14.7461 14.209 16.3574 14.3555 17.627 13.3301 L 26.0254 6.68945 C 28.8086 9.13086 31.543 8.98438 33.7402 6.93359 L 57.1777 -14.8438 L 57.1777 10.3027 C 57.1777 13.2812 59.5703 15.625 62.5977 15.625 C 65.5762 15.625 67.9688 13.2812 67.9688 10.3027 L 67.9688 -18.4082 L 67.627 -24.5605 L 82.2754 -38.1348 C 88.0859 -37.6465 94.043 -40.0879 98.9746 -45.1172 Z M 25.0488 -4.19922 L 66.7969 -47.9492 C 67.627 -46.7285 68.5547 -45.6055 69.6777 -44.4824 C 70.752 -43.3594 71.875 -42.3828 73.0469 -41.5527 L 29.4434 0.195312 Z"/>
  </g>
  <g id="Medium-M" transform="matrix(1 0 0 1 1685.91 1126)">
   <path d="M 75.3418 -78.5645 L 103.271 -50.6348 C 111.963 -59.1797 112.5 -70.6055 103.906 -79.1504 C 95.3125 -87.6953 83.9355 -87.2559 75.3418 -78.5645 Z M 70.0684 -73.2422 C 64.9902 -68.2129 62.6953 -62.3535 63.3301 -56.5918 L 18.0176 -7.95898 C 16.0645 -5.81055 15.8691 -3.07617 18.2617 -0.439453 L 11.7676 7.8125 C 10.9863 8.78906 11.0352 10.2539 12.0605 11.2793 L 13.4766 12.6953 C 14.502 13.7207 15.918 13.8184 16.9922 12.9395 L 25.2441 6.44531 C 27.7344 8.83789 30.5664 8.64258 32.6172 6.68945 L 56.8848 -15.8691 L 56.8848 10.498 C 56.8848 13.2812 59.082 15.4297 61.8652 15.4297 C 64.6484 15.4297 66.8457 13.2812 66.8457 10.498 L 66.8457 -18.3105 L 66.5039 -24.7559 L 81.2988 -38.4766 C 87.0117 -37.8906 92.9688 -40.2344 97.9492 -45.3125 Z M 24.0723 -3.75977 L 66.3574 -48.291 C 67.1875 -47.0215 68.1641 -45.8008 69.3359 -44.6289 C 70.459 -43.457 71.6797 -42.4316 72.9004 -41.6016 L 28.5156 0.683594 Z"/>
  </g>
  <g id="Regular-M" transform="matrix(1 0 0 1 1390.13 1126)">
   <path d="M 74.6094 -77.4414 L 101.514 -50.5371 C 110.107 -59.082 110.449 -69.9219 102.197 -78.125 C 93.9941 -86.2305 83.2031 -86.0352 74.6094 -77.4414 Z M 69.7266 -72.5098 C 64.5508 -67.4316 62.4023 -61.6211 63.1348 -56.0059 L 17.7734 -7.12891 C 15.918 -5.12695 15.625 -2.34375 17.9199 -0.0488281 L 11.6699 8.00781 C 11.084 8.78906 11.0352 9.91211 11.9141 10.791 L 13.3301 12.2559 C 14.1602 13.0859 15.2832 13.1348 16.1621 12.4512 L 24.2188 6.15234 C 26.416 8.44727 29.248 8.1543 31.2012 6.29883 L 56.543 -17.1387 L 56.543 10.7422 C 56.543 13.2324 58.4961 15.1855 60.9863 15.1855 C 63.4766 15.1855 65.4297 13.2324 65.4297 10.7422 L 65.4297 -18.1152 L 65.0879 -25.0977 L 79.9805 -38.916 C 85.5957 -38.1836 91.5039 -40.4785 96.582 -45.6055 Z M 22.8027 -3.125 L 65.8203 -48.7305 C 66.6504 -47.3633 67.6758 -46.0449 68.8965 -44.7754 C 70.1172 -43.5547 71.3867 -42.4805 72.7051 -41.6016 L 27.2949 1.36719 Z"/>
  </g>
  <g id="Light-M" transform="matrix(1 0 0 1 1093.86 1126)">
   <path d="M 73.9746 -77.5879 L 100.439 -51.123 C 109.277 -59.9121 109.619 -70.4102 101.416 -78.5645 C 93.2617 -86.6211 82.7637 -86.4258 73.9746 -77.5879 Z M 69.8242 -73.4375 C 64.3066 -67.9199 62.1094 -62.0117 63.0371 -56.2988 L 17.627 -7.37305 C 15.8203 -5.37109 15.7715 -2.92969 18.2129 -0.537109 L 11.5723 7.71484 C 11.084 8.25195 11.084 9.08203 11.7188 9.76562 L 13.1836 11.1816 C 13.8184 11.8164 14.5996 11.8652 15.2344 11.3281 L 23.4863 4.63867 C 25.6836 7.08008 28.2715 7.03125 30.2246 5.22461 L 56.3477 -18.9941 L 56.3477 10.2539 C 56.3477 12.4512 58.0566 14.1113 60.2539 14.1113 C 62.4512 14.1113 64.1602 12.4512 64.1602 10.2539 L 64.1602 -19.4336 L 63.8184 -25.8789 L 78.9062 -39.8438 C 84.668 -39.0137 90.7715 -41.4062 96.2891 -46.9727 Z M 21.1914 -3.90625 L 65.0391 -50.5371 C 65.9668 -48.877 67.1387 -47.2656 68.5547 -45.7031 C 69.9707 -44.1406 71.5332 -42.9199 73.0957 -41.9434 L 26.8066 1.70898 Z"/>
  </g>
  <g id="Thin-M" transform="matrix(1 0 0 1 797.706 1126)">
   <path d="M 73.1934 -77.7344 L 99.0234 -51.9043 C 108.154 -60.9863 108.496 -71.0449 100.342 -79.1016 C 92.2852 -87.1094 82.2266 -86.8652 73.1934 -77.7344 Z M 70.0195 -74.6582 C 63.8672 -68.5059 61.7188 -62.5 62.8906 -56.7383 L 17.4316 -7.66602 C 15.6738 -5.71289 15.9668 -3.61328 18.5547 -1.17188 L 11.377 7.32422 C 11.1328 7.61719 11.1816 8.00781 11.5234 8.34961 L 12.9395 9.76562 C 13.3301 10.1562 13.6719 10.1562 14.0625 9.86328 L 22.5098 2.63672 C 24.7559 5.27344 27.002 5.56641 28.8574 3.80859 L 56.2012 -21.4355 L 56.1523 -21.1914 L 56.1523 9.61914 C 56.1523 11.377 57.5195 12.6953 59.3262 12.6953 C 61.1328 12.6953 62.4512 11.377 62.4512 9.61914 L 62.4512 -21.1914 L 62.1582 -26.9043 L 77.5391 -41.1621 C 83.3496 -40.0879 89.7949 -42.6758 95.8984 -48.7305 Z M 19.1406 -4.88281 L 64.1602 -52.9297 C 65.0879 -50.8789 66.4062 -48.877 68.1152 -46.9238 C 69.8242 -44.9219 71.6797 -43.457 73.6816 -42.4316 L 26.1719 2.14844 Z"/>
  </g>
  <g id="Ultralight-M" transform="matrix(1 0 0 1 501.288 1126)">
   <path d="M 72.8027 -77.832 L 98.291 -52.2949 C 107.617 -61.5234 107.91 -71.3867 99.8047 -79.3945 C 91.7969 -87.4023 81.9336 -87.1582 72.8027 -77.832 Z M 70.0684 -75.2441 C 63.6719 -68.8477 61.5234 -62.793 62.8418 -56.9824 L 17.334 -7.76367 C 15.5762 -5.85938 16.0645 -4.00391 18.75 -1.51367 L 11.2793 7.08008 C 11.1816 7.27539 11.2305 7.4707 11.4258 7.61719 L 12.8418 9.0332 C 13.0859 9.27734 13.1836 9.27734 13.4277 9.13086 L 22.0215 1.61133 C 24.2676 4.3457 26.3184 4.83398 28.1738 3.07617 L 56.1523 -22.7051 L 56.0547 -22.0703 L 56.0547 9.27734 C 56.0547 10.791 57.2266 11.9629 58.7891 11.9629 C 60.4004 11.9629 61.5723 10.791 61.5723 9.27734 L 61.5723 -22.0703 L 61.2793 -27.4414 L 76.8066 -41.7969 C 82.666 -40.5762 89.3066 -43.3105 95.6543 -49.6582 Z M 18.0664 -5.37109 L 63.7207 -54.1992 C 64.5996 -51.9531 66.0156 -49.7559 67.8711 -47.5098 C 69.7266 -45.3125 71.7773 -43.7012 74.0234 -42.7246 L 25.8789 2.39258 Z M 69.1895 -48.7793 C 69.1406 -48.8281 69.1895 -48.8281 69.2383 -48.877 C 69.2383 -48.7793 69.1895 -48.7793 69.1895 -48.7793 Z"/>
  </g>
  <g id="Black-S" transform="matrix(1 0 0 1 2882.62 696)">
   <path d="M 61.6211 -72.998 L 86.9629 -47.6562 C 94.0918 -54.4922 95.2637 -65.2344 87.2559 -73.291 C 79.1992 -81.2988 68.457 -80.127 61.6211 -72.998 Z M 56.1035 -67.5293 C 52.2949 -63.8672 50.1465 -59.082 50.2441 -54.1992 L 15.0391 -16.6016 C 13.0859 -14.5508 13.2812 -12.4512 15.4297 -9.32617 L 9.57031 -2.14844 C 8.34961 -0.634766 8.64258 1.46484 10.0098 2.83203 L 11.1328 3.95508 C 12.5488 5.37109 14.6484 5.61523 16.2598 4.29688 L 23.291 -1.51367 C 26.416 0.634766 28.4668 0.78125 30.5176 -1.12305 L 45.8984 -15.4785 L 45.8984 -0.341797 C 45.8984 2.83203 48.4375 5.32227 51.6113 5.32227 C 54.7852 5.32227 57.3242 2.83203 57.3242 -0.341797 L 57.3242 -22.5098 L 57.1289 -25.9766 L 68.2129 -36.3281 C 73.0469 -36.2793 77.7832 -38.3789 81.4453 -42.1875 Z M 23.3398 -12.5977 L 54.0039 -43.9453 C 54.541 -43.2617 55.127 -42.5781 55.8105 -41.9434 C 56.4453 -41.2598 57.1777 -40.6738 57.8613 -40.0879 L 26.5625 -9.375 Z"/>
  </g>
  <g id="Heavy-S" transform="matrix(1 0 0 1 2586.81 696)">
   <path d="M 60.9375 -71.875 L 85.3027 -47.4609 C 92.334 -54.248 93.3105 -64.502 85.6445 -72.168 C 77.9785 -79.834 67.7246 -78.9062 60.9375 -71.875 Z M 55.7129 -66.6992 C 51.9043 -62.9883 49.9023 -58.3008 50.0977 -53.5156 L 14.7949 -15.7715 C 12.9395 -13.8184 12.9883 -11.6699 15.0391 -8.88672 L 9.47266 -1.95312 C 8.39844 -0.585938 8.64258 1.26953 9.86328 2.49023 L 10.9863 3.61328 C 12.2559 4.88281 14.0625 5.07812 15.4785 3.90625 L 22.3633 -1.66016 C 25.1465 0.390625 27.2461 0.439453 29.1992 -1.36719 L 45.5078 -16.6016 L 45.5078 0 C 45.5078 2.92969 47.8516 5.17578 50.7812 5.17578 C 53.7109 5.17578 56.0547 2.92969 56.0547 0 L 56.0547 -22.2168 L 55.8105 -26.2207 L 66.9922 -36.6211 C 71.7285 -36.4746 76.4648 -38.4766 80.127 -42.2852 Z M 22.2168 -11.9141 L 53.5156 -44.1895 C 54.1016 -43.457 54.6875 -42.7246 55.4199 -42.041 C 56.1035 -41.3086 56.8359 -40.6738 57.5684 -40.0879 L 25.3906 -8.74023 Z"/>
  </g>
  <g id="Bold-S" transform="matrix(1 0 0 1 2291.1 696)">
   <path d="M 60.1562 -70.6055 L 83.4961 -47.2656 C 90.3809 -54.0039 91.0645 -63.7207 83.8379 -70.9473 C 76.6113 -78.1738 66.8945 -77.4902 60.1562 -70.6055 Z M 55.3223 -65.7715 C 51.5137 -62.0117 49.6094 -57.373 49.9023 -52.7832 L 14.502 -14.8438 C 12.793 -13.0371 12.7441 -10.8398 14.6484 -8.39844 L 9.375 -1.66016 C 8.49609 -0.585938 8.59375 1.02539 9.7168 2.09961 L 10.8398 3.22266 C 11.9141 4.29688 13.4766 4.44336 14.6484 3.4668 L 21.2891 -1.80664 C 23.7305 0.146484 25.9277 0.0488281 27.7344 -1.66016 L 45.1172 -17.8223 L 45.1172 0.341797 C 45.1172 2.97852 47.2168 5.0293 49.8535 5.0293 C 52.4902 5.0293 54.5898 2.97852 54.5898 0.341797 L 54.5898 -21.875 L 54.3457 -26.416 L 65.6738 -36.9629 C 70.3125 -36.7188 74.9023 -38.623 78.6133 -42.4316 Z M 20.9473 -11.1816 L 52.9785 -44.4336 C 53.5645 -43.6523 54.1992 -42.8711 54.9805 -42.0898 C 55.7129 -41.3574 56.4941 -40.6738 57.2754 -40.0879 L 24.0723 -8.05664 Z"/>
  </g>
  <g id="Semibold-S" transform="matrix(1 0 0 1 1995.07 696)">
   <path d="M 59.668 -69.7266 L 82.2266 -47.168 C 89.0137 -53.8086 89.5508 -63.1348 82.6172 -70.1172 C 75.6348 -77.002 66.3574 -76.5137 59.668 -69.7266 Z M 55.0293 -65.1367 C 51.2207 -61.377 49.3652 -56.7871 49.7559 -52.2461 L 14.3066 -14.209 C 12.6953 -12.5 12.5 -10.2539 14.4043 -8.05664 L 9.32617 -1.51367 C 8.54492 -0.537109 8.59375 0.830078 9.57031 1.80664 L 10.6934 2.92969 C 11.6699 3.90625 13.0371 4.00391 14.1113 3.17383 L 20.5566 -1.9043 C 22.7539 -0.0488281 25 -0.244141 26.709 -1.85547 L 44.8242 -18.7012 L 44.8242 0.585938 C 44.8242 3.02734 46.7773 4.93164 49.2188 4.93164 C 51.6602 4.93164 53.6133 3.02734 53.6133 0.585938 L 53.6133 -21.6309 L 53.3691 -26.6113 L 64.7461 -37.207 C 69.2871 -36.8652 73.877 -38.7207 77.5879 -42.5293 Z M 20.1172 -10.6445 L 52.5879 -44.6289 C 53.1738 -43.7988 53.8574 -42.9688 54.6875 -42.1875 C 55.4688 -41.4062 56.25 -40.6738 57.0801 -40.0879 L 23.1934 -7.56836 Z"/>
  </g>
  <g id="Medium-S" transform="matrix(1 0 0 1 1698.9 696)">
   <path d="M 59.2773 -69.0918 L 81.2988 -47.0703 C 88.0371 -53.6621 88.4277 -62.7441 81.6406 -69.4824 C 74.9512 -76.123 65.918 -75.8301 59.2773 -69.0918 Z M 54.834 -64.6484 C 51.0254 -60.8398 49.2188 -56.2988 49.6582 -51.8555 L 14.1602 -13.7695 C 12.6465 -12.0605 12.3535 -9.81445 14.1602 -7.76367 L 9.27734 -1.36719 C 8.59375 -0.537109 8.59375 0.732422 9.52148 1.61133 L 10.6445 2.73438 C 11.4746 3.61328 12.6953 3.71094 13.6719 2.97852 L 20.0195 -2.00195 C 21.9727 -0.195312 24.3164 -0.439453 25.9277 -2.00195 L 44.6289 -19.3359 L 44.6289 0.78125 C 44.6289 3.07617 46.4355 4.88281 48.7305 4.88281 C 51.0254 4.88281 52.8809 3.07617 52.8809 0.78125 L 52.8809 -21.4355 L 52.5879 -26.709 L 64.0625 -37.4023 C 68.5059 -37.0117 73.0469 -38.7695 76.8555 -42.5781 Z M 19.4336 -10.2539 L 52.2949 -44.7754 C 52.9297 -43.8965 53.6133 -43.0176 54.4434 -42.2363 C 55.2246 -41.4062 56.1035 -40.6738 56.9336 -40.0879 L 22.5098 -7.22656 Z"/>
  </g>
  <g id="Regular-S" transform="matrix(1 0 0 1 1402.87 696)">
   <path d="M 58.7402 -68.2129 L 80.0293 -46.9238 C 86.6699 -53.5156 86.9141 -62.207 80.4199 -68.6035 C 74.0234 -75 65.3809 -74.8535 58.7402 -68.2129 Z M 54.541 -64.0137 C 50.7324 -60.2051 49.0234 -55.7129 49.5117 -51.3672 L 13.9648 -13.1348 C 12.5488 -11.5234 12.1582 -9.22852 13.916 -7.4707 L 9.17969 -1.2207 C 8.64258 -0.537109 8.59375 0.537109 9.375 1.36719 L 10.498 2.49023 C 11.2793 3.22266 12.3047 3.27148 13.0859 2.63672 L 19.3359 -2.09961 C 21.0449 -0.341797 23.3887 -0.732422 24.9512 -2.14844 L 44.3359 -20.166 L 44.3359 1.02539 C 44.3359 3.125 46.0449 4.78516 48.1445 4.78516 C 50.2441 4.78516 51.9043 3.125 51.9043 1.02539 L 51.9043 -21.1914 L 51.6113 -26.9043 L 63.1836 -37.6465 C 67.5293 -37.1582 72.0215 -38.8672 75.8301 -42.6758 Z M 18.6035 -9.7168 L 51.9043 -44.9707 C 52.5391 -44.043 53.2715 -43.1641 54.1504 -42.2852 C 54.9805 -41.4551 55.8594 -40.7227 56.7871 -40.0879 L 21.582 -6.73828 Z"/>
  </g>
  <g id="Light-S" transform="matrix(1 0 0 1 1106.53 696)">
   <path d="M 58.2031 -68.3594 L 79.1016 -47.4609 C 85.9375 -54.248 86.1816 -62.5977 79.7363 -68.9941 C 73.3398 -75.3418 64.9902 -75.1953 58.2031 -68.3594 Z M 54.6387 -64.7949 C 50.4883 -60.6445 48.7793 -56.0547 49.4141 -51.6113 L 13.8672 -13.3301 C 12.4023 -11.7188 12.3047 -9.7168 14.1602 -7.86133 L 9.08203 -1.46484 C 8.69141 -0.976562 8.64258 -0.195312 9.22852 0.390625 L 10.3516 1.51367 C 10.9375 2.09961 11.6699 2.14844 12.3047 1.66016 L 18.6523 -3.41797 C 20.4102 -1.5625 22.5098 -1.70898 24.0234 -3.125 L 44.1895 -21.7773 L 44.1895 0.585938 C 44.1895 2.44141 45.6543 3.80859 47.4609 3.80859 C 49.3164 3.80859 50.7324 2.44141 50.7324 0.585938 L 50.7324 -22.3633 L 50.4883 -27.5879 L 62.2559 -38.4766 C 66.6992 -37.8906 71.3867 -39.6973 75.5371 -43.8965 Z M 17.1875 -10.4004 L 51.2207 -46.5332 C 51.9531 -45.3613 52.7832 -44.1895 53.8574 -43.0664 C 54.8828 -41.9922 55.957 -41.0645 57.1289 -40.3809 L 21.1914 -6.44531 Z"/>
  </g>
  <g id="Thin-S" transform="matrix(1 0 0 1 810.328 696)">
   <path d="M 57.4707 -68.5059 L 77.832 -48.1445 C 84.9609 -55.1758 85.2051 -63.1836 78.8086 -69.4824 C 72.4609 -75.7812 64.502 -75.5859 57.4707 -68.5059 Z M 54.7852 -65.8691 C 50.0977 -61.1816 48.4375 -56.4941 49.3164 -52.002 L 13.6719 -13.5742 C 12.3047 -12.0117 12.4512 -10.3516 14.4531 -8.44727 L 8.93555 -1.80664 C 8.74023 -1.51367 8.74023 -1.12305 9.08203 -0.830078 L 10.2051 0.292969 C 10.5469 0.634766 10.8887 0.634766 11.2305 0.390625 L 17.8223 -5.17578 C 19.5801 -3.125 21.3867 -2.97852 22.8516 -4.39453 L 44.043 -23.9258 L 44.043 0.0488281 C 44.043 1.46484 45.166 2.58789 46.6309 2.58789 C 48.1445 2.58789 49.2676 1.46484 49.2676 0.0488281 L 49.2676 -23.877 L 48.9746 -28.5156 L 60.9863 -39.5996 C 65.5273 -38.8184 70.5566 -40.8203 75.1953 -45.459 Z M 15.3809 -11.2793 L 50.3906 -48.6328 C 51.123 -47.1191 52.1484 -45.6055 53.418 -44.1406 C 54.7363 -42.6758 56.1035 -41.5527 57.6172 -40.7715 L 20.6055 -6.00586 Z"/>
  </g>
  <g id="Ultralight-S" transform="matrix(1 0 0 1 513.886 696)">
   <path d="M 57.1289 -68.6035 L 77.1973 -48.4863 C 84.4238 -55.7129 84.668 -63.4766 78.3203 -69.7754 C 72.0215 -76.0254 64.2578 -75.8301 57.1289 -68.6035 Z M 54.8828 -66.4062 C 49.9023 -61.4746 48.2422 -56.7383 49.2188 -52.1973 L 13.5742 -13.6719 C 12.207 -12.1582 12.5488 -10.6445 14.5996 -8.74023 L 8.83789 -2.00195 C 8.74023 -1.85547 8.78906 -1.66016 8.98438 -1.46484 L 10.1074 -0.341797 C 10.3027 -0.0976562 10.4492 -0.0976562 10.6934 -0.292969 L 17.3828 -6.10352 C 19.1406 -3.95508 20.8008 -3.66211 22.2656 -5.0293 L 43.9941 -25.0977 L 43.9453 -24.6582 L 43.9453 -0.292969 C 43.9453 0.976562 44.873 1.95312 46.1914 1.95312 C 47.5098 1.95312 48.4863 0.976562 48.4863 -0.292969 L 48.4863 -24.6582 L 48.2422 -29.0039 L 60.3516 -40.1855 C 64.9414 -39.3066 70.0684 -41.4062 75 -46.2891 Z M 14.4043 -11.7188 L 50 -49.7559 C 50.7324 -48.0469 51.8066 -46.3867 53.2227 -44.6777 C 54.6387 -43.0176 56.2012 -41.7969 57.8613 -41.0156 L 20.3125 -5.81055 Z M 54.248 -45.6543 C 54.248 -45.7031 54.248 -45.7031 54.248 -45.7031 L 54.248 -45.6543 Z"/>
  </g>
 </g>
</svg>
